<svg width="834" height="484" viewBox="0 0 834 484" fill="none" xmlns="http://www.w3.org/2000/svg">
<path d="M40 42C40 40.8954 40.8954 40 42 40H792C793.105 40 794 40.8954 794 42V442C794 443.105 793.105 444 792 444H42C40.8954 444 40 443.105 40 442V42Z" fill="white"/>
<path d="M42 40V41H792V40V39H42V40ZM794 42H793V442H794H795V42H794ZM792 444V443H42V444V445H792V444ZM40 442H41V42H40H39V442H40ZM42 444V443C41.4477 443 41 442.552 41 442H40H39C39 443.657 40.3432 445 42 445V444ZM794 442H793C793 442.552 792.552 443 792 443V444V445C793.657 445 795 443.657 795 442H794ZM792 40V41C792.552 41 793 41.4477 793 42H794H795C795 40.3431 793.657 39 792 39V40ZM42 40V39C40.3431 39 39 40.3432 39 42H40H41C41 41.4477 41.4477 41 42 41V40Z" fill="black" fill-opacity="0.1"/>
<rect x="140.5" y="140.5" width="88" height="203" rx="4.5" stroke="#8A38F5" stroke-dasharray="10 5"/>
<g filter="url(#filter0_dd_0_1)">
<rect x="160" y="160" width="49" height="40" rx="20" fill="url(#paint0_linear_0_1)"/>
<rect x="160.5" y="160.5" width="48" height="39" rx="19.5" stroke="white"/>
<path d="M177.979 185H176.348L180.012 174.818H181.787L185.451 185H183.82L180.942 176.668H180.862L177.979 185ZM178.252 181.013H183.542V182.305H178.252V181.013ZM188.289 174.818V185H186.802V174.818H188.289ZM191.775 174.818V185H190.288V174.818H191.775Z" fill="black" fill-opacity="0.87"/>
</g>
<path d="M177.979 247H176.348L180.012 236.818H181.787L185.451 247H183.82L180.942 238.668H180.862L177.979 247ZM178.252 243.013H183.542V244.305H178.252V243.013ZM188.289 236.818V247H186.802V236.818H188.289ZM191.775 236.818V247H190.288V236.818H191.775Z" fill="black" fill-opacity="0.5"/>
<path d="M177.979 309H176.348L180.012 298.818H181.787L185.451 309H183.82L180.942 300.668H180.862L177.979 309ZM178.252 305.013H183.542V306.305H178.252V305.013ZM188.289 298.818V309H186.802V298.818H188.289ZM191.775 298.818V309H190.288V298.818H191.775Z" fill="black" fill-opacity="0.34"/>
<rect x="334" y="162" width="360" height="48" rx="24" fill="#F2F1ED"/>
<g filter="url(#filter1_dd_0_1)">
<rect x="338" y="166" width="68" height="40" rx="20" fill="url(#paint1_linear_0_1)"/>
<rect x="338.5" y="166.5" width="67" height="39" rx="19.5" stroke="white"/>
<path d="M356.655 180.818V191H355.119V180.818H356.655ZM362.337 183.364V184.557H358.166V183.364H362.337ZM359.285 181.534H360.771V188.758C360.771 189.046 360.814 189.263 360.901 189.409C360.987 189.552 361.098 189.649 361.234 189.702C361.373 189.752 361.524 189.777 361.686 189.777C361.805 189.777 361.91 189.769 361.999 189.752C362.089 189.736 362.158 189.722 362.208 189.712L362.477 190.94C362.39 190.973 362.268 191.007 362.109 191.04C361.95 191.076 361.751 191.096 361.512 191.099C361.121 191.106 360.756 191.036 360.418 190.891C360.08 190.745 359.807 190.519 359.598 190.214C359.389 189.91 359.285 189.527 359.285 189.066V181.534ZM367.191 191.154C366.439 191.154 365.791 190.993 365.247 190.672C364.707 190.347 364.289 189.891 363.994 189.305C363.702 188.715 363.557 188.024 363.557 187.232C363.557 186.449 363.702 185.76 363.994 185.163C364.289 184.567 364.7 184.101 365.227 183.766C365.757 183.432 366.377 183.264 367.086 183.264C367.517 183.264 367.935 183.335 368.339 183.478C368.744 183.621 369.107 183.844 369.428 184.149C369.75 184.454 370.003 184.85 370.189 185.337C370.374 185.821 370.467 186.41 370.467 187.102V187.629H364.397V186.516H369.01C369.01 186.125 368.931 185.778 368.772 185.477C368.613 185.172 368.389 184.931 368.101 184.756C367.816 184.58 367.481 184.492 367.096 184.492C366.679 184.492 366.314 184.595 366.003 184.8C365.694 185.003 365.456 185.268 365.287 185.596C365.121 185.921 365.038 186.274 365.038 186.655V187.525C365.038 188.035 365.128 188.469 365.307 188.827C365.489 189.185 365.742 189.459 366.067 189.648C366.392 189.833 366.772 189.926 367.206 189.926C367.488 189.926 367.744 189.886 367.976 189.807C368.208 189.724 368.409 189.601 368.578 189.439C368.747 189.277 368.876 189.076 368.966 188.837L370.373 189.091C370.26 189.505 370.058 189.868 369.766 190.18C369.478 190.488 369.115 190.728 368.677 190.901C368.243 191.07 367.748 191.154 367.191 191.154ZM372.116 191V183.364H373.543V184.607H373.638C373.797 184.186 374.057 183.857 374.418 183.622C374.78 183.384 375.212 183.264 375.716 183.264C376.226 183.264 376.654 183.384 376.999 183.622C377.347 183.861 377.603 184.189 377.769 184.607H377.849C378.031 184.199 378.321 183.874 378.719 183.632C379.116 183.387 379.59 183.264 380.141 183.264C380.833 183.264 381.398 183.481 381.836 183.915C382.277 184.35 382.497 185.004 382.497 185.879V191H381.011V186.018C381.011 185.501 380.87 185.127 380.588 184.895C380.306 184.663 379.97 184.547 379.579 184.547C379.095 184.547 378.719 184.696 378.45 184.994C378.182 185.289 378.048 185.669 378.048 186.133V191H376.566V185.924C376.566 185.51 376.437 185.177 376.178 184.925C375.92 184.673 375.583 184.547 375.169 184.547C374.887 184.547 374.627 184.621 374.388 184.771C374.153 184.916 373.963 185.12 373.817 185.382C373.674 185.644 373.603 185.947 373.603 186.292V191H372.116ZM387.772 180.818V191H386.231V182.359H386.171L383.735 183.95V182.479L386.276 180.818H387.772Z" fill="black" fill-opacity="0.87"/>
</g>
<path d="M424.655 180.818V191H423.119V180.818H424.655ZM430.337 183.364V184.557H426.166V183.364H430.337ZM427.285 181.534H428.771V188.758C428.771 189.046 428.814 189.263 428.901 189.409C428.987 189.552 429.098 189.649 429.234 189.702C429.373 189.752 429.524 189.777 429.686 189.777C429.805 189.777 429.91 189.769 429.999 189.752C430.089 189.736 430.158 189.722 430.208 189.712L430.477 190.94C430.39 190.973 430.268 191.007 430.109 191.04C429.95 191.076 429.751 191.096 429.512 191.099C429.121 191.106 428.756 191.036 428.418 190.891C428.08 190.745 427.807 190.519 427.598 190.214C427.389 189.91 427.285 189.527 427.285 189.066V181.534ZM435.191 191.154C434.439 191.154 433.791 190.993 433.247 190.672C432.707 190.347 432.289 189.891 431.994 189.305C431.702 188.715 431.557 188.024 431.557 187.232C431.557 186.449 431.702 185.76 431.994 185.163C432.289 184.567 432.7 184.101 433.227 183.766C433.757 183.432 434.377 183.264 435.086 183.264C435.517 183.264 435.935 183.335 436.339 183.478C436.744 183.621 437.107 183.844 437.428 184.149C437.75 184.454 438.003 184.85 438.189 185.337C438.374 185.821 438.467 186.41 438.467 187.102V187.629H432.397V186.516H437.01C437.01 186.125 436.931 185.778 436.772 185.477C436.613 185.172 436.389 184.931 436.101 184.756C435.816 184.58 435.481 184.492 435.096 184.492C434.679 184.492 434.314 184.595 434.003 184.8C433.694 185.003 433.456 185.268 433.287 185.596C433.121 185.921 433.038 186.274 433.038 186.655V187.525C433.038 188.035 433.128 188.469 433.307 188.827C433.489 189.185 433.742 189.459 434.067 189.648C434.392 189.833 434.772 189.926 435.206 189.926C435.488 189.926 435.744 189.886 435.976 189.807C436.208 189.724 436.409 189.601 436.578 189.439C436.747 189.277 436.876 189.076 436.966 188.837L438.373 189.091C438.26 189.505 438.058 189.868 437.766 190.18C437.478 190.488 437.115 190.728 436.677 190.901C436.243 191.07 435.748 191.154 435.191 191.154ZM440.116 191V183.364H441.543V184.607H441.638C441.797 184.186 442.057 183.857 442.418 183.622C442.78 183.384 443.212 183.264 443.716 183.264C444.226 183.264 444.654 183.384 444.999 183.622C445.347 183.861 445.603 184.189 445.769 184.607H445.849C446.031 184.199 446.321 183.874 446.719 183.632C447.116 183.387 447.59 183.264 448.141 183.264C448.833 183.264 449.398 183.481 449.836 183.915C450.277 184.35 450.497 185.004 450.497 185.879V191H449.011V186.018C449.011 185.501 448.87 185.127 448.588 184.895C448.306 184.663 447.97 184.547 447.579 184.547C447.095 184.547 446.719 184.696 446.45 184.994C446.182 185.289 446.048 185.669 446.048 186.133V191H444.566V185.924C444.566 185.51 444.437 185.177 444.178 184.925C443.92 184.673 443.583 184.547 443.169 184.547C442.887 184.547 442.627 184.621 442.388 184.771C442.153 184.916 441.963 185.12 441.817 185.382C441.674 185.644 441.603 185.947 441.603 186.292V191H440.116ZM452.47 191V189.886L455.915 186.317C456.283 185.929 456.586 185.589 456.825 185.298C457.067 185.003 457.247 184.723 457.367 184.457C457.486 184.192 457.546 183.911 457.546 183.612C457.546 183.274 457.466 182.982 457.307 182.737C457.148 182.489 456.931 182.298 456.656 182.165C456.381 182.03 456.071 181.962 455.726 181.962C455.361 181.962 455.043 182.036 454.771 182.185C454.5 182.335 454.291 182.545 454.145 182.817C453.999 183.089 453.926 183.407 453.926 183.771H452.46C452.46 183.152 452.602 182.61 452.887 182.146C453.172 181.682 453.563 181.322 454.061 181.067C454.558 180.808 455.123 180.679 455.756 180.679C456.396 180.679 456.959 180.807 457.446 181.062C457.937 181.314 458.32 181.658 458.595 182.096C458.87 182.53 459.007 183.021 459.007 183.567C459.007 183.945 458.936 184.315 458.794 184.676C458.654 185.037 458.411 185.44 458.063 185.884C457.715 186.325 457.231 186.86 456.611 187.49L454.588 189.608V189.683H459.171V191H452.47Z" fill="black" fill-opacity="0.34"/>
<path d="M495.655 180.818V191H494.119V180.818H495.655ZM501.337 183.364V184.557H497.166V183.364H501.337ZM498.285 181.534H499.771V188.758C499.771 189.046 499.814 189.263 499.901 189.409C499.987 189.552 500.098 189.649 500.234 189.702C500.373 189.752 500.524 189.777 500.686 189.777C500.805 189.777 500.91 189.769 500.999 189.752C501.089 189.736 501.158 189.722 501.208 189.712L501.477 190.94C501.39 190.973 501.268 191.007 501.109 191.04C500.95 191.076 500.751 191.096 500.512 191.099C500.121 191.106 499.756 191.036 499.418 190.891C499.08 190.745 498.807 190.519 498.598 190.214C498.389 189.91 498.285 189.527 498.285 189.066V181.534ZM506.191 191.154C505.439 191.154 504.791 190.993 504.247 190.672C503.707 190.347 503.289 189.891 502.994 189.305C502.702 188.715 502.557 188.024 502.557 187.232C502.557 186.449 502.702 185.76 502.994 185.163C503.289 184.567 503.7 184.101 504.227 183.766C504.757 183.432 505.377 183.264 506.086 183.264C506.517 183.264 506.935 183.335 507.339 183.478C507.744 183.621 508.107 183.844 508.428 184.149C508.75 184.454 509.003 184.85 509.189 185.337C509.374 185.821 509.467 186.41 509.467 187.102V187.629H503.397V186.516H508.01C508.01 186.125 507.931 185.778 507.772 185.477C507.613 185.172 507.389 184.931 507.101 184.756C506.816 184.58 506.481 184.492 506.096 184.492C505.679 184.492 505.314 184.595 505.003 184.8C504.694 185.003 504.456 185.268 504.287 185.596C504.121 185.921 504.038 186.274 504.038 186.655V187.525C504.038 188.035 504.128 188.469 504.307 188.827C504.489 189.185 504.742 189.459 505.067 189.648C505.392 189.833 505.772 189.926 506.206 189.926C506.488 189.926 506.744 189.886 506.976 189.807C507.208 189.724 507.409 189.601 507.578 189.439C507.747 189.277 507.876 189.076 507.966 188.837L509.373 189.091C509.26 189.505 509.058 189.868 508.766 190.18C508.478 190.488 508.115 190.728 507.677 190.901C507.243 191.07 506.748 191.154 506.191 191.154ZM511.116 191V183.364H512.543V184.607H512.638C512.797 184.186 513.057 183.857 513.418 183.622C513.78 183.384 514.212 183.264 514.716 183.264C515.226 183.264 515.654 183.384 515.999 183.622C516.347 183.861 516.603 184.189 516.769 184.607H516.849C517.031 184.199 517.321 183.874 517.719 183.632C518.116 183.387 518.59 183.264 519.141 183.264C519.833 183.264 520.398 183.481 520.836 183.915C521.277 184.35 521.497 185.004 521.497 185.879V191H520.011V186.018C520.011 185.501 519.87 185.127 519.588 184.895C519.306 184.663 518.97 184.547 518.579 184.547C518.095 184.547 517.719 184.696 517.45 184.994C517.182 185.289 517.048 185.669 517.048 186.133V191H515.566V185.924C515.566 185.51 515.437 185.177 515.178 184.925C514.92 184.673 514.583 184.547 514.169 184.547C513.887 184.547 513.627 184.621 513.388 184.771C513.153 184.916 512.963 185.12 512.817 185.382C512.674 185.644 512.603 185.947 512.603 186.292V191H511.116ZM527.014 191.139C526.332 191.139 525.722 191.022 525.185 190.786C524.651 190.551 524.229 190.224 523.917 189.807C523.609 189.386 523.443 188.899 523.42 188.345H524.981C525.001 188.647 525.102 188.909 525.284 189.131C525.47 189.349 525.712 189.518 526.01 189.638C526.308 189.757 526.64 189.817 527.004 189.817C527.405 189.817 527.76 189.747 528.068 189.608C528.38 189.469 528.624 189.275 528.799 189.026C528.975 188.774 529.063 188.484 529.063 188.156C529.063 187.815 528.975 187.515 528.799 187.256C528.627 186.995 528.373 186.789 528.039 186.64C527.707 186.491 527.306 186.416 526.835 186.416H525.975V185.163H526.835C527.213 185.163 527.545 185.095 527.83 184.96C528.118 184.824 528.343 184.635 528.506 184.393C528.668 184.147 528.749 183.861 528.749 183.533C528.749 183.218 528.678 182.944 528.536 182.712C528.396 182.477 528.198 182.293 527.939 182.161C527.684 182.028 527.382 181.962 527.034 181.962C526.703 181.962 526.393 182.023 526.105 182.146C525.82 182.265 525.588 182.437 525.409 182.663C525.23 182.885 525.133 183.152 525.12 183.463H523.634C523.65 182.913 523.813 182.429 524.121 182.011C524.432 181.594 524.843 181.267 525.354 181.032C525.864 180.797 526.431 180.679 527.054 180.679C527.707 180.679 528.271 180.807 528.744 181.062C529.222 181.314 529.59 181.65 529.848 182.071C530.11 182.492 530.239 182.953 530.236 183.453C530.239 184.023 530.08 184.507 529.759 184.905C529.441 185.303 529.016 185.569 528.486 185.705V185.785C529.162 185.888 529.686 186.156 530.057 186.59C530.432 187.024 530.617 187.563 530.614 188.206C530.617 188.766 530.461 189.268 530.146 189.712C529.835 190.156 529.409 190.506 528.869 190.761C528.329 191.013 527.71 191.139 527.014 191.139Z" fill="black" fill-opacity="0.34"/>
<path d="M566.655 180.818V191H565.119V180.818H566.655ZM572.337 183.364V184.557H568.166V183.364H572.337ZM569.285 181.534H570.771V188.758C570.771 189.046 570.814 189.263 570.901 189.409C570.987 189.552 571.098 189.649 571.234 189.702C571.373 189.752 571.524 189.777 571.686 189.777C571.805 189.777 571.91 189.769 571.999 189.752C572.089 189.736 572.158 189.722 572.208 189.712L572.477 190.94C572.39 190.973 572.268 191.007 572.109 191.04C571.95 191.076 571.751 191.096 571.512 191.099C571.121 191.106 570.756 191.036 570.418 190.891C570.08 190.745 569.807 190.519 569.598 190.214C569.389 189.91 569.285 189.527 569.285 189.066V181.534ZM577.191 191.154C576.439 191.154 575.791 190.993 575.247 190.672C574.707 190.347 574.289 189.891 573.994 189.305C573.702 188.715 573.557 188.024 573.557 187.232C573.557 186.449 573.702 185.76 573.994 185.163C574.289 184.567 574.7 184.101 575.227 183.766C575.757 183.432 576.377 183.264 577.086 183.264C577.517 183.264 577.935 183.335 578.339 183.478C578.744 183.621 579.107 183.844 579.428 184.149C579.75 184.454 580.003 184.85 580.189 185.337C580.374 185.821 580.467 186.41 580.467 187.102V187.629H574.397V186.516H579.01C579.01 186.125 578.931 185.778 578.772 185.477C578.613 185.172 578.389 184.931 578.101 184.756C577.816 184.58 577.481 184.492 577.096 184.492C576.679 184.492 576.314 184.595 576.003 184.8C575.694 185.003 575.456 185.268 575.287 185.596C575.121 185.921 575.038 186.274 575.038 186.655V187.525C575.038 188.035 575.128 188.469 575.307 188.827C575.489 189.185 575.742 189.459 576.067 189.648C576.392 189.833 576.772 189.926 577.206 189.926C577.488 189.926 577.744 189.886 577.976 189.807C578.208 189.724 578.409 189.601 578.578 189.439C578.747 189.277 578.876 189.076 578.966 188.837L580.373 189.091C580.26 189.505 580.058 189.868 579.766 190.18C579.478 190.488 579.115 190.728 578.677 190.901C578.243 191.07 577.748 191.154 577.191 191.154ZM582.116 191V183.364H583.543V184.607H583.638C583.797 184.186 584.057 183.857 584.418 183.622C584.78 183.384 585.212 183.264 585.716 183.264C586.226 183.264 586.654 183.384 586.999 183.622C587.347 183.861 587.603 184.189 587.769 184.607H587.849C588.031 184.199 588.321 183.874 588.719 183.632C589.116 183.387 589.59 183.264 590.141 183.264C590.833 183.264 591.398 183.481 591.836 183.915C592.277 184.35 592.497 185.004 592.497 185.879V191H591.011V186.018C591.011 185.501 590.87 185.127 590.588 184.895C590.306 184.663 589.97 184.547 589.579 184.547C589.095 184.547 588.719 184.696 588.45 184.994C588.182 185.289 588.048 185.669 588.048 186.133V191H586.566V185.924C586.566 185.51 586.437 185.177 586.178 184.925C585.92 184.673 585.583 184.547 585.169 184.547C584.887 184.547 584.627 184.621 584.388 184.771C584.153 184.916 583.963 185.12 583.817 185.382C583.674 185.644 583.603 185.947 583.603 186.292V191H582.116ZM594.256 189.011V187.768L598.656 180.818H599.635V182.648H599.014L595.867 187.629V187.709H601.897V189.011H594.256ZM599.083 191V188.634L599.093 188.067V180.818H600.55V191H599.083Z" fill="black" fill-opacity="0.34"/>
<path d="M637.655 180.818V191H636.119V180.818H637.655ZM643.337 183.364V184.557H639.166V183.364H643.337ZM640.285 181.534H641.771V188.758C641.771 189.046 641.814 189.263 641.901 189.409C641.987 189.552 642.098 189.649 642.234 189.702C642.373 189.752 642.524 189.777 642.686 189.777C642.805 189.777 642.91 189.769 642.999 189.752C643.089 189.736 643.158 189.722 643.208 189.712L643.477 190.94C643.39 190.973 643.268 191.007 643.109 191.04C642.95 191.076 642.751 191.096 642.512 191.099C642.121 191.106 641.756 191.036 641.418 190.891C641.08 190.745 640.807 190.519 640.598 190.214C640.389 189.91 640.285 189.527 640.285 189.066V181.534ZM648.191 191.154C647.439 191.154 646.791 190.993 646.247 190.672C645.707 190.347 645.289 189.891 644.994 189.305C644.702 188.715 644.557 188.024 644.557 187.232C644.557 186.449 644.702 185.76 644.994 185.163C645.289 184.567 645.7 184.101 646.227 183.766C646.757 183.432 647.377 183.264 648.086 183.264C648.517 183.264 648.935 183.335 649.339 183.478C649.744 183.621 650.107 183.844 650.428 184.149C650.75 184.454 651.003 184.85 651.189 185.337C651.374 185.821 651.467 186.41 651.467 187.102V187.629H645.397V186.516H650.01C650.01 186.125 649.931 185.778 649.772 185.477C649.613 185.172 649.389 184.931 649.101 184.756C648.816 184.58 648.481 184.492 648.096 184.492C647.679 184.492 647.314 184.595 647.003 184.8C646.694 185.003 646.456 185.268 646.287 185.596C646.121 185.921 646.038 186.274 646.038 186.655V187.525C646.038 188.035 646.128 188.469 646.307 188.827C646.489 189.185 646.742 189.459 647.067 189.648C647.392 189.833 647.772 189.926 648.206 189.926C648.488 189.926 648.744 189.886 648.976 189.807C649.208 189.724 649.409 189.601 649.578 189.439C649.747 189.277 649.876 189.076 649.966 188.837L651.373 189.091C651.26 189.505 651.058 189.868 650.766 190.18C650.478 190.488 650.115 190.728 649.677 190.901C649.243 191.07 648.748 191.154 648.191 191.154ZM653.116 191V183.364H654.543V184.607H654.638C654.797 184.186 655.057 183.857 655.418 183.622C655.78 183.384 656.212 183.264 656.716 183.264C657.226 183.264 657.654 183.384 657.999 183.622C658.347 183.861 658.603 184.189 658.769 184.607H658.849C659.031 184.199 659.321 183.874 659.719 183.632C660.116 183.387 660.59 183.264 661.141 183.264C661.833 183.264 662.398 183.481 662.836 183.915C663.277 184.35 663.497 185.004 663.497 185.879V191H662.011V186.018C662.011 185.501 661.87 185.127 661.588 184.895C661.306 184.663 660.97 184.547 660.579 184.547C660.095 184.547 659.719 184.696 659.45 184.994C659.182 185.289 659.048 185.669 659.048 186.133V191H657.566V185.924C657.566 185.51 657.437 185.177 657.178 184.925C656.92 184.673 656.583 184.547 656.169 184.547C655.887 184.547 655.627 184.621 655.388 184.771C655.153 184.916 654.963 185.12 654.817 185.382C654.674 185.644 654.603 185.947 654.603 186.292V191H653.116ZM668.83 191.139C668.207 191.139 667.647 191.02 667.15 190.781C666.656 190.539 666.262 190.208 665.967 189.787C665.672 189.366 665.514 188.885 665.494 188.345H666.986C667.022 188.783 667.216 189.142 667.568 189.424C667.919 189.706 668.34 189.847 668.83 189.847C669.222 189.847 669.568 189.757 669.869 189.578C670.174 189.396 670.413 189.146 670.585 188.827C670.761 188.509 670.849 188.146 670.849 187.739C670.849 187.324 670.759 186.955 670.58 186.63C670.401 186.305 670.155 186.05 669.84 185.864C669.528 185.679 669.17 185.584 668.766 185.581C668.458 185.581 668.148 185.634 667.836 185.74C667.525 185.846 667.273 185.985 667.08 186.158L665.673 185.949L666.245 180.818H671.843V182.136H667.523L667.2 184.984H667.259C667.458 184.792 667.722 184.631 668.05 184.502C668.381 184.373 668.736 184.308 669.114 184.308C669.734 184.308 670.285 184.456 670.769 184.751C671.257 185.046 671.639 185.448 671.918 185.959C672.2 186.466 672.339 187.049 672.335 187.709C672.339 188.368 672.19 188.957 671.888 189.474C671.59 189.991 671.175 190.398 670.645 190.697C670.118 190.992 669.513 191.139 668.83 191.139Z" fill="black" fill-opacity="0.34"/>
<rect x="40" y="4" width="47.3281" height="30" rx="3" fill="white"/>
<rect x="40.5" y="4.5" width="46.3281" height="29" rx="2.5" stroke="black" stroke-opacity="0.2"/>
<path d="M51.3438 16C51.2969 15.6042 51.1068 15.2969 50.7734 15.0781C50.4401 14.8594 50.0313 14.75 49.5469 14.75C49.1927 14.75 48.8828 14.8073 48.6172 14.9219C48.3542 15.0365 48.1484 15.194 48 15.3945C47.8542 15.5951 47.7813 15.8229 47.7813 16.0781C47.7813 16.2917 47.832 16.4753 47.9336 16.6289C48.0378 16.7799 48.1706 16.9062 48.332 17.0078C48.4935 17.1068 48.6628 17.1888 48.8398 17.2539C49.0169 17.3164 49.1797 17.3672 49.3281 17.4062L50.1406 17.625C50.349 17.6797 50.5807 17.7552 50.8359 17.8516C51.0938 17.9479 51.3398 18.0794 51.5742 18.2461C51.8112 18.4102 52.0065 18.6211 52.1602 18.8789C52.3138 19.1367 52.3906 19.4531 52.3906 19.8281C52.3906 20.2604 52.2773 20.651 52.0508 21C51.8268 21.349 51.4987 21.6263 51.0664 21.832C50.6367 22.0378 50.1146 22.1406 49.5 22.1406C48.9271 22.1406 48.431 22.0482 48.0117 21.8633C47.5951 21.6784 47.2669 21.4206 47.0273 21.0898C46.7904 20.7591 46.6563 20.375 46.625 19.9375H47.625C47.651 20.2396 47.7526 20.4896 47.9297 20.6875C48.1094 20.8828 48.3359 21.0286 48.6094 21.125C48.8854 21.2187 49.1823 21.2656 49.5 21.2656C49.8698 21.2656 50.2018 21.2057 50.4961 21.0859C50.7904 20.9635 51.0234 20.7943 51.1953 20.5781C51.3672 20.3594 51.4531 20.1042 51.4531 19.8125C51.4531 19.5469 51.3789 19.3307 51.2305 19.1641C51.082 18.9974 50.8867 18.862 50.6445 18.7578C50.4023 18.6536 50.1406 18.5625 49.8594 18.4844L48.875 18.2031C48.25 18.0234 47.7552 17.7669 47.3906 17.4336C47.026 17.1003 46.8438 16.6641 46.8438 16.125C46.8438 15.6771 46.9648 15.2865 47.207 14.9531C47.4518 14.6172 47.7799 14.3568 48.1914 14.1719C48.6055 13.9844 49.0677 13.8906 49.5781 13.8906C50.0938 13.8906 50.5521 13.9831 50.9531 14.168C51.3542 14.3503 51.6719 14.6003 51.9062 14.918C52.1432 15.2357 52.2682 15.5964 52.2813 16H51.3438ZM55.2178 22L53.3896 16H54.3584L55.6553 20.5938H55.7178L56.999 16H57.9834L59.249 20.5781H59.3115L60.6084 16H61.5771L59.749 22H58.8428L57.5303 17.3906H57.4365L56.124 22H55.2178ZM62.7959 22V16H63.7178V22H62.7959ZM63.2646 15C63.085 15 62.93 14.9388 62.7998 14.8164C62.6722 14.694 62.6084 14.5469 62.6084 14.375C62.6084 14.2031 62.6722 14.056 62.7998 13.9336C62.93 13.8112 63.085 13.75 63.2646 13.75C63.4443 13.75 63.598 13.8112 63.7256 13.9336C63.8558 14.056 63.9209 14.2031 63.9209 14.375C63.9209 14.5469 63.8558 14.694 63.7256 14.8164C63.598 14.9388 63.4443 15 63.2646 15ZM67.8438 22.125C67.2813 22.125 66.7969 21.9922 66.3906 21.7266C65.9844 21.4609 65.6719 21.0951 65.4531 20.6289C65.2344 20.1628 65.125 19.6302 65.125 19.0312C65.125 18.4219 65.237 17.8841 65.4609 17.418C65.6875 16.9492 66.0026 16.5833 66.4063 16.3203C66.8125 16.0547 67.2865 15.9219 67.8281 15.9219C68.25 15.9219 68.6302 16 68.9688 16.1562C69.3073 16.3125 69.5846 16.5312 69.8008 16.8125C70.0169 17.0937 70.151 17.4219 70.2031 17.7969H69.2813C69.2109 17.5234 69.0547 17.2812 68.8125 17.0703C68.5729 16.8568 68.25 16.75 67.8438 16.75C67.4844 16.75 67.1693 16.8437 66.8984 17.0312C66.6302 17.2161 66.4206 17.4779 66.2695 17.8164C66.1211 18.1523 66.0469 18.5469 66.0469 19C66.0469 19.4635 66.1198 19.8672 66.2656 20.2109C66.4141 20.5547 66.6224 20.8216 66.8906 21.0117C67.1615 21.2018 67.4792 21.2969 67.8438 21.2969C68.0833 21.2969 68.3008 21.2552 68.4961 21.1719C68.6914 21.0885 68.8568 20.9688 68.9922 20.8125C69.1276 20.6562 69.224 20.4687 69.2813 20.25H70.2031C70.151 20.6042 70.0221 20.9232 69.8164 21.207C69.6133 21.4883 69.3438 21.7122 69.0078 21.8789C68.6745 22.043 68.2865 22.125 67.8438 22.125ZM74.1602 16V16.7812H71.0508V16H74.1602ZM71.957 14.5625H72.8789V20.2812C72.8789 20.5417 72.9167 20.737 72.9922 20.8672C73.0703 20.9948 73.1693 21.0807 73.2891 21.125C73.4115 21.1667 73.5404 21.1875 73.6758 21.1875C73.7773 21.1875 73.8607 21.1823 73.9258 21.1719C73.9909 21.1589 74.043 21.1484 74.082 21.1406L74.2695 21.9687C74.207 21.9922 74.1198 22.0156 74.0078 22.0391C73.8958 22.0651 73.7539 22.0781 73.582 22.0781C73.3216 22.0781 73.0664 22.0221 72.8164 21.9102C72.569 21.7982 72.3633 21.6276 72.1992 21.3984C72.0378 21.1693 71.957 20.8802 71.957 20.5312V14.5625ZM76.5977 18.3906V22H75.6758V14H76.5977V16.9375H76.6758C76.8164 16.6276 77.0273 16.3815 77.3086 16.1992C77.5924 16.0143 77.9701 15.9219 78.4414 15.9219C78.8503 15.9219 79.2083 16.0039 79.5156 16.168C79.8229 16.3294 80.0612 16.5781 80.2305 16.9141C80.4023 17.2474 80.4883 17.6719 80.4883 18.1875V22H79.5664V18.25C79.5664 17.7734 79.4427 17.4049 79.1953 17.1445C78.9505 16.8815 78.6107 16.75 78.1758 16.75C77.8737 16.75 77.6029 16.8138 77.3633 16.9414C77.1263 17.069 76.9388 17.2552 76.8008 17.5C76.6654 17.7448 76.5977 18.0417 76.5977 18.3906Z" fill="black"/>
<defs>
<filter id="filter0_dd_0_1" x="144" y="152" width="81" height="72" filterUnits="userSpaceOnUse" color-interpolation-filters="sRGB">
<feFlood flood-opacity="0" result="BackgroundImageFix"/>
<feColorMatrix in="SourceAlpha" type="matrix" values="0 0 0 0 0 0 0 0 0 0 0 0 0 0 0 0 0 0 127 0" result="hardAlpha"/>
<feOffset dy="8"/>
<feGaussianBlur stdDeviation="8"/>
<feColorMatrix type="matrix" values="0 0 0 0 0 0 0 0 0 0 0 0 0 0 0 0 0 0 0.08 0"/>
<feBlend mode="normal" in2="BackgroundImageFix" result="effect1_dropShadow_0_1"/>
<feColorMatrix in="SourceAlpha" type="matrix" values="0 0 0 0 0 0 0 0 0 0 0 0 0 0 0 0 0 0 127 0" result="hardAlpha"/>
<feOffset/>
<feGaussianBlur stdDeviation="2"/>
<feColorMatrix type="matrix" values="0 0 0 0 0 0 0 0 0 0 0 0 0 0 0 0 0 0 0.04 0"/>
<feBlend mode="normal" in2="effect1_dropShadow_0_1" result="effect2_dropShadow_0_1"/>
<feBlend mode="normal" in="SourceGraphic" in2="effect2_dropShadow_0_1" result="shape"/>
</filter>
<filter id="filter1_dd_0_1" x="322" y="158" width="100" height="72" filterUnits="userSpaceOnUse" color-interpolation-filters="sRGB">
<feFlood flood-opacity="0" result="BackgroundImageFix"/>
<feColorMatrix in="SourceAlpha" type="matrix" values="0 0 0 0 0 0 0 0 0 0 0 0 0 0 0 0 0 0 127 0" result="hardAlpha"/>
<feOffset dy="8"/>
<feGaussianBlur stdDeviation="8"/>
<feColorMatrix type="matrix" values="0 0 0 0 0 0 0 0 0 0 0 0 0 0 0 0 0 0 0.08 0"/>
<feBlend mode="normal" in2="BackgroundImageFix" result="effect1_dropShadow_0_1"/>
<feColorMatrix in="SourceAlpha" type="matrix" values="0 0 0 0 0 0 0 0 0 0 0 0 0 0 0 0 0 0 127 0" result="hardAlpha"/>
<feOffset/>
<feGaussianBlur stdDeviation="2"/>
<feColorMatrix type="matrix" values="0 0 0 0 0 0 0 0 0 0 0 0 0 0 0 0 0 0 0.04 0"/>
<feBlend mode="normal" in2="effect1_dropShadow_0_1" result="effect2_dropShadow_0_1"/>
<feBlend mode="normal" in="SourceGraphic" in2="effect2_dropShadow_0_1" result="shape"/>
</filter>
<linearGradient id="paint0_linear_0_1" x1="165" y1="166.5" x2="201.5" y2="197.5" gradientUnits="userSpaceOnUse">
<stop stop-color="#F6F6F4"/>
<stop offset="0.514423" stop-color="#FBFAF9"/>
<stop offset="1" stop-color="#F8F8F7"/>
</linearGradient>
<linearGradient id="paint1_linear_0_1" x1="344.939" y1="172.5" x2="381.433" y2="215.513" gradientUnits="userSpaceOnUse">
<stop stop-color="#F6F6F4"/>
<stop offset="0.514423" stop-color="#FBFAF9"/>
<stop offset="1" stop-color="#F8F8F7"/>
</linearGradient>
</defs>
</svg>
