<svg width="920" height="710" viewBox="0 0 920 710" fill="none" xmlns="http://www.w3.org/2000/svg">
<path d="M40 42C40 40.8954 40.8954 40 42 40H878C879.105 40 880 40.8954 880 42V668C880 669.105 879.105 670 878 670H42C40.8954 670 40 669.105 40 668V42Z" fill="white"/>
<path d="M42 40V41H878V40V39H42V40ZM880 42H879V668H880H881V42H880ZM878 670V669H42V670V671H878V670ZM40 668H41V42H40H39V668H40ZM42 670V669C41.4477 669 41 668.552 41 668H40H39C39 669.657 40.3432 671 42 671V670ZM880 668H879C879 668.552 878.552 669 878 669V670V671C879.657 671 881 669.657 881 668H880ZM878 40V41C878.552 41 879 41.4477 879 42H880H881C881 40.3431 879.657 39 878 39V40ZM42 40V39C40.3431 39 39 40.3431 39 42H40H41C41 41.4477 41.4477 41 42 41V40Z" fill="black" fill-opacity="0.1"/>
<rect x="140" y="140" width="640" height="430" rx="32" fill="#FBFBFA"/>
<path d="M189.722 212V194.545H196.403C197.665 194.545 198.713 194.744 199.548 195.142C200.389 195.534 201.017 196.071 201.432 196.753C201.852 197.435 202.062 198.207 202.062 199.071C202.062 199.781 201.926 200.389 201.653 200.895C201.381 201.395 201.014 201.801 200.554 202.114C200.094 202.426 199.58 202.651 199.011 202.787V202.957C199.631 202.991 200.224 203.182 200.793 203.528C201.366 203.869 201.835 204.352 202.199 204.977C202.563 205.602 202.744 206.358 202.744 207.244C202.744 208.148 202.526 208.96 202.088 209.682C201.651 210.398 200.991 210.963 200.111 211.378C199.23 211.793 198.122 212 196.787 212H189.722ZM192.884 209.358H196.284C197.432 209.358 198.259 209.139 198.764 208.702C199.276 208.259 199.531 207.69 199.531 206.997C199.531 206.48 199.403 206.014 199.148 205.599C198.892 205.179 198.528 204.849 198.057 204.611C197.585 204.366 197.023 204.244 196.369 204.244H192.884V209.358ZM192.884 201.969H196.011C196.557 201.969 197.048 201.869 197.486 201.67C197.923 201.466 198.267 201.179 198.517 200.81C198.773 200.435 198.901 199.991 198.901 199.48C198.901 198.804 198.662 198.247 198.185 197.81C197.713 197.372 197.011 197.153 196.08 197.153H192.884V201.969ZM208.447 203.17H212.308C213.978 203.17 215.271 203.577 216.185 204.389C217.1 205.202 217.56 206.267 217.566 207.585C217.56 208.443 217.35 209.205 216.935 209.869C216.526 210.534 215.93 211.057 215.146 211.438C214.367 211.812 213.421 212 212.308 212H206.359V198.909H209.333V209.469H212.308C212.978 209.469 213.529 209.298 213.961 208.957C214.393 208.611 214.609 208.168 214.609 207.628C214.609 207.06 214.393 206.597 213.961 206.239C213.529 205.881 212.978 205.702 212.308 205.702H208.447V203.17ZM219.194 212V198.909H222.279V212H219.194ZM226.46 212V198.909H231.957C233.509 198.909 234.733 199.219 235.631 199.838C236.534 200.457 236.986 201.321 236.986 202.429C236.986 203.162 236.73 203.761 236.219 204.227C235.713 204.687 235.023 204.997 234.148 205.156C234.835 205.213 235.438 205.386 235.955 205.676C236.477 205.966 236.886 206.347 237.182 206.818C237.477 207.29 237.625 207.832 237.625 208.446C237.625 209.168 237.435 209.795 237.054 210.33C236.679 210.858 236.131 211.27 235.409 211.565C234.693 211.855 233.824 212 232.801 212H226.46ZM229.349 209.571H232.801C233.369 209.571 233.815 209.437 234.139 209.17C234.463 208.898 234.625 208.528 234.625 208.062C234.625 207.523 234.463 207.099 234.139 206.793C233.815 206.48 233.369 206.324 232.801 206.324H229.349V209.571ZM229.349 204.33H232.017C232.438 204.33 232.798 204.27 233.099 204.151C233.401 204.026 233.631 203.852 233.79 203.631C233.949 203.403 234.028 203.134 234.028 202.821C234.028 202.372 233.844 202.02 233.474 201.764C233.111 201.509 232.605 201.381 231.957 201.381H229.349V204.33ZM246.967 212.256C245.654 212.256 244.521 211.983 243.566 211.438C242.617 210.886 241.887 210.108 241.376 209.102C240.864 208.091 240.609 206.901 240.609 205.531C240.609 204.185 240.864 203.003 241.376 201.986C241.893 200.963 242.614 200.168 243.54 199.599C244.467 199.026 245.555 198.739 246.805 198.739C247.612 198.739 248.373 198.869 249.089 199.131C249.81 199.386 250.447 199.784 250.998 200.324C251.555 200.864 251.992 201.551 252.31 202.386C252.629 203.216 252.788 204.205 252.788 205.352V206.298H242.058V204.219H249.83C249.825 203.628 249.697 203.102 249.447 202.642C249.197 202.176 248.847 201.81 248.398 201.543C247.955 201.276 247.438 201.142 246.847 201.142C246.217 201.142 245.663 201.295 245.185 201.602C244.708 201.903 244.336 202.301 244.069 202.795C243.808 203.284 243.674 203.821 243.668 204.406V206.222C243.668 206.983 243.808 207.636 244.086 208.182C244.364 208.722 244.754 209.136 245.254 209.426C245.754 209.71 246.339 209.852 247.009 209.852C247.458 209.852 247.864 209.79 248.228 209.665C248.592 209.534 248.907 209.344 249.174 209.094C249.441 208.844 249.643 208.534 249.779 208.165L252.66 208.489C252.478 209.25 252.131 209.915 251.62 210.483C251.114 211.045 250.467 211.483 249.677 211.795C248.887 212.102 247.984 212.256 246.967 212.256ZM262.108 212.256C260.801 212.256 259.679 211.969 258.741 211.395C257.81 210.821 257.091 210.028 256.585 209.017C256.085 208 255.835 206.83 255.835 205.506C255.835 204.176 256.091 203.003 256.602 201.986C257.114 200.963 257.835 200.168 258.767 199.599C259.705 199.026 260.813 198.739 262.091 198.739C263.153 198.739 264.094 198.935 264.912 199.327C265.736 199.713 266.392 200.261 266.881 200.972C267.369 201.676 267.648 202.5 267.716 203.443H264.767C264.648 202.812 264.364 202.287 263.915 201.866C263.472 201.44 262.878 201.227 262.134 201.227C261.503 201.227 260.949 201.398 260.472 201.739C259.994 202.074 259.622 202.557 259.355 203.188C259.094 203.818 258.963 204.574 258.963 205.455C258.963 206.347 259.094 207.114 259.355 207.756C259.616 208.392 259.983 208.884 260.455 209.23C260.932 209.571 261.491 209.741 262.134 209.741C262.588 209.741 262.994 209.656 263.352 209.486C263.716 209.31 264.02 209.057 264.264 208.727C264.509 208.398 264.676 207.997 264.767 207.526H267.716C267.642 208.452 267.369 209.273 266.898 209.989C266.426 210.699 265.784 211.256 264.972 211.659C264.159 212.057 263.205 212.256 262.108 212.256ZM270.299 201.44V198.909H281.754V201.44H277.518V212H274.535V201.44H270.299ZM288.185 207.824L293.426 198.909H296.597V212H293.614V203.077L288.389 212H285.21V198.909H288.185V207.824ZM306.559 215.801V209.46H307.599C307.877 209.244 308.11 208.952 308.298 208.582C308.485 208.207 308.638 207.767 308.758 207.261C308.883 206.75 308.985 206.179 309.065 205.548C309.144 204.912 309.215 204.227 309.278 203.494L309.653 198.909H319.113V209.46H321.141V215.801H318.158V212H309.593V215.801H306.559ZM310.769 209.46H316.164V201.398H312.329L312.124 203.494C312.011 204.881 311.86 206.068 311.673 207.057C311.485 208.045 311.184 208.847 310.769 209.46ZM330.24 212.256C328.928 212.256 327.794 211.983 326.839 211.438C325.891 210.886 325.161 210.108 324.649 209.102C324.138 208.091 323.882 206.901 323.882 205.531C323.882 204.185 324.138 203.003 324.649 201.986C325.166 200.963 325.888 200.168 326.814 199.599C327.74 199.026 328.828 198.739 330.078 198.739C330.885 198.739 331.646 198.869 332.362 199.131C333.084 199.386 333.72 199.784 334.271 200.324C334.828 200.864 335.266 201.551 335.584 202.386C335.902 203.216 336.061 204.205 336.061 205.352V206.298H325.331V204.219H333.104C333.098 203.628 332.97 203.102 332.72 202.642C332.47 202.176 332.121 201.81 331.672 201.543C331.229 201.276 330.712 201.142 330.121 201.142C329.49 201.142 328.936 201.295 328.459 201.602C327.982 201.903 327.609 202.301 327.342 202.795C327.081 203.284 326.947 203.821 326.942 204.406V206.222C326.942 206.983 327.081 207.636 327.359 208.182C327.638 208.722 328.027 209.136 328.527 209.426C329.027 209.71 329.612 209.852 330.283 209.852C330.732 209.852 331.138 209.79 331.501 209.665C331.865 209.534 332.18 209.344 332.447 209.094C332.714 208.844 332.916 208.534 333.053 208.165L335.933 208.489C335.751 209.25 335.405 209.915 334.893 210.483C334.388 211.045 333.74 211.483 332.95 211.795C332.161 212.102 331.257 212.256 330.24 212.256ZM348.663 204.176V206.707H341.691V204.176H348.663ZM342.646 198.909V212H339.671V198.909H342.646ZM350.683 198.909V212H347.717V198.909H350.683ZM356.892 203.17H360.753C362.423 203.17 363.716 203.577 364.631 204.389C365.545 205.202 366.006 206.267 366.011 207.585C366.006 208.443 365.795 209.205 365.381 209.869C364.972 210.534 364.375 211.057 363.591 211.438C362.813 211.812 361.866 212 360.753 212H354.804V198.909H357.778V209.469H360.753C361.423 209.469 361.974 209.298 362.406 208.957C362.838 208.611 363.054 208.168 363.054 207.628C363.054 207.06 362.838 206.597 362.406 206.239C361.974 205.881 361.423 205.702 360.753 205.702H356.892V203.17ZM378.315 198.909V201.44H372.673V212H369.656V198.909H378.315ZM384.763 207.824L390.004 198.909H393.175V212H390.192V203.077L384.967 212H381.788V198.909H384.763V207.824Z" fill="black" fill-opacity="0.87"/>
<path d="M200.631 232.455C200.631 233.835 200.381 235.028 199.883 236.034C199.384 237.04 198.7 237.815 197.831 238.361C196.962 238.906 195.969 239.179 194.852 239.179C193.736 239.179 192.743 238.906 191.874 238.361C191.004 237.815 190.32 237.04 189.822 236.034C189.323 235.028 189.074 233.835 189.074 232.455C189.074 231.074 189.323 229.881 189.822 228.875C190.32 227.869 191.004 227.094 191.874 226.548C192.743 226.003 193.736 225.73 194.852 225.73C195.969 225.73 196.962 226.003 197.831 226.548C198.7 227.094 199.384 227.869 199.883 228.875C200.381 229.881 200.631 231.074 200.631 232.455ZM199.097 232.455C199.097 231.321 198.907 230.364 198.528 229.585C198.153 228.805 197.643 228.214 197 227.814C196.361 227.413 195.645 227.213 194.852 227.213C194.06 227.213 193.342 227.413 192.698 227.814C192.059 228.214 191.55 228.805 191.17 229.585C190.795 230.364 190.608 231.321 190.608 232.455C190.608 233.588 190.795 234.545 191.17 235.325C191.55 236.104 192.059 236.695 192.698 237.095C193.342 237.496 194.06 237.696 194.852 237.696C195.645 237.696 196.361 237.496 197 237.095C197.643 236.695 198.153 236.104 198.528 235.325C198.907 234.545 199.097 233.588 199.097 232.455ZM203.092 239V229.182H210.813V239H209.305V230.588H204.6V239H203.092ZM215.077 236.776L219.807 229.182H221.545V239H220.037V231.406L215.332 239H213.568V229.182H215.077V236.776ZM228.297 239.205C227.377 239.205 226.584 238.987 225.919 238.553C225.254 238.118 224.743 237.519 224.385 236.756C224.027 235.994 223.848 235.122 223.848 234.142C223.848 233.145 224.031 232.265 224.398 231.502C224.769 230.735 225.284 230.136 225.945 229.706C226.61 229.271 227.385 229.054 228.271 229.054C228.962 229.054 229.584 229.182 230.138 229.438C230.692 229.693 231.146 230.051 231.499 230.511C231.853 230.972 232.073 231.509 232.158 232.122H230.649C230.534 231.675 230.279 231.278 229.882 230.933C229.49 230.584 228.962 230.409 228.297 230.409C227.709 230.409 227.193 230.562 226.75 230.869C226.311 231.172 225.968 231.6 225.721 232.154C225.478 232.704 225.357 233.349 225.357 234.091C225.357 234.849 225.476 235.51 225.715 236.072C225.958 236.635 226.298 237.072 226.737 237.383C227.181 237.694 227.7 237.849 228.297 237.849C228.689 237.849 229.045 237.781 229.365 237.645C229.684 237.509 229.955 237.312 230.176 237.057C230.398 236.801 230.556 236.494 230.649 236.136H232.158C232.073 236.716 231.862 237.238 231.525 237.702C231.193 238.163 230.752 238.529 230.202 238.802C229.656 239.07 229.021 239.205 228.297 239.205ZM237.252 239.23C236.63 239.23 236.066 239.113 235.558 238.879C235.051 238.64 234.649 238.297 234.35 237.849C234.052 237.398 233.903 236.852 233.903 236.213C233.903 235.651 234.014 235.195 234.235 234.845C234.457 234.491 234.753 234.214 235.124 234.014C235.494 233.814 235.904 233.665 236.351 233.567C236.803 233.464 237.257 233.384 237.713 233.324C238.309 233.247 238.793 233.19 239.164 233.151C239.539 233.109 239.811 233.038 239.982 232.94C240.156 232.842 240.244 232.672 240.244 232.429V232.378C240.244 231.747 240.071 231.257 239.726 230.908C239.385 230.558 238.867 230.384 238.173 230.384C237.453 230.384 236.888 230.541 236.479 230.857C236.07 231.172 235.782 231.509 235.616 231.866L234.184 231.355C234.44 230.759 234.781 230.294 235.207 229.962C235.637 229.625 236.106 229.391 236.613 229.259C237.124 229.122 237.627 229.054 238.122 229.054C238.437 229.054 238.799 229.092 239.208 229.169C239.622 229.241 240.02 229.393 240.404 229.623C240.791 229.853 241.113 230.2 241.369 230.665C241.624 231.129 241.752 231.751 241.752 232.531V239H240.244V237.67H240.167C240.065 237.884 239.894 238.112 239.656 238.354C239.417 238.597 239.1 238.804 238.703 238.974C238.307 239.145 237.823 239.23 237.252 239.23ZM237.482 237.875C238.079 237.875 238.582 237.758 238.991 237.523C239.404 237.289 239.715 236.987 239.924 236.616C240.137 236.245 240.244 235.855 240.244 235.446V234.065C240.18 234.142 240.039 234.212 239.822 234.276C239.609 234.336 239.362 234.389 239.08 234.436C238.803 234.479 238.533 234.517 238.269 234.551C238.009 234.581 237.798 234.607 237.636 234.628C237.244 234.679 236.877 234.762 236.536 234.877C236.2 234.988 235.927 235.156 235.718 235.382C235.514 235.604 235.411 235.906 235.411 236.29C235.411 236.814 235.605 237.21 235.993 237.479C236.385 237.743 236.882 237.875 237.482 237.875ZM251.077 233.401V234.807H245.656V233.401H251.077ZM246.014 229.182V239H244.506V229.182H246.014ZM252.227 229.182V239H250.719V229.182H252.227ZM256.491 236.776L261.221 229.182H262.96V239H261.451V231.406L256.746 239H254.982V229.182H256.491V236.776ZM269.839 239.205C268.893 239.205 268.077 238.996 267.391 238.578C266.709 238.156 266.183 237.568 265.812 236.814C265.445 236.055 265.262 235.173 265.262 234.168C265.262 233.162 265.445 232.276 265.812 231.509C266.183 230.737 266.698 230.136 267.359 229.706C268.024 229.271 268.799 229.054 269.686 229.054C270.197 229.054 270.702 229.139 271.2 229.31C271.699 229.48 272.153 229.757 272.562 230.141C272.971 230.52 273.297 231.023 273.54 231.649C273.783 232.276 273.904 233.047 273.904 233.963V234.602H266.336V233.298H272.37C272.37 232.744 272.259 232.25 272.038 231.815C271.82 231.381 271.509 231.038 271.105 230.786C270.704 230.535 270.231 230.409 269.686 230.409C269.085 230.409 268.565 230.558 268.126 230.857C267.691 231.151 267.357 231.534 267.122 232.007C266.888 232.48 266.771 232.987 266.771 233.528V234.398C266.771 235.139 266.899 235.768 267.154 236.283C267.414 236.795 267.774 237.185 268.235 237.453C268.695 237.717 269.23 237.849 269.839 237.849C270.235 237.849 270.593 237.794 270.913 237.683C271.237 237.568 271.516 237.398 271.75 237.172C271.985 236.942 272.166 236.656 272.294 236.315L273.751 236.724C273.597 237.219 273.34 237.653 272.977 238.028C272.615 238.399 272.168 238.689 271.635 238.898C271.102 239.102 270.504 239.205 269.839 239.205Z" fill="black" fill-opacity="0.5"/>
<path d="M192.793 272.991H194.627C195.403 272.991 196.09 273.162 196.69 273.504C197.294 273.842 197.766 274.317 198.107 274.93C198.452 275.54 198.624 276.25 198.624 277.058C198.624 277.86 198.452 278.565 198.107 279.171C197.766 279.778 197.294 280.252 196.69 280.593C196.09 280.931 195.403 281.1 194.627 281.1H192.793C192.017 281.1 191.328 280.933 190.724 280.598C190.121 280.26 189.647 279.789 189.303 279.186C188.961 278.583 188.79 277.879 188.79 277.073C188.79 276.261 188.963 275.549 189.308 274.935C189.652 274.322 190.125 273.845 190.724 273.504C191.328 273.162 192.017 272.991 192.793 272.991ZM192.793 274.319C192.262 274.319 191.81 274.43 191.435 274.652C191.061 274.871 190.774 275.186 190.575 275.597C190.376 276.008 190.277 276.5 190.277 277.073C190.277 277.633 190.376 278.116 190.575 278.52C190.777 278.921 191.066 279.231 191.44 279.45C191.815 279.665 192.266 279.773 192.793 279.773H194.632C195.159 279.773 195.608 279.665 195.979 279.45C196.354 279.231 196.639 278.919 196.835 278.515C197.033 278.107 197.133 277.622 197.133 277.058C197.133 276.491 197.033 276.004 196.835 275.597C196.639 275.186 196.354 274.871 195.979 274.652C195.608 274.43 195.159 274.319 194.632 274.319H192.793ZM194.468 271.639V282.418H192.962V271.639H194.468ZM202.638 282.169C202.154 282.169 201.716 282.08 201.325 281.901C200.934 281.718 200.624 281.455 200.395 281.11C200.17 280.765 200.057 280.343 200.057 279.842C200.057 279.411 200.14 279.057 200.306 278.778C200.472 278.5 200.695 278.28 200.977 278.117C201.259 277.955 201.574 277.832 201.922 277.749C202.27 277.666 202.624 277.603 202.986 277.56C203.443 277.507 203.814 277.464 204.099 277.431C204.384 277.395 204.591 277.337 204.721 277.257C204.85 277.178 204.915 277.048 204.915 276.869V276.835C204.915 276.4 204.792 276.064 204.547 275.825C204.305 275.587 203.943 275.467 203.463 275.467C202.962 275.467 202.568 275.578 202.28 275.8C201.995 276.019 201.797 276.263 201.688 276.531L200.291 276.213C200.457 275.749 200.699 275.375 201.017 275.089C201.338 274.801 201.708 274.592 202.126 274.463C202.543 274.33 202.982 274.264 203.443 274.264C203.748 274.264 204.071 274.301 204.412 274.374C204.757 274.443 205.079 274.572 205.377 274.761C205.679 274.95 205.925 275.22 206.118 275.572C206.31 275.92 206.406 276.372 206.406 276.929V282H204.954V280.956H204.895C204.799 281.148 204.654 281.337 204.462 281.523C204.27 281.708 204.023 281.862 203.721 281.985C203.42 282.108 203.059 282.169 202.638 282.169ZM202.961 280.976C203.372 280.976 203.723 280.895 204.015 280.732C204.31 280.57 204.533 280.358 204.686 280.096C204.842 279.831 204.92 279.547 204.92 279.246V278.261C204.867 278.314 204.764 278.364 204.611 278.411C204.462 278.454 204.291 278.492 204.099 278.525C203.907 278.555 203.72 278.583 203.537 278.609C203.355 278.633 203.203 278.652 203.08 278.669C202.792 278.705 202.528 278.767 202.29 278.853C202.054 278.939 201.865 279.063 201.723 279.226C201.584 279.385 201.514 279.597 201.514 279.862C201.514 280.23 201.65 280.509 201.922 280.697C202.193 280.883 202.54 280.976 202.961 280.976ZM212.672 280.161L215.137 274.364H216.42L213.223 282H212.12L208.988 274.364H210.255L212.672 280.161ZM209.843 274.364V282H208.386V274.364H209.843ZM215.54 282V274.364H216.987V282H215.54ZM220.425 279.917L223.79 274.364H225.391V282H223.935V276.442L220.584 282H218.968V274.364H220.425V279.917ZM226.788 282L226.783 280.712H227.057C227.269 280.712 227.446 280.668 227.589 280.578C227.735 280.485 227.854 280.33 227.947 280.111C228.04 279.892 228.111 279.59 228.161 279.206C228.21 278.818 228.247 278.331 228.27 277.744L228.404 274.364H233.734V282H232.277V275.646H229.781L229.662 278.241C229.632 278.871 229.567 279.421 229.468 279.892C229.372 280.363 229.231 280.755 229.045 281.07C228.86 281.382 228.621 281.616 228.33 281.771C228.038 281.924 227.683 282 227.266 282H226.788ZM237.173 279.917L240.539 274.364H242.139V282H240.683V276.442L237.332 282H235.716V274.364H237.173V279.917ZM248.692 282V275.631H246.862C246.428 275.631 246.09 275.732 245.848 275.935C245.606 276.137 245.485 276.402 245.485 276.73C245.485 277.055 245.596 277.317 245.818 277.516C246.044 277.711 246.359 277.809 246.763 277.809H249.124V279.012H246.763C246.2 279.012 245.712 278.919 245.301 278.734C244.894 278.545 244.579 278.278 244.357 277.933C244.138 277.589 244.029 277.181 244.029 276.71C244.029 276.23 244.141 275.815 244.367 275.467C244.595 275.116 244.922 274.844 245.346 274.652C245.774 274.46 246.279 274.364 246.862 274.364H250.089V282H248.692ZM243.681 282L245.833 278.142H247.355L245.202 282H243.681Z" fill="black" fill-opacity="0.5"/>
<rect x="188" y="292" width="544" height="48" rx="16" fill="#F6F5F4"/>
<rect x="188.5" y="292.5" width="543" height="47" rx="15.5" stroke="black" stroke-opacity="0.08"/>
<path d="M205.409 310.364H206.795V319.523H206.909L213.273 310.364H214.636V322H213.227V312.864H213.114L206.773 322H205.409V310.364ZM217.274 322V313.273H220.842C221.782 313.273 222.528 313.485 223.081 313.909C223.634 314.333 223.911 314.894 223.911 315.591C223.911 316.121 223.753 316.532 223.439 316.824C223.125 317.112 222.721 317.307 222.229 317.409C222.551 317.455 222.863 317.568 223.166 317.75C223.473 317.932 223.727 318.182 223.928 318.5C224.128 318.814 224.229 319.201 224.229 319.659C224.229 320.106 224.115 320.506 223.888 320.858C223.661 321.21 223.335 321.489 222.911 321.693C222.486 321.898 221.979 322 221.388 322H217.274ZM218.547 320.773H221.388C221.85 320.773 222.212 320.663 222.473 320.443C222.734 320.223 222.865 319.924 222.865 319.545C222.865 319.095 222.734 318.741 222.473 318.483C222.212 318.222 221.85 318.091 221.388 318.091H218.547V320.773ZM218.547 316.932H220.842C221.202 316.932 221.511 316.883 221.768 316.784C222.026 316.682 222.223 316.538 222.359 316.352C222.5 316.163 222.57 315.939 222.57 315.682C222.57 315.314 222.416 315.027 222.109 314.818C221.803 314.606 221.38 314.5 220.842 314.5H218.547V316.932ZM228.827 322.205C228.274 322.205 227.772 322.1 227.321 321.892C226.87 321.68 226.512 321.375 226.247 320.977C225.982 320.576 225.849 320.091 225.849 319.523C225.849 319.023 225.948 318.617 226.145 318.307C226.342 317.992 226.605 317.746 226.935 317.568C227.264 317.39 227.628 317.258 228.026 317.17C228.427 317.08 228.83 317.008 229.236 316.955C229.766 316.886 230.196 316.835 230.526 316.801C230.859 316.763 231.101 316.701 231.253 316.614C231.408 316.527 231.486 316.375 231.486 316.159V316.114C231.486 315.553 231.332 315.117 231.026 314.807C230.723 314.496 230.262 314.341 229.645 314.341C229.005 314.341 228.503 314.481 228.139 314.761C227.776 315.042 227.52 315.341 227.372 315.659L226.099 315.205C226.327 314.674 226.63 314.261 227.009 313.966C227.391 313.667 227.808 313.458 228.259 313.341C228.713 313.22 229.16 313.159 229.599 313.159C229.88 313.159 230.202 313.193 230.565 313.261C230.933 313.326 231.287 313.46 231.628 313.665C231.973 313.869 232.259 314.178 232.486 314.591C232.713 315.004 232.827 315.557 232.827 316.25V322H231.486V320.818H231.418C231.327 321.008 231.175 321.21 230.963 321.426C230.751 321.642 230.469 321.826 230.116 321.977C229.764 322.129 229.334 322.205 228.827 322.205ZM229.031 321C229.562 321 230.009 320.896 230.372 320.688C230.74 320.479 231.016 320.21 231.202 319.881C231.391 319.551 231.486 319.205 231.486 318.841V317.614C231.429 317.682 231.304 317.744 231.111 317.801C230.921 317.854 230.702 317.902 230.452 317.943C230.205 317.981 229.965 318.015 229.73 318.045C229.499 318.072 229.312 318.095 229.168 318.114C228.819 318.159 228.493 318.233 228.19 318.335C227.891 318.434 227.649 318.583 227.463 318.784C227.281 318.981 227.19 319.25 227.19 319.591C227.19 320.057 227.363 320.409 227.707 320.648C228.056 320.883 228.497 321 229.031 321ZM241.115 317.023V318.273H236.297V317.023H241.115ZM236.615 313.273V322H235.274V313.273H236.615ZM242.138 313.273V322H240.797V313.273H242.138ZM248.132 322.182C247.344 322.182 246.653 321.994 246.058 321.619C245.467 321.244 245.005 320.72 244.672 320.045C244.342 319.371 244.178 318.583 244.178 317.682C244.178 316.773 244.342 315.979 244.672 315.301C245.005 314.623 245.467 314.097 246.058 313.722C246.653 313.347 247.344 313.159 248.132 313.159C248.92 313.159 249.609 313.347 250.2 313.722C250.795 314.097 251.257 314.623 251.587 315.301C251.92 315.979 252.087 316.773 252.087 317.682C252.087 318.583 251.92 319.371 251.587 320.045C251.257 320.72 250.795 321.244 250.2 321.619C249.609 321.994 248.92 322.182 248.132 322.182ZM248.132 320.977C248.731 320.977 249.223 320.824 249.609 320.517C249.996 320.21 250.282 319.807 250.467 319.307C250.653 318.807 250.746 318.265 250.746 317.682C250.746 317.098 250.653 316.555 250.467 316.051C250.282 315.547 249.996 315.14 249.609 314.83C249.223 314.519 248.731 314.364 248.132 314.364C247.534 314.364 247.041 314.519 246.655 314.83C246.268 315.14 245.982 315.547 245.797 316.051C245.611 316.555 245.518 317.098 245.518 317.682C245.518 318.265 245.611 318.807 245.797 319.307C245.982 319.807 246.268 320.21 246.655 320.517C247.041 320.824 247.534 320.977 248.132 320.977ZM254.134 322V313.273H257.702C258.641 313.273 259.387 313.485 259.94 313.909C260.493 314.333 260.77 314.894 260.77 315.591C260.77 316.121 260.613 316.532 260.298 316.824C259.984 317.112 259.58 317.307 259.088 317.409C259.41 317.455 259.723 317.568 260.026 317.75C260.332 317.932 260.586 318.182 260.787 318.5C260.988 318.814 261.088 319.201 261.088 319.659C261.088 320.106 260.974 320.506 260.747 320.858C260.52 321.21 260.194 321.489 259.77 321.693C259.346 321.898 258.838 322 258.247 322H254.134ZM255.406 320.773H258.247C258.709 320.773 259.071 320.663 259.332 320.443C259.594 320.223 259.724 319.924 259.724 319.545C259.724 319.095 259.594 318.741 259.332 318.483C259.071 318.222 258.709 318.091 258.247 318.091H255.406V320.773ZM255.406 316.932H257.702C258.062 316.932 258.37 316.883 258.628 316.784C258.885 316.682 259.082 316.538 259.219 316.352C259.359 316.163 259.429 315.939 259.429 315.682C259.429 315.314 259.276 315.027 258.969 314.818C258.662 314.606 258.24 314.5 257.702 314.5H255.406V316.932Z" fill="black" fill-opacity="0.87"/>
<path d="M189.119 365.818H190.64V373.295H190.734L195.915 365.818H197.337V376H195.8V368.533H195.706L190.536 376H189.119V365.818ZM203.744 374.161L206.21 368.364H207.492L204.296 376H203.192L200.06 368.364H201.328L203.744 374.161ZM200.915 368.364V376H199.458V368.364H200.915ZM206.612 376V368.364H208.059V376H206.612ZM214.594 376V369.631H212.765C212.331 369.631 211.992 369.732 211.751 369.935C211.509 370.137 211.388 370.402 211.388 370.73C211.388 371.055 211.499 371.317 211.721 371.516C211.946 371.711 212.261 371.809 212.665 371.809H215.027V373.012H212.665C212.102 373.012 211.615 372.919 211.204 372.734C210.796 372.545 210.481 372.278 210.259 371.933C210.04 371.589 209.931 371.181 209.931 370.71C209.931 370.23 210.044 369.815 210.269 369.467C210.498 369.116 210.824 368.844 211.248 368.652C211.676 368.46 212.181 368.364 212.765 368.364H215.991V376H214.594ZM209.583 376L211.736 372.142H213.257L211.104 376H209.583Z" fill="black" fill-opacity="0.5"/>
<rect x="188" y="386" width="544" height="48" rx="16" fill="#F6F5F4"/>
<rect x="188.5" y="386.5" width="543" height="47" rx="15.5" stroke="black" stroke-opacity="0.08"/>
<path d="M205.409 404.364H206.795V413.523H206.909L213.273 404.364H214.636V416H213.227V406.864H213.114L206.773 416H205.409V404.364ZM217.274 416V407.273H220.842C221.782 407.273 222.528 407.485 223.081 407.909C223.634 408.333 223.911 408.894 223.911 409.591C223.911 410.121 223.753 410.532 223.439 410.824C223.125 411.112 222.721 411.307 222.229 411.409C222.551 411.455 222.863 411.568 223.166 411.75C223.473 411.932 223.727 412.182 223.928 412.5C224.128 412.814 224.229 413.201 224.229 413.659C224.229 414.106 224.115 414.506 223.888 414.858C223.661 415.21 223.335 415.489 222.911 415.693C222.486 415.898 221.979 416 221.388 416H217.274ZM218.547 414.773H221.388C221.85 414.773 222.212 414.663 222.473 414.443C222.734 414.223 222.865 413.924 222.865 413.545C222.865 413.095 222.734 412.741 222.473 412.483C222.212 412.222 221.85 412.091 221.388 412.091H218.547V414.773ZM218.547 410.932H220.842C221.202 410.932 221.511 410.883 221.768 410.784C222.026 410.682 222.223 410.538 222.359 410.352C222.5 410.163 222.57 409.939 222.57 409.682C222.57 409.314 222.416 409.027 222.109 408.818C221.803 408.606 221.38 408.5 220.842 408.5H218.547V410.932ZM228.827 416.205C228.274 416.205 227.772 416.1 227.321 415.892C226.87 415.68 226.512 415.375 226.247 414.977C225.982 414.576 225.849 414.091 225.849 413.523C225.849 413.023 225.948 412.617 226.145 412.307C226.342 411.992 226.605 411.746 226.935 411.568C227.264 411.39 227.628 411.258 228.026 411.17C228.427 411.08 228.83 411.008 229.236 410.955C229.766 410.886 230.196 410.835 230.526 410.801C230.859 410.763 231.101 410.701 231.253 410.614C231.408 410.527 231.486 410.375 231.486 410.159V410.114C231.486 409.553 231.332 409.117 231.026 408.807C230.723 408.496 230.262 408.341 229.645 408.341C229.005 408.341 228.503 408.481 228.139 408.761C227.776 409.042 227.52 409.341 227.372 409.659L226.099 409.205C226.327 408.674 226.63 408.261 227.009 407.966C227.391 407.667 227.808 407.458 228.259 407.341C228.713 407.22 229.16 407.159 229.599 407.159C229.88 407.159 230.202 407.193 230.565 407.261C230.933 407.326 231.287 407.46 231.628 407.665C231.973 407.869 232.259 408.178 232.486 408.591C232.713 409.004 232.827 409.557 232.827 410.25V416H231.486V414.818H231.418C231.327 415.008 231.175 415.21 230.963 415.426C230.751 415.642 230.469 415.826 230.116 415.977C229.764 416.129 229.334 416.205 228.827 416.205ZM229.031 415C229.562 415 230.009 414.896 230.372 414.688C230.74 414.479 231.016 414.21 231.202 413.881C231.391 413.551 231.486 413.205 231.486 412.841V411.614C231.429 411.682 231.304 411.744 231.111 411.801C230.921 411.854 230.702 411.902 230.452 411.943C230.205 411.981 229.965 412.015 229.73 412.045C229.499 412.072 229.312 412.095 229.168 412.114C228.819 412.159 228.493 412.233 228.19 412.335C227.891 412.434 227.649 412.583 227.463 412.784C227.281 412.981 227.19 413.25 227.19 413.591C227.19 414.057 227.363 414.409 227.707 414.648C228.056 414.883 228.497 415 229.031 415ZM241.115 411.023V412.273H236.297V411.023H241.115ZM236.615 407.273V416H235.274V407.273H236.615ZM242.138 407.273V416H240.797V407.273H242.138Z" fill="black" fill-opacity="0.87"/>
<g filter="url(#filter0_dd_0_1)">
<g filter="url(#filter1_dd_0_1)">
<g filter="url(#filter2_ii_0_1)">
<rect x="188" y="466" width="544" height="56" rx="28" fill="#0D79F2"/>
<path d="M416.734 499.308H417.724C417.964 498.984 418.18 498.606 418.372 498.174C418.564 497.742 418.726 497.232 418.858 496.644C419.002 496.044 419.11 495.366 419.182 494.61C419.254 493.854 419.29 492.99 419.29 492.018V488.436H425.572V499.308H426.922V503.7H425.068V501H418.606V503.7H416.734V499.308ZM423.592 490.128H421.144V492.252C421.144 494.1 421.024 495.588 420.784 496.716C420.556 497.832 420.25 498.696 419.866 499.308H423.592V490.128ZM432.891 501.216C432.183 501.216 431.547 501.102 430.983 500.874C430.419 500.646 429.945 500.322 429.561 499.902C429.177 499.482 428.883 498.978 428.679 498.39C428.475 497.79 428.373 497.118 428.373 496.374C428.373 495.63 428.475 494.958 428.679 494.358C428.895 493.758 429.189 493.248 429.561 492.828C429.945 492.396 430.407 492.066 430.947 491.838C431.487 491.61 432.087 491.496 432.747 491.496C433.395 491.496 433.983 491.61 434.511 491.838C435.039 492.054 435.489 492.366 435.861 492.774C436.233 493.182 436.515 493.668 436.707 494.232C436.911 494.796 437.013 495.42 437.013 496.104V496.842H430.353V497.148C430.353 497.88 430.581 498.48 431.037 498.948C431.493 499.404 432.123 499.632 432.927 499.632C433.527 499.632 434.037 499.506 434.457 499.254C434.889 498.99 435.237 498.642 435.501 498.21L436.725 499.29C436.413 499.83 435.933 500.286 435.285 500.658C434.649 501.03 433.851 501.216 432.891 501.216ZM432.747 492.99C432.399 492.99 432.075 493.05 431.775 493.17C431.487 493.29 431.235 493.464 431.019 493.692C430.815 493.908 430.653 494.166 430.533 494.466C430.413 494.766 430.353 495.096 430.353 495.456V495.582H435.015V495.402C435.015 494.67 434.805 494.088 434.385 493.656C433.977 493.212 433.431 492.99 432.747 492.99ZM439.58 491.712H441.524V495.708L441.344 498.228H441.434L445.538 491.712H447.392V501H445.448V497.004L445.628 494.484H445.538L441.434 501H439.58V491.712ZM443.486 490.488C442.79 490.488 442.226 490.338 441.794 490.038C441.362 489.726 441.008 489.264 440.732 488.652L440.282 487.644L441.92 487.068L442.568 488.976C442.676 489.024 442.82 489.06 443 489.084C443.18 489.096 443.342 489.102 443.486 489.102C443.63 489.102 443.792 489.096 443.972 489.084C444.152 489.06 444.296 489.024 444.404 488.976L445.052 487.068L446.69 487.644L446.24 488.652C445.964 489.264 445.61 489.726 445.178 490.038C444.746 490.338 444.182 490.488 443.486 490.488ZM454.621 501.216C453.925 501.216 453.301 501.102 452.749 500.874C452.209 500.646 451.747 500.322 451.363 499.902C450.991 499.482 450.703 498.972 450.499 498.372C450.307 497.772 450.211 497.1 450.211 496.356C450.211 495.612 450.307 494.94 450.499 494.34C450.703 493.74 450.991 493.23 451.363 492.81C451.747 492.39 452.209 492.066 452.749 491.838C453.301 491.61 453.919 491.496 454.603 491.496C455.563 491.496 456.331 491.7 456.907 492.108C457.495 492.516 457.933 493.044 458.221 493.692L456.691 494.52C456.523 494.088 456.265 493.746 455.917 493.494C455.581 493.242 455.143 493.116 454.603 493.116C453.859 493.116 453.283 493.344 452.875 493.8C452.467 494.244 452.263 494.838 452.263 495.582V497.13C452.263 497.862 452.467 498.456 452.875 498.912C453.283 499.368 453.871 499.596 454.639 499.596C455.215 499.596 455.683 499.464 456.043 499.2C456.415 498.936 456.709 498.576 456.925 498.12L458.365 499.002C458.065 499.65 457.609 500.184 456.997 500.604C456.385 501.012 455.593 501.216 454.621 501.216ZM464.082 493.296H460.824V491.712H469.32V493.296H466.044V501H464.082V493.296ZM472.175 491.712H477.161C477.965 491.712 478.589 491.928 479.033 492.36C479.477 492.78 479.699 493.344 479.699 494.052C479.699 495.204 479.069 495.876 477.809 496.068V496.158C478.577 496.218 479.141 496.44 479.501 496.824C479.861 497.196 480.041 497.688 480.041 498.3C480.041 498.672 479.975 499.02 479.843 499.344C479.723 499.668 479.543 499.956 479.303 500.208C479.063 500.448 478.763 500.64 478.403 500.784C478.055 500.928 477.659 501 477.215 501H472.175V491.712ZM476.801 499.524C477.185 499.524 477.485 499.434 477.701 499.254C477.917 499.062 478.025 498.792 478.025 498.444V498.012C478.025 497.664 477.917 497.394 477.701 497.202C477.497 497.01 477.221 496.914 476.873 496.914H474.137V499.524H476.801ZM476.621 495.6C476.945 495.6 477.203 495.51 477.395 495.33C477.587 495.15 477.683 494.904 477.683 494.592V494.196C477.683 493.884 477.587 493.638 477.395 493.458C477.203 493.278 476.945 493.188 476.621 493.188H474.137V495.6H476.621ZM482.752 491.712H484.696V495.708L484.516 498.228H484.606L488.71 491.712H490.564V501H488.62V497.004L488.8 494.484H488.71L484.606 501H482.752V491.712ZM497.649 501.216C496.941 501.216 496.305 501.102 495.741 500.874C495.177 500.646 494.703 500.322 494.319 499.902C493.935 499.482 493.641 498.978 493.437 498.39C493.233 497.79 493.131 497.118 493.131 496.374C493.131 495.63 493.233 494.958 493.437 494.358C493.653 493.758 493.947 493.248 494.319 492.828C494.703 492.396 495.165 492.066 495.705 491.838C496.245 491.61 496.845 491.496 497.505 491.496C498.153 491.496 498.741 491.61 499.269 491.838C499.797 492.054 500.247 492.366 500.619 492.774C500.991 493.182 501.273 493.668 501.465 494.232C501.669 494.796 501.771 495.42 501.771 496.104V496.842H495.111V497.148C495.111 497.88 495.339 498.48 495.795 498.948C496.251 499.404 496.881 499.632 497.685 499.632C498.285 499.632 498.795 499.506 499.215 499.254C499.647 498.99 499.995 498.642 500.259 498.21L501.483 499.29C501.171 499.83 500.691 500.286 500.043 500.658C499.407 501.03 498.609 501.216 497.649 501.216ZM497.505 492.99C497.157 492.99 496.833 493.05 496.533 493.17C496.245 493.29 495.993 493.464 495.777 493.692C495.573 493.908 495.411 494.166 495.291 494.466C495.171 494.766 495.111 495.096 495.111 495.456V495.582H499.773V495.402C499.773 494.67 499.563 494.088 499.143 493.656C498.735 493.212 498.189 492.99 497.505 492.99Z" fill="white"/>
</g>
</g>
</g>
<path d="M741.293 177.293C741.684 176.902 742.317 176.902 742.707 177.293C743.098 177.683 743.098 178.316 742.707 178.707L737.414 184L742.707 189.293C743.098 189.683 743.098 190.316 742.707 190.707C742.317 191.097 741.684 191.097 741.293 190.707L736 185.414L730.707 190.707C730.317 191.097 729.684 191.097 729.293 190.707C728.902 190.316 728.902 189.683 729.293 189.293L734.586 184L729.293 178.707C728.902 178.316 728.902 177.683 729.293 177.293C729.684 176.902 730.317 176.902 730.707 177.293L736 182.586L741.293 177.293Z" fill="black" fill-opacity="0.5"/>
<rect x="40" y="4" width="105.047" height="30" rx="3" fill="white"/>
<rect x="40.5" y="4.5" width="104.047" height="29" rx="2.5" stroke="black" stroke-opacity="0.2"/>
<path d="M46.2813 23.9375V21.1406H46.7969C46.974 20.9792 47.1406 20.7513 47.2969 20.457C47.4557 20.1602 47.5898 19.7643 47.6992 19.2695C47.8112 18.7721 47.8854 18.1406 47.9219 17.375L48.0938 14H52.8438V21.1406H53.7656V23.9219H52.8438V22H47.2031V23.9375H46.2813ZM47.9531 21.1406H51.9219V14.8594H48.9688L48.8438 17.375C48.8125 17.9583 48.7578 18.487 48.6797 18.9609C48.6016 19.4323 48.5013 19.8503 48.3789 20.2148C48.2565 20.5768 48.1146 20.8854 47.9531 21.1406ZM56.0264 20.6406L58.917 16H59.9795V22H59.0576V17.3594L56.1826 22H55.1045V16H56.0264V20.6406ZM63.4336 22.1406C63.0534 22.1406 62.7083 22.069 62.3984 21.9258C62.0885 21.7799 61.8424 21.5703 61.6602 21.2969C61.4779 21.0208 61.3867 20.6875 61.3867 20.2969C61.3867 19.9531 61.4544 19.6745 61.5898 19.4609C61.7253 19.2448 61.9063 19.0755 62.1328 18.9531C62.3594 18.8307 62.6094 18.7396 62.8828 18.6797C63.1589 18.6172 63.4362 18.5677 63.7148 18.5313C64.0794 18.4844 64.375 18.4492 64.6016 18.4258C64.8307 18.3997 64.9974 18.3568 65.1016 18.2969C65.2083 18.237 65.2617 18.1328 65.2617 17.9844V17.9531C65.2617 17.5677 65.1563 17.2682 64.9453 17.0547C64.737 16.8411 64.4206 16.7344 63.9961 16.7344C63.556 16.7344 63.2109 16.8307 62.9609 17.0234C62.7109 17.2161 62.5352 17.4219 62.4336 17.6406L61.5586 17.3281C61.7148 16.9635 61.9232 16.6797 62.1836 16.4766C62.4466 16.2708 62.7331 16.1276 63.043 16.0469C63.3555 15.9635 63.6628 15.9219 63.9648 15.9219C64.1576 15.9219 64.3789 15.9453 64.6289 15.9922C64.8815 16.0365 65.125 16.1289 65.3594 16.2695C65.5964 16.4102 65.793 16.6224 65.9492 16.9062C66.1055 17.1901 66.1836 17.5703 66.1836 18.0469V22H65.2617V21.1875H65.2148C65.1523 21.3177 65.0482 21.457 64.9023 21.6055C64.7565 21.7539 64.5625 21.8802 64.3203 21.9844C64.0781 22.0885 63.7826 22.1406 63.4336 22.1406ZM63.5742 21.3125C63.9388 21.3125 64.2461 21.2409 64.4961 21.0977C64.7487 20.9544 64.9388 20.7695 65.0664 20.543C65.1966 20.3164 65.2617 20.0781 65.2617 19.8281V18.9844C65.2227 19.0312 65.1367 19.0742 65.0039 19.1133C64.8737 19.1497 64.7227 19.1823 64.5508 19.2109C64.3815 19.237 64.2161 19.2604 64.0547 19.2812C63.8958 19.2995 63.7669 19.3151 63.668 19.3281C63.4284 19.3594 63.2044 19.4102 62.9961 19.4805C62.7904 19.5482 62.6237 19.651 62.4961 19.7891C62.3711 19.9245 62.3086 20.1094 62.3086 20.3437C62.3086 20.6641 62.4271 20.9062 62.6641 21.0703C62.9036 21.2318 63.207 21.3125 63.5742 21.3125ZM67.335 22V21.1406H67.5537C67.7334 21.1406 67.8831 21.1055 68.0029 21.0352C68.1227 20.9622 68.2191 20.8359 68.292 20.6562C68.3675 20.474 68.4248 20.2214 68.4639 19.8984C68.5055 19.5729 68.5355 19.1589 68.5537 18.6562L68.6631 16H72.6631V22H71.7412V16.8594H69.5381L69.4443 19C69.4235 19.4922 69.3792 19.9258 69.3115 20.3008C69.2464 20.6732 69.1462 20.9857 69.0107 21.2383C68.8779 21.4909 68.7008 21.681 68.4795 21.8086C68.2581 21.9362 67.9808 22 67.6475 22H67.335ZM76.792 22.125C76.2503 22.125 75.7751 21.9961 75.3662 21.7383C74.96 21.4805 74.6423 21.1198 74.4131 20.6562C74.1865 20.1927 74.0732 19.651 74.0732 19.0312C74.0732 18.4062 74.1865 17.8607 74.4131 17.3945C74.6423 16.9284 74.96 16.5664 75.3662 16.3086C75.7751 16.0508 76.2503 15.9219 76.792 15.9219C77.3337 15.9219 77.8076 16.0508 78.2139 16.3086C78.6227 16.5664 78.9404 16.9284 79.167 17.3945C79.3962 17.8607 79.5107 18.4062 79.5107 19.0312C79.5107 19.651 79.3962 20.1927 79.167 20.6562C78.9404 21.1198 78.6227 21.4805 78.2139 21.7383C77.8076 21.9961 77.3337 22.125 76.792 22.125ZM76.792 21.2969C77.2035 21.2969 77.542 21.1914 77.8076 20.9805C78.0732 20.7695 78.2699 20.4922 78.3975 20.1484C78.5251 19.8047 78.5889 19.4323 78.5889 19.0312C78.5889 18.6302 78.5251 18.2565 78.3975 17.9102C78.2699 17.5638 78.0732 17.2839 77.8076 17.0703C77.542 16.8568 77.2035 16.75 76.792 16.75C76.3805 16.75 76.042 16.8568 75.7764 17.0703C75.5107 17.2839 75.3141 17.5638 75.1865 17.9102C75.0589 18.2565 74.9951 18.6302 74.9951 19.0312C74.9951 19.4323 75.0589 19.8047 75.1865 20.1484C75.3141 20.4922 75.5107 20.7695 75.7764 20.9805C76.042 21.1914 76.3805 21.2969 76.792 21.2969ZM84.6211 16V16.8594H81.8398V22H80.918V16H84.6211ZM88.0928 22.125C87.5511 22.125 87.0758 21.9961 86.667 21.7383C86.2607 21.4805 85.943 21.1198 85.7139 20.6562C85.4873 20.1927 85.374 19.651 85.374 19.0312C85.374 18.4062 85.4873 17.8607 85.7139 17.3945C85.943 16.9284 86.2607 16.5664 86.667 16.3086C87.0758 16.0508 87.5511 15.9219 88.0928 15.9219C88.6344 15.9219 89.1084 16.0508 89.5146 16.3086C89.9235 16.5664 90.2412 16.9284 90.4678 17.3945C90.6969 17.8607 90.8115 18.4062 90.8115 19.0312C90.8115 19.651 90.6969 20.1927 90.4678 20.6562C90.2412 21.1198 89.9235 21.4805 89.5146 21.7383C89.1084 21.9961 88.6344 22.125 88.0928 22.125ZM88.0928 21.2969C88.5042 21.2969 88.8428 21.1914 89.1084 20.9805C89.374 20.7695 89.5706 20.4922 89.6982 20.1484C89.8258 19.8047 89.8896 19.4323 89.8896 19.0312C89.8896 18.6302 89.8258 18.2565 89.6982 17.9102C89.5706 17.5638 89.374 17.2839 89.1084 17.0703C88.8428 16.8568 88.5042 16.75 88.0928 16.75C87.6813 16.75 87.3428 16.8568 87.0771 17.0703C86.8115 17.2839 86.6149 17.5638 86.4873 17.9102C86.3597 18.2565 86.2959 18.6302 86.2959 19.0312C86.2959 19.4323 86.3597 19.8047 86.4873 20.1484C86.6149 20.4922 86.8115 20.7695 87.0771 20.9805C87.3428 21.1914 87.6813 21.2969 88.0928 21.2969ZM92.2188 22V16H94.6719C95.3177 16 95.8307 16.1458 96.2109 16.4375C96.5911 16.7292 96.7813 17.1146 96.7813 17.5937C96.7813 17.9583 96.6732 18.2409 96.457 18.4414C96.2409 18.6393 95.9635 18.7734 95.625 18.8438C95.8464 18.875 96.0612 18.9531 96.2695 19.0781C96.4805 19.2031 96.6549 19.375 96.793 19.5938C96.931 19.8099 97 20.0755 97 20.3906C97 20.6979 96.9219 20.9727 96.7656 21.2148C96.6094 21.457 96.3854 21.6484 96.0938 21.7891C95.8021 21.9297 95.4531 22 95.0469 22H92.2188ZM93.0938 21.1562H95.0469C95.3646 21.1562 95.6133 21.0807 95.793 20.9297C95.9727 20.7786 96.0625 20.5729 96.0625 20.3125C96.0625 20.0026 95.9727 19.7591 95.793 19.582C95.6133 19.4023 95.3646 19.3125 95.0469 19.3125H93.0938V21.1562ZM93.0938 18.5156H94.6719C94.9193 18.5156 95.1315 18.4818 95.3086 18.4141C95.4857 18.3437 95.6211 18.2448 95.7148 18.1172C95.8112 17.987 95.8594 17.8333 95.8594 17.6562C95.8594 17.4036 95.7539 17.2057 95.543 17.0625C95.332 16.9167 95.0417 16.8438 94.6719 16.8438H93.0938V18.5156ZM100.833 22.125C100.291 22.125 99.8161 21.9961 99.4072 21.7383C99.001 21.4805 98.6833 21.1198 98.4541 20.6562C98.2275 20.1927 98.1143 19.651 98.1143 19.0312C98.1143 18.4062 98.2275 17.8607 98.4541 17.3945C98.6833 16.9284 99.001 16.5664 99.4072 16.3086C99.8161 16.0508 100.291 15.9219 100.833 15.9219C101.375 15.9219 101.849 16.0508 102.255 16.3086C102.664 16.5664 102.981 16.9284 103.208 17.3945C103.437 17.8607 103.552 18.4062 103.552 19.0312C103.552 19.651 103.437 20.1927 103.208 20.6562C102.981 21.1198 102.664 21.4805 102.255 21.7383C101.849 21.9961 101.375 22.125 100.833 22.125ZM100.833 21.2969C101.244 21.2969 101.583 21.1914 101.849 20.9805C102.114 20.7695 102.311 20.4922 102.438 20.1484C102.566 19.8047 102.63 19.4323 102.63 19.0312C102.63 18.6302 102.566 18.2565 102.438 17.9102C102.311 17.5638 102.114 17.2839 101.849 17.0703C101.583 16.8568 101.244 16.75 100.833 16.75C100.422 16.75 100.083 16.8568 99.8174 17.0703C99.5518 17.2839 99.3551 17.5638 99.2275 17.9102C99.0999 18.2565 99.0361 18.6302 99.0361 19.0312C99.0361 19.4323 99.0999 19.8047 99.2275 20.1484C99.3551 20.4922 99.5518 20.7695 99.8174 20.9805C100.083 21.1914 100.422 21.2969 100.833 21.2969ZM107.475 22.125C106.896 22.125 106.398 21.9974 105.979 21.7422C105.562 21.4844 105.24 21.125 105.014 20.6641C104.79 20.2005 104.678 19.6615 104.678 19.0469C104.678 18.4323 104.79 17.8906 105.014 17.4219C105.24 16.9505 105.555 16.5833 105.959 16.3203C106.365 16.0547 106.839 15.9219 107.381 15.9219C107.693 15.9219 108.002 15.974 108.307 16.0781C108.611 16.1823 108.889 16.3516 109.139 16.5859C109.389 16.8177 109.588 17.125 109.736 17.5078C109.885 17.8906 109.959 18.362 109.959 18.9219V19.3125H105.334V18.5156H109.021C109.021 18.1771 108.954 17.875 108.818 17.6094C108.686 17.3437 108.495 17.1341 108.248 16.9805C108.003 16.8268 107.714 16.75 107.381 16.75C107.014 16.75 106.696 16.8411 106.428 17.0234C106.162 17.2031 105.958 17.4375 105.814 17.7266C105.671 18.0156 105.6 18.3255 105.6 18.6562V19.1875C105.6 19.6406 105.678 20.0247 105.834 20.3398C105.993 20.6523 106.213 20.8906 106.494 21.0547C106.775 21.2161 107.102 21.2969 107.475 21.2969C107.717 21.2969 107.936 21.263 108.131 21.1953C108.329 21.125 108.499 21.0208 108.643 20.8828C108.786 20.7422 108.896 20.5677 108.975 20.3594L109.865 20.6094C109.771 20.9115 109.614 21.1771 109.393 21.4062C109.171 21.6328 108.898 21.8099 108.572 21.9375C108.247 22.0625 107.881 22.125 107.475 22.125ZM116.893 22.125C116.351 22.125 115.876 21.9961 115.467 21.7383C115.061 21.4805 114.743 21.1198 114.514 20.6562C114.287 20.1927 114.174 19.651 114.174 19.0312C114.174 18.4062 114.287 17.8607 114.514 17.3945C114.743 16.9284 115.061 16.5664 115.467 16.3086C115.876 16.0508 116.351 15.9219 116.893 15.9219C117.434 15.9219 117.908 16.0508 118.314 16.3086C118.723 16.5664 119.041 16.9284 119.268 17.3945C119.497 17.8607 119.611 18.4062 119.611 19.0312C119.611 19.651 119.497 20.1927 119.268 20.6562C119.041 21.1198 118.723 21.4805 118.314 21.7383C117.908 21.9961 117.434 22.125 116.893 22.125ZM116.893 21.2969C117.304 21.2969 117.643 21.1914 117.908 20.9805C118.174 20.7695 118.37 20.4922 118.498 20.1484C118.626 19.8047 118.689 19.4323 118.689 19.0312C118.689 18.6302 118.626 18.2565 118.498 17.9102C118.37 17.5638 118.174 17.2839 117.908 17.0703C117.643 16.8568 117.304 16.75 116.893 16.75C116.481 16.75 116.143 16.8568 115.877 17.0703C115.611 17.2839 115.415 17.5638 115.287 17.9102C115.16 18.2565 115.096 18.6302 115.096 19.0312C115.096 19.4323 115.16 19.8047 115.287 20.1484C115.415 20.4922 115.611 20.7695 115.877 20.9805C116.143 21.1914 116.481 21.2969 116.893 21.2969ZM121.019 22V16H121.94V18.6094H122.55L124.706 16H125.894L123.472 18.8906L125.925 22H124.737L122.769 19.4687H121.94V22H121.019ZM130.942 18.5781V19.4375H127.63V18.5781H130.942ZM127.849 16V22H126.927V16H127.849ZM131.646 16V22H130.724V16H131.646ZM135.767 22.125C135.225 22.125 134.75 21.9961 134.341 21.7383C133.935 21.4805 133.617 21.1198 133.388 20.6562C133.161 20.1927 133.048 19.651 133.048 19.0312C133.048 18.4062 133.161 17.8607 133.388 17.3945C133.617 16.9284 133.935 16.5664 134.341 16.3086C134.75 16.0508 135.225 15.9219 135.767 15.9219C136.308 15.9219 136.782 16.0508 137.188 16.3086C137.597 16.5664 137.915 16.9284 138.142 17.3945C138.371 17.8607 138.485 18.4062 138.485 19.0312C138.485 19.651 138.371 20.1927 138.142 20.6562C137.915 21.1198 137.597 21.4805 137.188 21.7383C136.782 21.9961 136.308 22.125 135.767 22.125ZM135.767 21.2969C136.178 21.2969 136.517 21.1914 136.782 20.9805C137.048 20.7695 137.244 20.4922 137.372 20.1484C137.5 19.8047 137.563 19.4323 137.563 19.0312C137.563 18.6302 137.5 18.2565 137.372 17.9102C137.244 17.5638 137.048 17.2839 136.782 17.0703C136.517 16.8568 136.178 16.75 135.767 16.75C135.355 16.75 135.017 16.8568 134.751 17.0703C134.485 17.2839 134.289 17.5638 134.161 17.9102C134.034 18.2565 133.97 18.6302 133.97 19.0312C133.97 19.4323 134.034 19.8047 134.161 20.1484C134.289 20.4922 134.485 20.7695 134.751 20.9805C135.017 21.1914 135.355 21.2969 135.767 21.2969Z" fill="black"/>
<defs>
<filter id="filter0_dd_0_1" x="172" y="458" width="576" height="88" filterUnits="userSpaceOnUse" color-interpolation-filters="sRGB">
<feFlood flood-opacity="0" result="BackgroundImageFix"/>
<feColorMatrix in="SourceAlpha" type="matrix" values="0 0 0 0 0 0 0 0 0 0 0 0 0 0 0 0 0 0 127 0" result="hardAlpha"/>
<feOffset dy="8"/>
<feGaussianBlur stdDeviation="8"/>
<feColorMatrix type="matrix" values="0 0 0 0 0 0 0 0 0 0 0 0 0 0 0 0 0 0 0.08 0"/>
<feBlend mode="normal" in2="BackgroundImageFix" result="effect1_dropShadow_0_1"/>
<feColorMatrix in="SourceAlpha" type="matrix" values="0 0 0 0 0 0 0 0 0 0 0 0 0 0 0 0 0 0 127 0" result="hardAlpha"/>
<feOffset/>
<feGaussianBlur stdDeviation="2"/>
<feColorMatrix type="matrix" values="0 0 0 0 0 0 0 0 0 0 0 0 0 0 0 0 0 0 0.04 0"/>
<feBlend mode="normal" in2="effect1_dropShadow_0_1" result="effect2_dropShadow_0_1"/>
<feBlend mode="normal" in="SourceGraphic" in2="effect2_dropShadow_0_1" result="shape"/>
</filter>
<filter id="filter1_dd_0_1" x="172" y="458" width="576" height="88" filterUnits="userSpaceOnUse" color-interpolation-filters="sRGB">
<feFlood flood-opacity="0" result="BackgroundImageFix"/>
<feColorMatrix in="SourceAlpha" type="matrix" values="0 0 0 0 0 0 0 0 0 0 0 0 0 0 0 0 0 0 127 0" result="hardAlpha"/>
<feOffset dy="8"/>
<feGaussianBlur stdDeviation="8"/>
<feColorMatrix type="matrix" values="0 0 0 0 0 0 0 0 0 0 0 0 0 0 0 0 0 0 0.08 0"/>
<feBlend mode="normal" in2="BackgroundImageFix" result="effect1_dropShadow_0_1"/>
<feColorMatrix in="SourceAlpha" type="matrix" values="0 0 0 0 0 0 0 0 0 0 0 0 0 0 0 0 0 0 127 0" result="hardAlpha"/>
<feOffset/>
<feGaussianBlur stdDeviation="2"/>
<feColorMatrix type="matrix" values="0 0 0 0 0 0 0 0 0 0 0 0 0 0 0 0 0 0 0.04 0"/>
<feBlend mode="normal" in2="effect1_dropShadow_0_1" result="effect2_dropShadow_0_1"/>
<feBlend mode="normal" in="SourceGraphic" in2="effect2_dropShadow_0_1" result="shape"/>
</filter>
<filter id="filter2_ii_0_1" x="186" y="464" width="548" height="60" filterUnits="userSpaceOnUse" color-interpolation-filters="sRGB">
<feFlood flood-opacity="0" result="BackgroundImageFix"/>
<feBlend mode="normal" in="SourceGraphic" in2="BackgroundImageFix" result="shape"/>
<feColorMatrix in="SourceAlpha" type="matrix" values="0 0 0 0 0 0 0 0 0 0 0 0 0 0 0 0 0 0 127 0" result="hardAlpha"/>
<feOffset dx="2" dy="2"/>
<feGaussianBlur stdDeviation="2"/>
<feComposite in2="hardAlpha" operator="arithmetic" k2="-1" k3="1"/>
<feColorMatrix type="matrix" values="0 0 0 0 1 0 0 0 0 1 0 0 0 0 1 0 0 0 0.3 0"/>
<feBlend mode="normal" in2="shape" result="effect1_innerShadow_0_1"/>
<feColorMatrix in="SourceAlpha" type="matrix" values="0 0 0 0 0 0 0 0 0 0 0 0 0 0 0 0 0 0 127 0" result="hardAlpha"/>
<feOffset dx="-2" dy="-2"/>
<feGaussianBlur stdDeviation="2"/>
<feComposite in2="hardAlpha" operator="arithmetic" k2="-1" k3="1"/>
<feColorMatrix type="matrix" values="0 0 0 0 1 0 0 0 0 1 0 0 0 0 1 0 0 0 0.3 0"/>
<feBlend mode="normal" in2="effect1_innerShadow_0_1" result="effect2_innerShadow_0_1"/>
</filter>
</defs>
</svg>
