<svg width="1108" height="612" viewBox="0 0 1108 612" fill="none" xmlns="http://www.w3.org/2000/svg">
<path d="M40 42C40 40.8954 40.8954 40 42 40H1066C1067.1 40 1068 40.8954 1068 42V570C1068 571.105 1067.1 572 1066 572H42C40.8954 572 40 571.105 40 570V42Z" fill="white"/>
<path d="M42 40V41H1066V40V39H42V40ZM1068 42H1067V570H1068H1069V42H1068ZM1066 572V571H42V572V573H1066V572ZM40 570H41V42H40H39V570H40ZM42 572V571C41.4477 571 41 570.552 41 570H40H39C39 571.657 40.3431 573 42 573V572ZM1068 570H1067C1067 570.552 1066.55 571 1066 571V572V573C1067.66 573 1069 571.657 1069 570H1068ZM1066 40V41C1066.55 41 1067 41.4477 1067 42H1068H1069C1069 40.3432 1067.66 39 1066 39V40ZM42 40V39C40.3432 39 39 40.3431 39 42H40H41C41 41.4477 41.4477 41 42 41V40Z" fill="black" fill-opacity="0.1"/>
<rect x="64.5" y="80.5" width="962" height="389" rx="4.5" stroke="#8A38F5" stroke-dasharray="10 5"/>
<rect x="84" y="151" width="75" height="28" rx="14" fill="#0D79F2" fill-opacity="0.2"/>
<rect x="84.5" y="151.5" width="74" height="27" rx="13.5" stroke="#0D79F2" stroke-opacity="0.5"/>
<path fill-rule="evenodd" clip-rule="evenodd" d="M109.333 159C110.438 159 111.333 159.895 111.333 161V169C111.333 170.105 110.438 171 109.333 171H98.6667C97.5621 171 96.6667 170.105 96.6667 169V161C96.6667 159.895 97.5621 159 98.6667 159H109.333ZM98 169C98 169.368 98.2985 169.667 98.6667 169.667H109.333C109.702 169.667 110 169.368 110 169V162.882L105.031 166.047C105.023 166.052 105.016 166.057 105.008 166.061C104.703 166.238 104.356 166.331 104.003 166.331C103.651 166.331 103.304 166.238 102.999 166.061C102.991 166.057 102.983 166.052 102.975 166.047L98 162.881V169ZM98.6667 160.333C98.2985 160.333 98 160.632 98 161V161.3L103.672 164.91C103.773 164.968 103.887 164.998 104.003 164.998C104.119 164.998 104.233 164.968 104.333 164.91L110 161.3V161C110 160.632 109.702 160.333 109.333 160.333H98.6667Z" fill="#0D79F2"/>
<path d="M128.331 163.217H126.737C126.692 162.956 126.608 162.724 126.486 162.523C126.364 162.318 126.212 162.145 126.03 162.003C125.848 161.861 125.641 161.754 125.408 161.683C125.178 161.609 124.929 161.572 124.662 161.572C124.188 161.572 123.767 161.692 123.401 161.93C123.034 162.166 122.747 162.513 122.54 162.97C122.332 163.425 122.229 163.98 122.229 164.636C122.229 165.304 122.332 165.866 122.54 166.324C122.75 166.778 123.037 167.122 123.401 167.355C123.767 167.585 124.186 167.7 124.658 167.7C124.919 167.7 125.163 167.666 125.391 167.598C125.621 167.527 125.827 167.423 126.009 167.287C126.193 167.151 126.348 166.983 126.473 166.784C126.601 166.585 126.689 166.358 126.737 166.102L128.331 166.111C128.271 166.526 128.142 166.915 127.943 167.278C127.747 167.642 127.49 167.963 127.172 168.241C126.854 168.517 126.482 168.733 126.055 168.889C125.629 169.043 125.156 169.119 124.636 169.119C123.869 169.119 123.185 168.942 122.582 168.587C121.98 168.232 121.506 167.719 121.159 167.048C120.813 166.378 120.639 165.574 120.639 164.636C120.639 163.696 120.814 162.892 121.163 162.224C121.513 161.554 121.989 161.041 122.591 160.686C123.193 160.331 123.875 160.153 124.636 160.153C125.122 160.153 125.574 160.222 125.991 160.358C126.409 160.494 126.781 160.695 127.108 160.959C127.435 161.22 127.703 161.541 127.913 161.922C128.126 162.3 128.266 162.732 128.331 163.217ZM131.253 165.165V169H129.711V160.273H131.219V163.567H131.296C131.449 163.197 131.686 162.906 132.007 162.693C132.331 162.477 132.743 162.369 133.243 162.369C133.698 162.369 134.094 162.464 134.432 162.655C134.77 162.845 135.032 163.124 135.216 163.49C135.404 163.857 135.498 164.304 135.498 164.832V169H133.955V165.071C133.955 164.631 133.841 164.288 133.614 164.044C133.39 163.797 133.074 163.673 132.668 163.673C132.395 163.673 132.151 163.733 131.935 163.852C131.722 163.969 131.554 164.138 131.432 164.359C131.313 164.581 131.253 164.849 131.253 165.165ZM137.07 169V162.455H138.613V169H137.07ZM137.846 161.526C137.601 161.526 137.391 161.445 137.215 161.283C137.039 161.118 136.951 160.92 136.951 160.69C136.951 160.457 137.039 160.26 137.215 160.098C137.391 159.933 137.601 159.851 137.846 159.851C138.093 159.851 138.303 159.933 138.476 160.098C138.652 160.26 138.74 160.457 138.74 160.69C138.74 160.92 138.652 161.118 138.476 161.283C138.303 161.445 138.093 161.526 137.846 161.526ZM140.199 171.455V162.455H141.716V163.537H141.805C141.885 163.378 141.997 163.209 142.142 163.03C142.287 162.848 142.483 162.693 142.73 162.565C142.977 162.435 143.293 162.369 143.676 162.369C144.182 162.369 144.638 162.499 145.044 162.757C145.453 163.013 145.777 163.392 146.016 163.895C146.257 164.395 146.378 165.009 146.378 165.736C146.378 166.455 146.26 167.065 146.024 167.568C145.788 168.071 145.467 168.455 145.061 168.719C144.655 168.983 144.195 169.115 143.68 169.115C143.305 169.115 142.994 169.053 142.747 168.928C142.5 168.803 142.301 168.652 142.151 168.476C142.003 168.297 141.888 168.128 141.805 167.969H141.741V171.455H140.199ZM141.712 165.727C141.712 166.151 141.771 166.521 141.891 166.839C142.013 167.158 142.188 167.406 142.415 167.585C142.645 167.761 142.923 167.849 143.25 167.849C143.591 167.849 143.876 167.759 144.107 167.577C144.337 167.392 144.51 167.141 144.626 166.822C144.746 166.501 144.805 166.136 144.805 165.727C144.805 165.321 144.747 164.96 144.631 164.645C144.514 164.33 144.341 164.082 144.111 163.903C143.881 163.724 143.594 163.635 143.25 163.635C142.92 163.635 142.641 163.722 142.411 163.895C142.18 164.068 142.006 164.311 141.886 164.624C141.77 164.936 141.712 165.304 141.712 165.727Z" fill="#0D79F2"/>
<rect x="554.5" y="151.5" width="74" height="27" rx="13.5" stroke="#0D79F2" stroke-opacity="0.5"/>
<path fill-rule="evenodd" clip-rule="evenodd" d="M579.333 159C580.438 159 581.333 159.895 581.333 161V169C581.333 170.105 580.438 171 579.333 171H568.667C567.562 171 566.667 170.105 566.667 169V161C566.667 159.895 567.562 159 568.667 159H579.333ZM568 169C568 169.368 568.298 169.667 568.667 169.667H579.333C579.702 169.667 580 169.368 580 169V162.882L575.031 166.047C575.023 166.052 575.016 166.057 575.008 166.061C574.703 166.238 574.356 166.331 574.003 166.331C573.651 166.331 573.304 166.238 572.999 166.061C572.991 166.057 572.983 166.052 572.975 166.047L568 162.881V169ZM568.667 160.333C568.298 160.333 568 160.632 568 161V161.3L573.672 164.91C573.773 164.968 573.887 164.998 574.003 164.998C574.119 164.998 574.233 164.968 574.333 164.91L580 161.3V161C580 160.632 579.702 160.333 579.333 160.333H568.667Z" fill="#0D79F2"/>
<path d="M598.331 163.217H596.737C596.692 162.956 596.608 162.724 596.486 162.523C596.364 162.318 596.212 162.145 596.03 162.003C595.848 161.861 595.641 161.754 595.408 161.683C595.178 161.609 594.929 161.572 594.662 161.572C594.188 161.572 593.767 161.692 593.401 161.93C593.034 162.166 592.747 162.513 592.54 162.97C592.332 163.425 592.229 163.98 592.229 164.636C592.229 165.304 592.332 165.866 592.54 166.324C592.75 166.778 593.037 167.122 593.401 167.355C593.767 167.585 594.186 167.7 594.658 167.7C594.919 167.7 595.163 167.666 595.391 167.598C595.621 167.527 595.827 167.423 596.009 167.287C596.193 167.151 596.348 166.983 596.473 166.784C596.601 166.585 596.689 166.358 596.737 166.102L598.331 166.111C598.271 166.526 598.142 166.915 597.943 167.278C597.747 167.642 597.49 167.963 597.172 168.241C596.854 168.517 596.482 168.733 596.055 168.889C595.629 169.043 595.156 169.119 594.636 169.119C593.869 169.119 593.185 168.942 592.582 168.587C591.98 168.232 591.506 167.719 591.159 167.048C590.813 166.378 590.639 165.574 590.639 164.636C590.639 163.696 590.814 162.892 591.163 162.224C591.513 161.554 591.989 161.041 592.591 160.686C593.193 160.331 593.875 160.153 594.636 160.153C595.122 160.153 595.574 160.222 595.991 160.358C596.409 160.494 596.781 160.695 597.108 160.959C597.435 161.22 597.703 161.541 597.913 161.922C598.126 162.3 598.266 162.732 598.331 163.217ZM601.253 165.165V169H599.711V160.273H601.219V163.567H601.296C601.449 163.197 601.686 162.906 602.007 162.693C602.331 162.477 602.743 162.369 603.243 162.369C603.698 162.369 604.094 162.464 604.432 162.655C604.77 162.845 605.032 163.124 605.216 163.49C605.404 163.857 605.498 164.304 605.498 164.832V169H603.955V165.071C603.955 164.631 603.841 164.288 603.614 164.044C603.39 163.797 603.074 163.673 602.668 163.673C602.395 163.673 602.151 163.733 601.935 163.852C601.722 163.969 601.554 164.138 601.432 164.359C601.313 164.581 601.253 164.849 601.253 165.165ZM607.07 169V162.455H608.613V169H607.07ZM607.846 161.526C607.601 161.526 607.391 161.445 607.215 161.283C607.039 161.118 606.951 160.92 606.951 160.69C606.951 160.457 607.039 160.26 607.215 160.098C607.391 159.933 607.601 159.851 607.846 159.851C608.093 159.851 608.303 159.933 608.476 160.098C608.652 160.26 608.74 160.457 608.74 160.69C608.74 160.92 608.652 161.118 608.476 161.283C608.303 161.445 608.093 161.526 607.846 161.526ZM610.199 171.455V162.455H611.716V163.537H611.805C611.885 163.378 611.997 163.209 612.142 163.03C612.287 162.848 612.483 162.693 612.73 162.565C612.977 162.435 613.293 162.369 613.676 162.369C614.182 162.369 614.638 162.499 615.044 162.757C615.453 163.013 615.777 163.392 616.016 163.895C616.257 164.395 616.378 165.009 616.378 165.736C616.378 166.455 616.26 167.065 616.024 167.568C615.788 168.071 615.467 168.455 615.061 168.719C614.655 168.983 614.195 169.115 613.68 169.115C613.305 169.115 612.994 169.053 612.747 168.928C612.5 168.803 612.301 168.652 612.151 168.476C612.003 168.297 611.888 168.128 611.805 167.969H611.741V171.455H610.199ZM611.712 165.727C611.712 166.151 611.771 166.521 611.891 166.839C612.013 167.158 612.188 167.406 612.415 167.585C612.645 167.761 612.923 167.849 613.25 167.849C613.591 167.849 613.876 167.759 614.107 167.577C614.337 167.392 614.51 167.141 614.626 166.822C614.746 166.501 614.805 166.136 614.805 165.727C614.805 165.321 614.747 164.96 614.631 164.645C614.514 164.33 614.341 164.082 614.111 163.903C613.881 163.724 613.594 163.635 613.25 163.635C612.92 163.635 612.641 163.722 612.411 163.895C612.18 164.068 612.006 164.311 611.886 164.624C611.77 164.936 611.712 165.304 611.712 165.727Z" fill="#0D79F2"/>
<rect x="84" y="274" width="75" height="28" rx="14" fill="#0D79F2" fill-opacity="0.08"/>
<rect x="84.5" y="274.5" width="74" height="27" rx="13.5" stroke="#0D79F2" stroke-opacity="0.2"/>
<path fill-rule="evenodd" clip-rule="evenodd" d="M109.333 282C110.438 282 111.333 282.895 111.333 284V292C111.333 293.105 110.438 294 109.333 294H98.6667C97.5621 294 96.6667 293.105 96.6667 292V284C96.6667 282.895 97.5621 282 98.6667 282H109.333ZM98 292C98 292.368 98.2985 292.667 98.6667 292.667H109.333C109.702 292.667 110 292.368 110 292V285.882L105.031 289.047C105.023 289.052 105.016 289.057 105.008 289.061C104.703 289.238 104.356 289.331 104.003 289.331C103.651 289.331 103.304 289.238 102.999 289.061C102.991 289.057 102.983 289.052 102.975 289.047L98 285.881V292ZM98.6667 283.333C98.2985 283.333 98 283.632 98 284V284.3L103.672 287.91C103.773 287.968 103.887 287.998 104.003 287.998C104.119 287.998 104.233 287.968 104.333 287.91L110 284.3V284C110 283.632 109.702 283.333 109.333 283.333H98.6667Z" fill="#0D79F2"/>
<path d="M128.331 286.217H126.737C126.692 285.956 126.608 285.724 126.486 285.523C126.364 285.318 126.212 285.145 126.03 285.003C125.848 284.861 125.641 284.754 125.408 284.683C125.178 284.609 124.929 284.572 124.662 284.572C124.188 284.572 123.767 284.692 123.401 284.93C123.034 285.166 122.747 285.513 122.54 285.97C122.332 286.425 122.229 286.98 122.229 287.636C122.229 288.304 122.332 288.866 122.54 289.324C122.75 289.778 123.037 290.122 123.401 290.355C123.767 290.585 124.186 290.7 124.658 290.7C124.919 290.7 125.163 290.666 125.391 290.598C125.621 290.527 125.827 290.423 126.009 290.287C126.193 290.151 126.348 289.983 126.473 289.784C126.601 289.585 126.689 289.358 126.737 289.102L128.331 289.111C128.271 289.526 128.142 289.915 127.943 290.278C127.747 290.642 127.49 290.963 127.172 291.241C126.854 291.517 126.482 291.733 126.055 291.889C125.629 292.043 125.156 292.119 124.636 292.119C123.869 292.119 123.185 291.942 122.582 291.587C121.98 291.232 121.506 290.719 121.159 290.048C120.813 289.378 120.639 288.574 120.639 287.636C120.639 286.696 120.814 285.892 121.163 285.224C121.513 284.554 121.989 284.041 122.591 283.686C123.193 283.331 123.875 283.153 124.636 283.153C125.122 283.153 125.574 283.222 125.991 283.358C126.409 283.494 126.781 283.695 127.108 283.959C127.435 284.22 127.703 284.541 127.913 284.922C128.126 285.3 128.266 285.732 128.331 286.217ZM131.253 288.165V292H129.711V283.273H131.219V286.567H131.296C131.449 286.197 131.686 285.906 132.007 285.693C132.331 285.477 132.743 285.369 133.243 285.369C133.698 285.369 134.094 285.464 134.432 285.655C134.77 285.845 135.032 286.124 135.216 286.49C135.404 286.857 135.498 287.304 135.498 287.832V292H133.955V288.071C133.955 287.631 133.841 287.288 133.614 287.044C133.39 286.797 133.074 286.673 132.668 286.673C132.395 286.673 132.151 286.733 131.935 286.852C131.722 286.969 131.554 287.138 131.432 287.359C131.313 287.581 131.253 287.849 131.253 288.165ZM137.07 292V285.455H138.613V292H137.07ZM137.846 284.526C137.601 284.526 137.391 284.445 137.215 284.283C137.039 284.118 136.951 283.92 136.951 283.69C136.951 283.457 137.039 283.26 137.215 283.098C137.391 282.933 137.601 282.851 137.846 282.851C138.093 282.851 138.303 282.933 138.476 283.098C138.652 283.26 138.74 283.457 138.74 283.69C138.74 283.92 138.652 284.118 138.476 284.283C138.303 284.445 138.093 284.526 137.846 284.526ZM140.199 294.455V285.455H141.716V286.537H141.805C141.885 286.378 141.997 286.209 142.142 286.03C142.287 285.848 142.483 285.693 142.73 285.565C142.977 285.435 143.293 285.369 143.676 285.369C144.182 285.369 144.638 285.499 145.044 285.757C145.453 286.013 145.777 286.392 146.016 286.895C146.257 287.395 146.378 288.009 146.378 288.736C146.378 289.455 146.26 290.065 146.024 290.568C145.788 291.071 145.467 291.455 145.061 291.719C144.655 291.983 144.195 292.115 143.68 292.115C143.305 292.115 142.994 292.053 142.747 291.928C142.5 291.803 142.301 291.652 142.151 291.476C142.003 291.297 141.888 291.128 141.805 290.969H141.741V294.455H140.199ZM141.712 288.727C141.712 289.151 141.771 289.521 141.891 289.839C142.013 290.158 142.188 290.406 142.415 290.585C142.645 290.761 142.923 290.849 143.25 290.849C143.591 290.849 143.876 290.759 144.107 290.577C144.337 290.392 144.51 290.141 144.626 289.822C144.746 289.501 144.805 289.136 144.805 288.727C144.805 288.321 144.747 287.96 144.631 287.645C144.514 287.33 144.341 287.082 144.111 286.903C143.881 286.724 143.594 286.635 143.25 286.635C142.92 286.635 142.641 286.722 142.411 286.895C142.18 287.068 142.006 287.311 141.886 287.624C141.77 287.936 141.712 288.304 141.712 288.727Z" fill="#0D79F2"/>
<rect x="554.5" y="274.5" width="74" height="27" rx="13.5" stroke="#0D79F2" stroke-opacity="0.2"/>
<path fill-rule="evenodd" clip-rule="evenodd" d="M579.333 282C580.438 282 581.333 282.895 581.333 284V292C581.333 293.105 580.438 294 579.333 294H568.667C567.562 294 566.667 293.105 566.667 292V284C566.667 282.895 567.562 282 568.667 282H579.333ZM568 292C568 292.368 568.298 292.667 568.667 292.667H579.333C579.702 292.667 580 292.368 580 292V285.882L575.031 289.047C575.023 289.052 575.016 289.057 575.008 289.061C574.703 289.238 574.356 289.331 574.003 289.331C573.651 289.331 573.304 289.238 572.999 289.061C572.991 289.057 572.983 289.052 572.975 289.047L568 285.881V292ZM568.667 283.333C568.298 283.333 568 283.632 568 284V284.3L573.672 287.91C573.773 287.968 573.887 287.998 574.003 287.998C574.119 287.998 574.233 287.968 574.333 287.91L580 284.3V284C580 283.632 579.702 283.333 579.333 283.333H568.667Z" fill="#559FF1"/>
<path d="M598.331 286.217H596.737C596.692 285.956 596.608 285.724 596.486 285.523C596.364 285.318 596.212 285.145 596.03 285.003C595.848 284.861 595.641 284.754 595.408 284.683C595.178 284.609 594.929 284.572 594.662 284.572C594.188 284.572 593.767 284.692 593.401 284.93C593.034 285.166 592.747 285.513 592.54 285.97C592.332 286.425 592.229 286.98 592.229 287.636C592.229 288.304 592.332 288.866 592.54 289.324C592.75 289.778 593.037 290.122 593.401 290.355C593.767 290.585 594.186 290.7 594.658 290.7C594.919 290.7 595.163 290.666 595.391 290.598C595.621 290.527 595.827 290.423 596.009 290.287C596.193 290.151 596.348 289.983 596.473 289.784C596.601 289.585 596.689 289.358 596.737 289.102L598.331 289.111C598.271 289.526 598.142 289.915 597.943 290.278C597.747 290.642 597.49 290.963 597.172 291.241C596.854 291.517 596.482 291.733 596.055 291.889C595.629 292.043 595.156 292.119 594.636 292.119C593.869 292.119 593.185 291.942 592.582 291.587C591.98 291.232 591.506 290.719 591.159 290.048C590.813 289.378 590.639 288.574 590.639 287.636C590.639 286.696 590.814 285.892 591.163 285.224C591.513 284.554 591.989 284.041 592.591 283.686C593.193 283.331 593.875 283.153 594.636 283.153C595.122 283.153 595.574 283.222 595.991 283.358C596.409 283.494 596.781 283.695 597.108 283.959C597.435 284.22 597.703 284.541 597.913 284.922C598.126 285.3 598.266 285.732 598.331 286.217ZM601.253 288.165V292H599.711V283.273H601.219V286.567H601.296C601.449 286.197 601.686 285.906 602.007 285.693C602.331 285.477 602.743 285.369 603.243 285.369C603.698 285.369 604.094 285.464 604.432 285.655C604.77 285.845 605.032 286.124 605.216 286.49C605.404 286.857 605.498 287.304 605.498 287.832V292H603.955V288.071C603.955 287.631 603.841 287.288 603.614 287.044C603.39 286.797 603.074 286.673 602.668 286.673C602.395 286.673 602.151 286.733 601.935 286.852C601.722 286.969 601.554 287.138 601.432 287.359C601.313 287.581 601.253 287.849 601.253 288.165ZM607.07 292V285.455H608.613V292H607.07ZM607.846 284.526C607.601 284.526 607.391 284.445 607.215 284.283C607.039 284.118 606.951 283.92 606.951 283.69C606.951 283.457 607.039 283.26 607.215 283.098C607.391 282.933 607.601 282.851 607.846 282.851C608.093 282.851 608.303 282.933 608.476 283.098C608.652 283.26 608.74 283.457 608.74 283.69C608.74 283.92 608.652 284.118 608.476 284.283C608.303 284.445 608.093 284.526 607.846 284.526ZM610.199 294.455V285.455H611.716V286.537H611.805C611.885 286.378 611.997 286.209 612.142 286.03C612.287 285.848 612.483 285.693 612.73 285.565C612.977 285.435 613.293 285.369 613.676 285.369C614.182 285.369 614.638 285.499 615.044 285.757C615.453 286.013 615.777 286.392 616.016 286.895C616.257 287.395 616.378 288.009 616.378 288.736C616.378 289.455 616.26 290.065 616.024 290.568C615.788 291.071 615.467 291.455 615.061 291.719C614.655 291.983 614.195 292.115 613.68 292.115C613.305 292.115 612.994 292.053 612.747 291.928C612.5 291.803 612.301 291.652 612.151 291.476C612.003 291.297 611.888 291.128 611.805 290.969H611.741V294.455H610.199ZM611.712 288.727C611.712 289.151 611.771 289.521 611.891 289.839C612.013 290.158 612.188 290.406 612.415 290.585C612.645 290.761 612.923 290.849 613.25 290.849C613.591 290.849 613.876 290.759 614.107 290.577C614.337 290.392 614.51 290.141 614.626 289.822C614.746 289.501 614.805 289.136 614.805 288.727C614.805 288.321 614.747 287.96 614.631 287.645C614.514 287.33 614.341 287.082 614.111 286.903C613.881 286.724 613.594 286.635 613.25 286.635C612.92 286.635 612.641 286.722 612.411 286.895C612.18 287.068 612.006 287.311 611.886 287.624C611.77 287.936 611.712 288.304 611.712 288.727Z" fill="#559FF1"/>
<rect x="87" y="100" width="75" height="28" rx="14" fill="#00C832" fill-opacity="0.2"/>
<rect x="87.5" y="100.5" width="74" height="27" rx="13.5" stroke="#00C832" stroke-opacity="0.5"/>
<path fill-rule="evenodd" clip-rule="evenodd" d="M112.333 108C113.438 108 114.333 108.895 114.333 110V118C114.333 119.105 113.438 120 112.333 120H101.667C100.562 120 99.6667 119.105 99.6667 118V110C99.6667 108.895 100.562 108 101.667 108H112.333ZM101 118C101 118.368 101.298 118.667 101.667 118.667H112.333C112.702 118.667 113 118.368 113 118V111.882L108.031 115.047C108.023 115.052 108.016 115.057 108.008 115.061C107.703 115.238 107.356 115.331 107.003 115.331C106.651 115.331 106.304 115.238 105.999 115.061C105.991 115.057 105.983 115.052 105.975 115.047L101 111.881V118ZM101.667 109.333C101.298 109.333 101 109.632 101 110V110.3L106.672 113.91C106.773 113.968 106.887 113.998 107.003 113.998C107.119 113.998 107.233 113.968 107.333 113.91L113 110.3V110C113 109.632 112.702 109.333 112.333 109.333H101.667Z" fill="#00C832"/>
<path d="M131.331 112.217H129.737C129.692 111.956 129.608 111.724 129.486 111.523C129.364 111.318 129.212 111.145 129.03 111.003C128.848 110.861 128.641 110.754 128.408 110.683C128.178 110.609 127.929 110.572 127.662 110.572C127.188 110.572 126.767 110.692 126.401 110.93C126.034 111.166 125.747 111.513 125.54 111.97C125.332 112.425 125.229 112.98 125.229 113.636C125.229 114.304 125.332 114.866 125.54 115.324C125.75 115.778 126.037 116.122 126.401 116.355C126.767 116.585 127.186 116.7 127.658 116.7C127.919 116.7 128.163 116.666 128.391 116.598C128.621 116.527 128.827 116.423 129.009 116.287C129.193 116.151 129.348 115.983 129.473 115.784C129.601 115.585 129.689 115.358 129.737 115.102L131.331 115.111C131.271 115.526 131.142 115.915 130.943 116.278C130.747 116.642 130.49 116.963 130.172 117.241C129.854 117.517 129.482 117.733 129.055 117.889C128.629 118.043 128.156 118.119 127.636 118.119C126.869 118.119 126.185 117.942 125.582 117.587C124.98 117.232 124.506 116.719 124.159 116.048C123.813 115.378 123.639 114.574 123.639 113.636C123.639 112.696 123.814 111.892 124.163 111.224C124.513 110.554 124.989 110.041 125.591 109.686C126.193 109.331 126.875 109.153 127.636 109.153C128.122 109.153 128.574 109.222 128.991 109.358C129.409 109.494 129.781 109.695 130.108 109.959C130.435 110.22 130.703 110.541 130.913 110.922C131.126 111.3 131.266 111.732 131.331 112.217ZM134.253 114.165V118H132.711V109.273H134.219V112.567H134.296C134.449 112.197 134.686 111.906 135.007 111.693C135.331 111.477 135.743 111.369 136.243 111.369C136.698 111.369 137.094 111.464 137.432 111.655C137.77 111.845 138.032 112.124 138.216 112.49C138.404 112.857 138.498 113.304 138.498 113.832V118H136.955V114.071C136.955 113.631 136.841 113.288 136.614 113.044C136.39 112.797 136.074 112.673 135.668 112.673C135.395 112.673 135.151 112.733 134.935 112.852C134.722 112.969 134.554 113.138 134.432 113.359C134.313 113.581 134.253 113.849 134.253 114.165ZM140.07 118V111.455H141.613V118H140.07ZM140.846 110.526C140.601 110.526 140.391 110.445 140.215 110.283C140.039 110.118 139.951 109.92 139.951 109.69C139.951 109.457 140.039 109.26 140.215 109.098C140.391 108.933 140.601 108.851 140.846 108.851C141.093 108.851 141.303 108.933 141.476 109.098C141.652 109.26 141.74 109.457 141.74 109.69C141.74 109.92 141.652 110.118 141.476 110.283C141.303 110.445 141.093 110.526 140.846 110.526ZM143.199 120.455V111.455H144.716V112.537H144.805C144.885 112.378 144.997 112.209 145.142 112.03C145.287 111.848 145.483 111.693 145.73 111.565C145.977 111.435 146.293 111.369 146.676 111.369C147.182 111.369 147.638 111.499 148.044 111.757C148.453 112.013 148.777 112.392 149.016 112.895C149.257 113.395 149.378 114.009 149.378 114.736C149.378 115.455 149.26 116.065 149.024 116.568C148.788 117.071 148.467 117.455 148.061 117.719C147.655 117.983 147.195 118.115 146.68 118.115C146.305 118.115 145.994 118.053 145.747 117.928C145.5 117.803 145.301 117.652 145.151 117.476C145.003 117.297 144.888 117.128 144.805 116.969H144.741V120.455H143.199ZM144.712 114.727C144.712 115.151 144.771 115.521 144.891 115.839C145.013 116.158 145.188 116.406 145.415 116.585C145.645 116.761 145.923 116.849 146.25 116.849C146.591 116.849 146.876 116.759 147.107 116.577C147.337 116.392 147.51 116.141 147.626 115.822C147.746 115.501 147.805 115.136 147.805 114.727C147.805 114.321 147.747 113.96 147.631 113.645C147.514 113.33 147.341 113.082 147.111 112.903C146.881 112.724 146.594 112.635 146.25 112.635C145.92 112.635 145.641 112.722 145.411 112.895C145.18 113.068 145.006 113.311 144.886 113.624C144.77 113.936 144.712 114.304 144.712 114.727Z" fill="#00C832"/>
<rect x="557.5" y="100.5" width="74" height="27" rx="13.5" stroke="#00C832" stroke-opacity="0.5"/>
<path fill-rule="evenodd" clip-rule="evenodd" d="M582.333 108C583.438 108 584.333 108.895 584.333 110V118C584.333 119.105 583.438 120 582.333 120H571.667C570.562 120 569.667 119.105 569.667 118V110C569.667 108.895 570.562 108 571.667 108H582.333ZM571 118C571 118.368 571.298 118.667 571.667 118.667H582.333C582.702 118.667 583 118.368 583 118V111.882L578.031 115.047C578.023 115.052 578.016 115.057 578.008 115.061C577.703 115.238 577.356 115.331 577.003 115.331C576.651 115.331 576.304 115.238 575.999 115.061C575.991 115.057 575.983 115.052 575.975 115.047L571 111.881V118ZM571.667 109.333C571.298 109.333 571 109.632 571 110V110.3L576.672 113.91C576.773 113.968 576.887 113.998 577.003 113.998C577.119 113.998 577.233 113.968 577.333 113.91L583 110.3V110C583 109.632 582.702 109.333 582.333 109.333H571.667Z" fill="#00C832"/>
<path d="M601.331 112.217H599.737C599.692 111.956 599.608 111.724 599.486 111.523C599.364 111.318 599.212 111.145 599.03 111.003C598.848 110.861 598.641 110.754 598.408 110.683C598.178 110.609 597.929 110.572 597.662 110.572C597.188 110.572 596.767 110.692 596.401 110.93C596.034 111.166 595.747 111.513 595.54 111.97C595.332 112.425 595.229 112.98 595.229 113.636C595.229 114.304 595.332 114.866 595.54 115.324C595.75 115.778 596.037 116.122 596.401 116.355C596.767 116.585 597.186 116.7 597.658 116.7C597.919 116.7 598.163 116.666 598.391 116.598C598.621 116.527 598.827 116.423 599.009 116.287C599.193 116.151 599.348 115.983 599.473 115.784C599.601 115.585 599.689 115.358 599.737 115.102L601.331 115.111C601.271 115.526 601.142 115.915 600.943 116.278C600.747 116.642 600.49 116.963 600.172 117.241C599.854 117.517 599.482 117.733 599.055 117.889C598.629 118.043 598.156 118.119 597.636 118.119C596.869 118.119 596.185 117.942 595.582 117.587C594.98 117.232 594.506 116.719 594.159 116.048C593.813 115.378 593.639 114.574 593.639 113.636C593.639 112.696 593.814 111.892 594.163 111.224C594.513 110.554 594.989 110.041 595.591 109.686C596.193 109.331 596.875 109.153 597.636 109.153C598.122 109.153 598.574 109.222 598.991 109.358C599.409 109.494 599.781 109.695 600.108 109.959C600.435 110.22 600.703 110.541 600.913 110.922C601.126 111.3 601.266 111.732 601.331 112.217ZM604.253 114.165V118H602.711V109.273H604.219V112.567H604.296C604.449 112.197 604.686 111.906 605.007 111.693C605.331 111.477 605.743 111.369 606.243 111.369C606.698 111.369 607.094 111.464 607.432 111.655C607.77 111.845 608.032 112.124 608.216 112.49C608.404 112.857 608.498 113.304 608.498 113.832V118H606.955V114.071C606.955 113.631 606.841 113.288 606.614 113.044C606.39 112.797 606.074 112.673 605.668 112.673C605.395 112.673 605.151 112.733 604.935 112.852C604.722 112.969 604.554 113.138 604.432 113.359C604.313 113.581 604.253 113.849 604.253 114.165ZM610.07 118V111.455H611.613V118H610.07ZM610.846 110.526C610.601 110.526 610.391 110.445 610.215 110.283C610.039 110.118 609.951 109.92 609.951 109.69C609.951 109.457 610.039 109.26 610.215 109.098C610.391 108.933 610.601 108.851 610.846 108.851C611.093 108.851 611.303 108.933 611.476 109.098C611.652 109.26 611.74 109.457 611.74 109.69C611.74 109.92 611.652 110.118 611.476 110.283C611.303 110.445 611.093 110.526 610.846 110.526ZM613.199 120.455V111.455H614.716V112.537H614.805C614.885 112.378 614.997 112.209 615.142 112.03C615.287 111.848 615.483 111.693 615.73 111.565C615.977 111.435 616.293 111.369 616.676 111.369C617.182 111.369 617.638 111.499 618.044 111.757C618.453 112.013 618.777 112.392 619.016 112.895C619.257 113.395 619.378 114.009 619.378 114.736C619.378 115.455 619.26 116.065 619.024 116.568C618.788 117.071 618.467 117.455 618.061 117.719C617.655 117.983 617.195 118.115 616.68 118.115C616.305 118.115 615.994 118.053 615.747 117.928C615.5 117.803 615.301 117.652 615.151 117.476C615.003 117.297 614.888 117.128 614.805 116.969H614.741V120.455H613.199ZM614.712 114.727C614.712 115.151 614.771 115.521 614.891 115.839C615.013 116.158 615.188 116.406 615.415 116.585C615.645 116.761 615.923 116.849 616.25 116.849C616.591 116.849 616.876 116.759 617.107 116.577C617.337 116.392 617.51 116.141 617.626 115.822C617.746 115.501 617.805 115.136 617.805 114.727C617.805 114.321 617.747 113.96 617.631 113.645C617.514 113.33 617.341 113.082 617.111 112.903C616.881 112.724 616.594 112.635 616.25 112.635C615.92 112.635 615.641 112.722 615.411 112.895C615.18 113.068 615.006 113.311 614.886 113.624C614.77 113.936 614.712 114.304 614.712 114.727Z" fill="#00C832"/>
<rect x="87" y="223" width="75" height="28" rx="14" fill="#00C832" fill-opacity="0.08"/>
<rect x="87.5" y="223.5" width="74" height="27" rx="13.5" stroke="#00C832" stroke-opacity="0.2"/>
<path fill-rule="evenodd" clip-rule="evenodd" d="M112.333 231C113.438 231 114.333 231.895 114.333 233V241C114.333 242.105 113.438 243 112.333 243H101.667C100.562 243 99.6667 242.105 99.6667 241V233C99.6667 231.895 100.562 231 101.667 231H112.333ZM101 241C101 241.368 101.298 241.667 101.667 241.667H112.333C112.702 241.667 113 241.368 113 241V234.882L108.031 238.047C108.023 238.052 108.016 238.057 108.008 238.061C107.703 238.238 107.356 238.331 107.003 238.331C106.651 238.331 106.304 238.238 105.999 238.061C105.991 238.057 105.983 238.052 105.975 238.047L101 234.881V241ZM101.667 232.333C101.298 232.333 101 232.632 101 233V233.3L106.672 236.91C106.773 236.968 106.887 236.998 107.003 236.998C107.119 236.998 107.233 236.968 107.333 236.91L113 233.3V233C113 232.632 112.702 232.333 112.333 232.333H101.667Z" fill="#00C832"/>
<path d="M131.331 235.217H129.737C129.692 234.956 129.608 234.724 129.486 234.523C129.364 234.318 129.212 234.145 129.03 234.003C128.848 233.861 128.641 233.754 128.408 233.683C128.178 233.609 127.929 233.572 127.662 233.572C127.188 233.572 126.767 233.692 126.401 233.93C126.034 234.166 125.747 234.513 125.54 234.97C125.332 235.425 125.229 235.98 125.229 236.636C125.229 237.304 125.332 237.866 125.54 238.324C125.75 238.778 126.037 239.122 126.401 239.355C126.767 239.585 127.186 239.7 127.658 239.7C127.919 239.7 128.163 239.666 128.391 239.598C128.621 239.527 128.827 239.423 129.009 239.287C129.193 239.151 129.348 238.983 129.473 238.784C129.601 238.585 129.689 238.358 129.737 238.102L131.331 238.111C131.271 238.526 131.142 238.915 130.943 239.278C130.747 239.642 130.49 239.963 130.172 240.241C129.854 240.517 129.482 240.733 129.055 240.889C128.629 241.043 128.156 241.119 127.636 241.119C126.869 241.119 126.185 240.942 125.582 240.587C124.98 240.232 124.506 239.719 124.159 239.048C123.813 238.378 123.639 237.574 123.639 236.636C123.639 235.696 123.814 234.892 124.163 234.224C124.513 233.554 124.989 233.041 125.591 232.686C126.193 232.331 126.875 232.153 127.636 232.153C128.122 232.153 128.574 232.222 128.991 232.358C129.409 232.494 129.781 232.695 130.108 232.959C130.435 233.22 130.703 233.541 130.913 233.922C131.126 234.3 131.266 234.732 131.331 235.217ZM134.253 237.165V241H132.711V232.273H134.219V235.567H134.296C134.449 235.197 134.686 234.906 135.007 234.693C135.331 234.477 135.743 234.369 136.243 234.369C136.698 234.369 137.094 234.464 137.432 234.655C137.77 234.845 138.032 235.124 138.216 235.49C138.404 235.857 138.498 236.304 138.498 236.832V241H136.955V237.071C136.955 236.631 136.841 236.288 136.614 236.044C136.39 235.797 136.074 235.673 135.668 235.673C135.395 235.673 135.151 235.733 134.935 235.852C134.722 235.969 134.554 236.138 134.432 236.359C134.313 236.581 134.253 236.849 134.253 237.165ZM140.07 241V234.455H141.613V241H140.07ZM140.846 233.526C140.601 233.526 140.391 233.445 140.215 233.283C140.039 233.118 139.951 232.92 139.951 232.69C139.951 232.457 140.039 232.26 140.215 232.098C140.391 231.933 140.601 231.851 140.846 231.851C141.093 231.851 141.303 231.933 141.476 232.098C141.652 232.26 141.74 232.457 141.74 232.69C141.74 232.92 141.652 233.118 141.476 233.283C141.303 233.445 141.093 233.526 140.846 233.526ZM143.199 243.455V234.455H144.716V235.537H144.805C144.885 235.378 144.997 235.209 145.142 235.03C145.287 234.848 145.483 234.693 145.73 234.565C145.977 234.435 146.293 234.369 146.676 234.369C147.182 234.369 147.638 234.499 148.044 234.757C148.453 235.013 148.777 235.392 149.016 235.895C149.257 236.395 149.378 237.009 149.378 237.736C149.378 238.455 149.26 239.065 149.024 239.568C148.788 240.071 148.467 240.455 148.061 240.719C147.655 240.983 147.195 241.115 146.68 241.115C146.305 241.115 145.994 241.053 145.747 240.928C145.5 240.803 145.301 240.652 145.151 240.476C145.003 240.297 144.888 240.128 144.805 239.969H144.741V243.455H143.199ZM144.712 237.727C144.712 238.151 144.771 238.521 144.891 238.839C145.013 239.158 145.188 239.406 145.415 239.585C145.645 239.761 145.923 239.849 146.25 239.849C146.591 239.849 146.876 239.759 147.107 239.577C147.337 239.392 147.51 239.141 147.626 238.822C147.746 238.501 147.805 238.136 147.805 237.727C147.805 237.321 147.747 236.96 147.631 236.645C147.514 236.33 147.341 236.082 147.111 235.903C146.881 235.724 146.594 235.635 146.25 235.635C145.92 235.635 145.641 235.722 145.411 235.895C145.18 236.068 145.006 236.311 144.886 236.624C144.77 236.936 144.712 237.304 144.712 237.727Z" fill="#00C832"/>
<rect x="557.5" y="223.5" width="74" height="27" rx="13.5" stroke="#00C832" stroke-opacity="0.2"/>
<path fill-rule="evenodd" clip-rule="evenodd" d="M582.333 231C583.438 231 584.333 231.895 584.333 233V241C584.333 242.105 583.438 243 582.333 243H571.667C570.562 243 569.667 242.105 569.667 241V233C569.667 231.895 570.562 231 571.667 231H582.333ZM571 241C571 241.368 571.298 241.667 571.667 241.667H582.333C582.702 241.667 583 241.368 583 241V234.882L578.031 238.047C578.023 238.052 578.016 238.057 578.008 238.061C577.703 238.238 577.356 238.331 577.003 238.331C576.651 238.331 576.304 238.238 575.999 238.061C575.991 238.057 575.983 238.052 575.975 238.047L571 234.881V241ZM571.667 232.333C571.298 232.333 571 232.632 571 233V233.3L576.672 236.91C576.773 236.968 576.887 236.998 577.003 236.998C577.119 236.998 577.233 236.968 577.333 236.91L583 233.3V233C583 232.632 582.702 232.333 582.333 232.333H571.667Z" fill="#0DE351"/>
<path d="M601.331 235.217H599.737C599.692 234.956 599.608 234.724 599.486 234.523C599.364 234.318 599.212 234.145 599.03 234.003C598.848 233.861 598.641 233.754 598.408 233.683C598.178 233.609 597.929 233.572 597.662 233.572C597.188 233.572 596.767 233.692 596.401 233.93C596.034 234.166 595.747 234.513 595.54 234.97C595.332 235.425 595.229 235.98 595.229 236.636C595.229 237.304 595.332 237.866 595.54 238.324C595.75 238.778 596.037 239.122 596.401 239.355C596.767 239.585 597.186 239.7 597.658 239.7C597.919 239.7 598.163 239.666 598.391 239.598C598.621 239.527 598.827 239.423 599.009 239.287C599.193 239.151 599.348 238.983 599.473 238.784C599.601 238.585 599.689 238.358 599.737 238.102L601.331 238.111C601.271 238.526 601.142 238.915 600.943 239.278C600.747 239.642 600.49 239.963 600.172 240.241C599.854 240.517 599.482 240.733 599.055 240.889C598.629 241.043 598.156 241.119 597.636 241.119C596.869 241.119 596.185 240.942 595.582 240.587C594.98 240.232 594.506 239.719 594.159 239.048C593.813 238.378 593.639 237.574 593.639 236.636C593.639 235.696 593.814 234.892 594.163 234.224C594.513 233.554 594.989 233.041 595.591 232.686C596.193 232.331 596.875 232.153 597.636 232.153C598.122 232.153 598.574 232.222 598.991 232.358C599.409 232.494 599.781 232.695 600.108 232.959C600.435 233.22 600.703 233.541 600.913 233.922C601.126 234.3 601.266 234.732 601.331 235.217ZM604.253 237.165V241H602.711V232.273H604.219V235.567H604.296C604.449 235.197 604.686 234.906 605.007 234.693C605.331 234.477 605.743 234.369 606.243 234.369C606.698 234.369 607.094 234.464 607.432 234.655C607.77 234.845 608.032 235.124 608.216 235.49C608.404 235.857 608.498 236.304 608.498 236.832V241H606.955V237.071C606.955 236.631 606.841 236.288 606.614 236.044C606.39 235.797 606.074 235.673 605.668 235.673C605.395 235.673 605.151 235.733 604.935 235.852C604.722 235.969 604.554 236.138 604.432 236.359C604.313 236.581 604.253 236.849 604.253 237.165ZM610.07 241V234.455H611.613V241H610.07ZM610.846 233.526C610.601 233.526 610.391 233.445 610.215 233.283C610.039 233.118 609.951 232.92 609.951 232.69C609.951 232.457 610.039 232.26 610.215 232.098C610.391 231.933 610.601 231.851 610.846 231.851C611.093 231.851 611.303 231.933 611.476 232.098C611.652 232.26 611.74 232.457 611.74 232.69C611.74 232.92 611.652 233.118 611.476 233.283C611.303 233.445 611.093 233.526 610.846 233.526ZM613.199 243.455V234.455H614.716V235.537H614.805C614.885 235.378 614.997 235.209 615.142 235.03C615.287 234.848 615.483 234.693 615.73 234.565C615.977 234.435 616.293 234.369 616.676 234.369C617.182 234.369 617.638 234.499 618.044 234.757C618.453 235.013 618.777 235.392 619.016 235.895C619.257 236.395 619.378 237.009 619.378 237.736C619.378 238.455 619.26 239.065 619.024 239.568C618.788 240.071 618.467 240.455 618.061 240.719C617.655 240.983 617.195 241.115 616.68 241.115C616.305 241.115 615.994 241.053 615.747 240.928C615.5 240.803 615.301 240.652 615.151 240.476C615.003 240.297 614.888 240.128 614.805 239.969H614.741V243.455H613.199ZM614.712 237.727C614.712 238.151 614.771 238.521 614.891 238.839C615.013 239.158 615.188 239.406 615.415 239.585C615.645 239.761 615.923 239.849 616.25 239.849C616.591 239.849 616.876 239.759 617.107 239.577C617.337 239.392 617.51 239.141 617.626 238.822C617.746 238.501 617.805 238.136 617.805 237.727C617.805 237.321 617.747 236.96 617.631 236.645C617.514 236.33 617.341 236.082 617.111 235.903C616.881 235.724 616.594 235.635 616.25 235.635C615.92 235.635 615.641 235.722 615.411 235.895C615.18 236.068 615.006 236.311 614.886 236.624C614.77 236.936 614.712 237.304 614.712 237.727Z" fill="#0DE351"/>
<rect x="184" y="100" width="75" height="28" rx="14" fill="#E53935" fill-opacity="0.2"/>
<rect x="184.5" y="100.5" width="74" height="27" rx="13.5" stroke="#E53935" stroke-opacity="0.5"/>
<path fill-rule="evenodd" clip-rule="evenodd" d="M209.333 108C210.438 108 211.333 108.895 211.333 110V118C211.333 119.105 210.438 120 209.333 120H198.667C197.562 120 196.667 119.105 196.667 118V110C196.667 108.895 197.562 108 198.667 108H209.333ZM198 118C198 118.368 198.298 118.667 198.667 118.667H209.333C209.702 118.667 210 118.368 210 118V111.882L205.031 115.047C205.023 115.052 205.016 115.057 205.008 115.061C204.703 115.238 204.356 115.331 204.003 115.331C203.651 115.331 203.304 115.238 202.999 115.061C202.991 115.057 202.983 115.052 202.975 115.047L198 111.881V118ZM198.667 109.333C198.298 109.333 198 109.632 198 110V110.3L203.672 113.91C203.773 113.968 203.887 113.998 204.003 113.998C204.119 113.998 204.233 113.968 204.333 113.91L210 110.3V110C210 109.632 209.702 109.333 209.333 109.333H198.667Z" fill="#E53935"/>
<path d="M228.331 112.217H226.737C226.692 111.956 226.608 111.724 226.486 111.523C226.364 111.318 226.212 111.145 226.03 111.003C225.848 110.861 225.641 110.754 225.408 110.683C225.178 110.609 224.929 110.572 224.662 110.572C224.188 110.572 223.767 110.692 223.401 110.93C223.034 111.166 222.747 111.513 222.54 111.97C222.332 112.425 222.229 112.98 222.229 113.636C222.229 114.304 222.332 114.866 222.54 115.324C222.75 115.778 223.037 116.122 223.401 116.355C223.767 116.585 224.186 116.7 224.658 116.7C224.919 116.7 225.163 116.666 225.391 116.598C225.621 116.527 225.827 116.423 226.009 116.287C226.193 116.151 226.348 115.983 226.473 115.784C226.601 115.585 226.689 115.358 226.737 115.102L228.331 115.111C228.271 115.526 228.142 115.915 227.943 116.278C227.747 116.642 227.49 116.963 227.172 117.241C226.854 117.517 226.482 117.733 226.055 117.889C225.629 118.043 225.156 118.119 224.636 118.119C223.869 118.119 223.185 117.942 222.582 117.587C221.98 117.232 221.506 116.719 221.159 116.048C220.813 115.378 220.639 114.574 220.639 113.636C220.639 112.696 220.814 111.892 221.163 111.224C221.513 110.554 221.989 110.041 222.591 109.686C223.193 109.331 223.875 109.153 224.636 109.153C225.122 109.153 225.574 109.222 225.991 109.358C226.409 109.494 226.781 109.695 227.108 109.959C227.435 110.22 227.703 110.541 227.913 110.922C228.126 111.3 228.266 111.732 228.331 112.217ZM231.253 114.165V118H229.711V109.273H231.219V112.567H231.296C231.449 112.197 231.686 111.906 232.007 111.693C232.331 111.477 232.743 111.369 233.243 111.369C233.698 111.369 234.094 111.464 234.432 111.655C234.77 111.845 235.032 112.124 235.216 112.49C235.404 112.857 235.498 113.304 235.498 113.832V118H233.955V114.071C233.955 113.631 233.841 113.288 233.614 113.044C233.39 112.797 233.074 112.673 232.668 112.673C232.395 112.673 232.151 112.733 231.935 112.852C231.722 112.969 231.554 113.138 231.432 113.359C231.313 113.581 231.253 113.849 231.253 114.165ZM237.07 118V111.455H238.613V118H237.07ZM237.846 110.526C237.601 110.526 237.391 110.445 237.215 110.283C237.039 110.118 236.951 109.92 236.951 109.69C236.951 109.457 237.039 109.26 237.215 109.098C237.391 108.933 237.601 108.851 237.846 108.851C238.093 108.851 238.303 108.933 238.476 109.098C238.652 109.26 238.74 109.457 238.74 109.69C238.74 109.92 238.652 110.118 238.476 110.283C238.303 110.445 238.093 110.526 237.846 110.526ZM240.199 120.455V111.455H241.716V112.537H241.805C241.885 112.378 241.997 112.209 242.142 112.03C242.287 111.848 242.483 111.693 242.73 111.565C242.977 111.435 243.293 111.369 243.676 111.369C244.182 111.369 244.638 111.499 245.044 111.757C245.453 112.013 245.777 112.392 246.016 112.895C246.257 113.395 246.378 114.009 246.378 114.736C246.378 115.455 246.26 116.065 246.024 116.568C245.788 117.071 245.467 117.455 245.061 117.719C244.655 117.983 244.195 118.115 243.68 118.115C243.305 118.115 242.994 118.053 242.747 117.928C242.5 117.803 242.301 117.652 242.151 117.476C242.003 117.297 241.888 117.128 241.805 116.969H241.741V120.455H240.199ZM241.712 114.727C241.712 115.151 241.771 115.521 241.891 115.839C242.013 116.158 242.188 116.406 242.415 116.585C242.645 116.761 242.923 116.849 243.25 116.849C243.591 116.849 243.876 116.759 244.107 116.577C244.337 116.392 244.51 116.141 244.626 115.822C244.746 115.501 244.805 115.136 244.805 114.727C244.805 114.321 244.747 113.96 244.631 113.645C244.514 113.33 244.341 113.082 244.111 112.903C243.881 112.724 243.594 112.635 243.25 112.635C242.92 112.635 242.641 112.722 242.411 112.895C242.18 113.068 242.006 113.311 241.886 113.624C241.77 113.936 241.712 114.304 241.712 114.727Z" fill="#E53935"/>
<rect x="654.5" y="100.5" width="74" height="27" rx="13.5" stroke="#E53935" stroke-opacity="0.5"/>
<path fill-rule="evenodd" clip-rule="evenodd" d="M679.333 108C680.438 108 681.333 108.895 681.333 110V118C681.333 119.105 680.438 120 679.333 120H668.667C667.562 120 666.667 119.105 666.667 118V110C666.667 108.895 667.562 108 668.667 108H679.333ZM668 118C668 118.368 668.298 118.667 668.667 118.667H679.333C679.702 118.667 680 118.368 680 118V111.882L675.031 115.047C675.023 115.052 675.016 115.057 675.008 115.061C674.703 115.238 674.356 115.331 674.003 115.331C673.651 115.331 673.304 115.238 672.999 115.061C672.991 115.057 672.983 115.052 672.975 115.047L668 111.881V118ZM668.667 109.333C668.298 109.333 668 109.632 668 110V110.3L673.672 113.91C673.773 113.968 673.887 113.998 674.003 113.998C674.119 113.998 674.233 113.968 674.333 113.91L680 110.3V110C680 109.632 679.702 109.333 679.333 109.333H668.667Z" fill="#E53935"/>
<path d="M698.331 112.217H696.737C696.692 111.956 696.608 111.724 696.486 111.523C696.364 111.318 696.212 111.145 696.03 111.003C695.848 110.861 695.641 110.754 695.408 110.683C695.178 110.609 694.929 110.572 694.662 110.572C694.188 110.572 693.767 110.692 693.401 110.93C693.034 111.166 692.747 111.513 692.54 111.97C692.332 112.425 692.229 112.98 692.229 113.636C692.229 114.304 692.332 114.866 692.54 115.324C692.75 115.778 693.037 116.122 693.401 116.355C693.767 116.585 694.186 116.7 694.658 116.7C694.919 116.7 695.163 116.666 695.391 116.598C695.621 116.527 695.827 116.423 696.009 116.287C696.193 116.151 696.348 115.983 696.473 115.784C696.601 115.585 696.689 115.358 696.737 115.102L698.331 115.111C698.271 115.526 698.142 115.915 697.943 116.278C697.747 116.642 697.49 116.963 697.172 117.241C696.854 117.517 696.482 117.733 696.055 117.889C695.629 118.043 695.156 118.119 694.636 118.119C693.869 118.119 693.185 117.942 692.582 117.587C691.98 117.232 691.506 116.719 691.159 116.048C690.813 115.378 690.639 114.574 690.639 113.636C690.639 112.696 690.814 111.892 691.163 111.224C691.513 110.554 691.989 110.041 692.591 109.686C693.193 109.331 693.875 109.153 694.636 109.153C695.122 109.153 695.574 109.222 695.991 109.358C696.409 109.494 696.781 109.695 697.108 109.959C697.435 110.22 697.703 110.541 697.913 110.922C698.126 111.3 698.266 111.732 698.331 112.217ZM701.253 114.165V118H699.711V109.273H701.219V112.567H701.296C701.449 112.197 701.686 111.906 702.007 111.693C702.331 111.477 702.743 111.369 703.243 111.369C703.698 111.369 704.094 111.464 704.432 111.655C704.77 111.845 705.032 112.124 705.216 112.49C705.404 112.857 705.498 113.304 705.498 113.832V118H703.955V114.071C703.955 113.631 703.841 113.288 703.614 113.044C703.39 112.797 703.074 112.673 702.668 112.673C702.395 112.673 702.151 112.733 701.935 112.852C701.722 112.969 701.554 113.138 701.432 113.359C701.313 113.581 701.253 113.849 701.253 114.165ZM707.07 118V111.455H708.613V118H707.07ZM707.846 110.526C707.601 110.526 707.391 110.445 707.215 110.283C707.039 110.118 706.951 109.92 706.951 109.69C706.951 109.457 707.039 109.26 707.215 109.098C707.391 108.933 707.601 108.851 707.846 108.851C708.093 108.851 708.303 108.933 708.476 109.098C708.652 109.26 708.74 109.457 708.74 109.69C708.74 109.92 708.652 110.118 708.476 110.283C708.303 110.445 708.093 110.526 707.846 110.526ZM710.199 120.455V111.455H711.716V112.537H711.805C711.885 112.378 711.997 112.209 712.142 112.03C712.287 111.848 712.483 111.693 712.73 111.565C712.977 111.435 713.293 111.369 713.676 111.369C714.182 111.369 714.638 111.499 715.044 111.757C715.453 112.013 715.777 112.392 716.016 112.895C716.257 113.395 716.378 114.009 716.378 114.736C716.378 115.455 716.26 116.065 716.024 116.568C715.788 117.071 715.467 117.455 715.061 117.719C714.655 117.983 714.195 118.115 713.68 118.115C713.305 118.115 712.994 118.053 712.747 117.928C712.5 117.803 712.301 117.652 712.151 117.476C712.003 117.297 711.888 117.128 711.805 116.969H711.741V120.455H710.199ZM711.712 114.727C711.712 115.151 711.771 115.521 711.891 115.839C712.013 116.158 712.188 116.406 712.415 116.585C712.645 116.761 712.923 116.849 713.25 116.849C713.591 116.849 713.876 116.759 714.107 116.577C714.337 116.392 714.51 116.141 714.626 115.822C714.746 115.501 714.805 115.136 714.805 114.727C714.805 114.321 714.747 113.96 714.631 113.645C714.514 113.33 714.341 113.082 714.111 112.903C713.881 112.724 713.594 112.635 713.25 112.635C712.92 112.635 712.641 112.722 712.411 112.895C712.18 113.068 712.006 113.311 711.886 113.624C711.77 113.936 711.712 114.304 711.712 114.727Z" fill="#E53935"/>
<rect x="184" y="223" width="75" height="28" rx="14" fill="#E53935" fill-opacity="0.08"/>
<rect x="184.5" y="223.5" width="74" height="27" rx="13.5" stroke="#E53935" stroke-opacity="0.2"/>
<path fill-rule="evenodd" clip-rule="evenodd" d="M209.333 231C210.438 231 211.333 231.895 211.333 233V241C211.333 242.105 210.438 243 209.333 243H198.667C197.562 243 196.667 242.105 196.667 241V233C196.667 231.895 197.562 231 198.667 231H209.333ZM198 241C198 241.368 198.298 241.667 198.667 241.667H209.333C209.702 241.667 210 241.368 210 241V234.882L205.031 238.047C205.023 238.052 205.016 238.057 205.008 238.061C204.703 238.238 204.356 238.331 204.003 238.331C203.651 238.331 203.304 238.238 202.999 238.061C202.991 238.057 202.983 238.052 202.975 238.047L198 234.881V241ZM198.667 232.333C198.298 232.333 198 232.632 198 233V233.3L203.672 236.91C203.773 236.968 203.887 236.998 204.003 236.998C204.119 236.998 204.233 236.968 204.333 236.91L210 233.3V233C210 232.632 209.702 232.333 209.333 232.333H198.667Z" fill="#E53935"/>
<path d="M228.331 235.217H226.737C226.692 234.956 226.608 234.724 226.486 234.523C226.364 234.318 226.212 234.145 226.03 234.003C225.848 233.861 225.641 233.754 225.408 233.683C225.178 233.609 224.929 233.572 224.662 233.572C224.188 233.572 223.767 233.692 223.401 233.93C223.034 234.166 222.747 234.513 222.54 234.97C222.332 235.425 222.229 235.98 222.229 236.636C222.229 237.304 222.332 237.866 222.54 238.324C222.75 238.778 223.037 239.122 223.401 239.355C223.767 239.585 224.186 239.7 224.658 239.7C224.919 239.7 225.163 239.666 225.391 239.598C225.621 239.527 225.827 239.423 226.009 239.287C226.193 239.151 226.348 238.983 226.473 238.784C226.601 238.585 226.689 238.358 226.737 238.102L228.331 238.111C228.271 238.526 228.142 238.915 227.943 239.278C227.747 239.642 227.49 239.963 227.172 240.241C226.854 240.517 226.482 240.733 226.055 240.889C225.629 241.043 225.156 241.119 224.636 241.119C223.869 241.119 223.185 240.942 222.582 240.587C221.98 240.232 221.506 239.719 221.159 239.048C220.813 238.378 220.639 237.574 220.639 236.636C220.639 235.696 220.814 234.892 221.163 234.224C221.513 233.554 221.989 233.041 222.591 232.686C223.193 232.331 223.875 232.153 224.636 232.153C225.122 232.153 225.574 232.222 225.991 232.358C226.409 232.494 226.781 232.695 227.108 232.959C227.435 233.22 227.703 233.541 227.913 233.922C228.126 234.3 228.266 234.732 228.331 235.217ZM231.253 237.165V241H229.711V232.273H231.219V235.567H231.296C231.449 235.197 231.686 234.906 232.007 234.693C232.331 234.477 232.743 234.369 233.243 234.369C233.698 234.369 234.094 234.464 234.432 234.655C234.77 234.845 235.032 235.124 235.216 235.49C235.404 235.857 235.498 236.304 235.498 236.832V241H233.955V237.071C233.955 236.631 233.841 236.288 233.614 236.044C233.39 235.797 233.074 235.673 232.668 235.673C232.395 235.673 232.151 235.733 231.935 235.852C231.722 235.969 231.554 236.138 231.432 236.359C231.313 236.581 231.253 236.849 231.253 237.165ZM237.07 241V234.455H238.613V241H237.07ZM237.846 233.526C237.601 233.526 237.391 233.445 237.215 233.283C237.039 233.118 236.951 232.92 236.951 232.69C236.951 232.457 237.039 232.26 237.215 232.098C237.391 231.933 237.601 231.851 237.846 231.851C238.093 231.851 238.303 231.933 238.476 232.098C238.652 232.26 238.74 232.457 238.74 232.69C238.74 232.92 238.652 233.118 238.476 233.283C238.303 233.445 238.093 233.526 237.846 233.526ZM240.199 243.455V234.455H241.716V235.537H241.805C241.885 235.378 241.997 235.209 242.142 235.03C242.287 234.848 242.483 234.693 242.73 234.565C242.977 234.435 243.293 234.369 243.676 234.369C244.182 234.369 244.638 234.499 245.044 234.757C245.453 235.013 245.777 235.392 246.016 235.895C246.257 236.395 246.378 237.009 246.378 237.736C246.378 238.455 246.26 239.065 246.024 239.568C245.788 240.071 245.467 240.455 245.061 240.719C244.655 240.983 244.195 241.115 243.68 241.115C243.305 241.115 242.994 241.053 242.747 240.928C242.5 240.803 242.301 240.652 242.151 240.476C242.003 240.297 241.888 240.128 241.805 239.969H241.741V243.455H240.199ZM241.712 237.727C241.712 238.151 241.771 238.521 241.891 238.839C242.013 239.158 242.188 239.406 242.415 239.585C242.645 239.761 242.923 239.849 243.25 239.849C243.591 239.849 243.876 239.759 244.107 239.577C244.337 239.392 244.51 239.141 244.626 238.822C244.746 238.501 244.805 238.136 244.805 237.727C244.805 237.321 244.747 236.96 244.631 236.645C244.514 236.33 244.341 236.082 244.111 235.903C243.881 235.724 243.594 235.635 243.25 235.635C242.92 235.635 242.641 235.722 242.411 235.895C242.18 236.068 242.006 236.311 241.886 236.624C241.77 236.936 241.712 237.304 241.712 237.727Z" fill="#E53935"/>
<rect x="654.5" y="223.5" width="74" height="27" rx="13.5" stroke="#E53935" stroke-opacity="0.2"/>
<path fill-rule="evenodd" clip-rule="evenodd" d="M679.333 231C680.438 231 681.333 231.895 681.333 233V241C681.333 242.105 680.438 243 679.333 243H668.667C667.562 243 666.667 242.105 666.667 241V233C666.667 231.895 667.562 231 668.667 231H679.333ZM668 241C668 241.368 668.298 241.667 668.667 241.667H679.333C679.702 241.667 680 241.368 680 241V234.882L675.031 238.047C675.023 238.052 675.016 238.057 675.008 238.061C674.703 238.238 674.356 238.331 674.003 238.331C673.651 238.331 673.304 238.238 672.999 238.061C672.991 238.057 672.983 238.052 672.975 238.047L668 234.881V241ZM668.667 232.333C668.298 232.333 668 232.632 668 233V233.3L673.672 236.91C673.773 236.968 673.887 236.998 674.003 236.998C674.119 236.998 674.233 236.968 674.333 236.91L680 233.3V233C680 232.632 679.702 232.333 679.333 232.333H668.667Z" fill="#E8615E"/>
<path d="M698.331 235.217H696.737C696.692 234.956 696.608 234.724 696.486 234.523C696.364 234.318 696.212 234.145 696.03 234.003C695.848 233.861 695.641 233.754 695.408 233.683C695.178 233.609 694.929 233.572 694.662 233.572C694.188 233.572 693.767 233.692 693.401 233.93C693.034 234.166 692.747 234.513 692.54 234.97C692.332 235.425 692.229 235.98 692.229 236.636C692.229 237.304 692.332 237.866 692.54 238.324C692.75 238.778 693.037 239.122 693.401 239.355C693.767 239.585 694.186 239.7 694.658 239.7C694.919 239.7 695.163 239.666 695.391 239.598C695.621 239.527 695.827 239.423 696.009 239.287C696.193 239.151 696.348 238.983 696.473 238.784C696.601 238.585 696.689 238.358 696.737 238.102L698.331 238.111C698.271 238.526 698.142 238.915 697.943 239.278C697.747 239.642 697.49 239.963 697.172 240.241C696.854 240.517 696.482 240.733 696.055 240.889C695.629 241.043 695.156 241.119 694.636 241.119C693.869 241.119 693.185 240.942 692.582 240.587C691.98 240.232 691.506 239.719 691.159 239.048C690.813 238.378 690.639 237.574 690.639 236.636C690.639 235.696 690.814 234.892 691.163 234.224C691.513 233.554 691.989 233.041 692.591 232.686C693.193 232.331 693.875 232.153 694.636 232.153C695.122 232.153 695.574 232.222 695.991 232.358C696.409 232.494 696.781 232.695 697.108 232.959C697.435 233.22 697.703 233.541 697.913 233.922C698.126 234.3 698.266 234.732 698.331 235.217ZM701.253 237.165V241H699.711V232.273H701.219V235.567H701.296C701.449 235.197 701.686 234.906 702.007 234.693C702.331 234.477 702.743 234.369 703.243 234.369C703.698 234.369 704.094 234.464 704.432 234.655C704.77 234.845 705.032 235.124 705.216 235.49C705.404 235.857 705.498 236.304 705.498 236.832V241H703.955V237.071C703.955 236.631 703.841 236.288 703.614 236.044C703.39 235.797 703.074 235.673 702.668 235.673C702.395 235.673 702.151 235.733 701.935 235.852C701.722 235.969 701.554 236.138 701.432 236.359C701.313 236.581 701.253 236.849 701.253 237.165ZM707.07 241V234.455H708.613V241H707.07ZM707.846 233.526C707.601 233.526 707.391 233.445 707.215 233.283C707.039 233.118 706.951 232.92 706.951 232.69C706.951 232.457 707.039 232.26 707.215 232.098C707.391 231.933 707.601 231.851 707.846 231.851C708.093 231.851 708.303 231.933 708.476 232.098C708.652 232.26 708.74 232.457 708.74 232.69C708.74 232.92 708.652 233.118 708.476 233.283C708.303 233.445 708.093 233.526 707.846 233.526ZM710.199 243.455V234.455H711.716V235.537H711.805C711.885 235.378 711.997 235.209 712.142 235.03C712.287 234.848 712.483 234.693 712.73 234.565C712.977 234.435 713.293 234.369 713.676 234.369C714.182 234.369 714.638 234.499 715.044 234.757C715.453 235.013 715.777 235.392 716.016 235.895C716.257 236.395 716.378 237.009 716.378 237.736C716.378 238.455 716.26 239.065 716.024 239.568C715.788 240.071 715.467 240.455 715.061 240.719C714.655 240.983 714.195 241.115 713.68 241.115C713.305 241.115 712.994 241.053 712.747 240.928C712.5 240.803 712.301 240.652 712.151 240.476C712.003 240.297 711.888 240.128 711.805 239.969H711.741V243.455H710.199ZM711.712 237.727C711.712 238.151 711.771 238.521 711.891 238.839C712.013 239.158 712.188 239.406 712.415 239.585C712.645 239.761 712.923 239.849 713.25 239.849C713.591 239.849 713.876 239.759 714.107 239.577C714.337 239.392 714.51 239.141 714.626 238.822C714.746 238.501 714.805 238.136 714.805 237.727C714.805 237.321 714.747 236.96 714.631 236.645C714.514 236.33 714.341 236.082 714.111 235.903C713.881 235.724 713.594 235.635 713.25 235.635C712.92 235.635 712.641 235.722 712.411 235.895C712.18 236.068 712.006 236.311 711.886 236.624C711.77 236.936 711.712 237.304 711.712 237.727Z" fill="#E8615E"/>
<rect x="285" y="100" width="75" height="28" rx="14" fill="#ED6C02" fill-opacity="0.2"/>
<rect x="285.5" y="100.5" width="74" height="27" rx="13.5" stroke="#ED6C02" stroke-opacity="0.5"/>
<path fill-rule="evenodd" clip-rule="evenodd" d="M310.333 108C311.438 108 312.333 108.895 312.333 110V118C312.333 119.105 311.438 120 310.333 120H299.667C298.562 120 297.667 119.105 297.667 118V110C297.667 108.895 298.562 108 299.667 108H310.333ZM299 118C299 118.368 299.298 118.667 299.667 118.667H310.333C310.702 118.667 311 118.368 311 118V111.882L306.031 115.047C306.023 115.052 306.016 115.057 306.008 115.061C305.703 115.238 305.356 115.331 305.003 115.331C304.651 115.331 304.304 115.238 303.999 115.061C303.991 115.057 303.983 115.052 303.975 115.047L299 111.881V118ZM299.667 109.333C299.298 109.333 299 109.632 299 110V110.3L304.672 113.91C304.773 113.968 304.887 113.998 305.003 113.998C305.119 113.998 305.233 113.968 305.333 113.91L311 110.3V110C311 109.632 310.702 109.333 310.333 109.333H299.667Z" fill="#ED6C02"/>
<path d="M329.331 112.217H327.737C327.692 111.956 327.608 111.724 327.486 111.523C327.364 111.318 327.212 111.145 327.03 111.003C326.848 110.861 326.641 110.754 326.408 110.683C326.178 110.609 325.929 110.572 325.662 110.572C325.188 110.572 324.767 110.692 324.401 110.93C324.034 111.166 323.747 111.513 323.54 111.97C323.332 112.425 323.229 112.98 323.229 113.636C323.229 114.304 323.332 114.866 323.54 115.324C323.75 115.778 324.037 116.122 324.401 116.355C324.767 116.585 325.186 116.7 325.658 116.7C325.919 116.7 326.163 116.666 326.391 116.598C326.621 116.527 326.827 116.423 327.009 116.287C327.193 116.151 327.348 115.983 327.473 115.784C327.601 115.585 327.689 115.358 327.737 115.102L329.331 115.111C329.271 115.526 329.142 115.915 328.943 116.278C328.747 116.642 328.49 116.963 328.172 117.241C327.854 117.517 327.482 117.733 327.055 117.889C326.629 118.043 326.156 118.119 325.636 118.119C324.869 118.119 324.185 117.942 323.582 117.587C322.98 117.232 322.506 116.719 322.159 116.048C321.813 115.378 321.639 114.574 321.639 113.636C321.639 112.696 321.814 111.892 322.163 111.224C322.513 110.554 322.989 110.041 323.591 109.686C324.193 109.331 324.875 109.153 325.636 109.153C326.122 109.153 326.574 109.222 326.991 109.358C327.409 109.494 327.781 109.695 328.108 109.959C328.435 110.22 328.703 110.541 328.913 110.922C329.126 111.3 329.266 111.732 329.331 112.217ZM332.253 114.165V118H330.711V109.273H332.219V112.567H332.296C332.449 112.197 332.686 111.906 333.007 111.693C333.331 111.477 333.743 111.369 334.243 111.369C334.698 111.369 335.094 111.464 335.432 111.655C335.77 111.845 336.032 112.124 336.216 112.49C336.404 112.857 336.498 113.304 336.498 113.832V118H334.955V114.071C334.955 113.631 334.841 113.288 334.614 113.044C334.39 112.797 334.074 112.673 333.668 112.673C333.395 112.673 333.151 112.733 332.935 112.852C332.722 112.969 332.554 113.138 332.432 113.359C332.313 113.581 332.253 113.849 332.253 114.165ZM338.07 118V111.455H339.613V118H338.07ZM338.846 110.526C338.601 110.526 338.391 110.445 338.215 110.283C338.039 110.118 337.951 109.92 337.951 109.69C337.951 109.457 338.039 109.26 338.215 109.098C338.391 108.933 338.601 108.851 338.846 108.851C339.093 108.851 339.303 108.933 339.476 109.098C339.652 109.26 339.74 109.457 339.74 109.69C339.74 109.92 339.652 110.118 339.476 110.283C339.303 110.445 339.093 110.526 338.846 110.526ZM341.199 120.455V111.455H342.716V112.537H342.805C342.885 112.378 342.997 112.209 343.142 112.03C343.287 111.848 343.483 111.693 343.73 111.565C343.977 111.435 344.293 111.369 344.676 111.369C345.182 111.369 345.638 111.499 346.044 111.757C346.453 112.013 346.777 112.392 347.016 112.895C347.257 113.395 347.378 114.009 347.378 114.736C347.378 115.455 347.26 116.065 347.024 116.568C346.788 117.071 346.467 117.455 346.061 117.719C345.655 117.983 345.195 118.115 344.68 118.115C344.305 118.115 343.994 118.053 343.747 117.928C343.5 117.803 343.301 117.652 343.151 117.476C343.003 117.297 342.888 117.128 342.805 116.969H342.741V120.455H341.199ZM342.712 114.727C342.712 115.151 342.771 115.521 342.891 115.839C343.013 116.158 343.188 116.406 343.415 116.585C343.645 116.761 343.923 116.849 344.25 116.849C344.591 116.849 344.876 116.759 345.107 116.577C345.337 116.392 345.51 116.141 345.626 115.822C345.746 115.501 345.805 115.136 345.805 114.727C345.805 114.321 345.747 113.96 345.631 113.645C345.514 113.33 345.341 113.082 345.111 112.903C344.881 112.724 344.594 112.635 344.25 112.635C343.92 112.635 343.641 112.722 343.411 112.895C343.18 113.068 343.006 113.311 342.886 113.624C342.77 113.936 342.712 114.304 342.712 114.727Z" fill="#ED6C02"/>
<rect x="755.5" y="100.5" width="74" height="27" rx="13.5" stroke="#ED6C02" stroke-opacity="0.5"/>
<path fill-rule="evenodd" clip-rule="evenodd" d="M780.333 108C781.438 108 782.333 108.895 782.333 110V118C782.333 119.105 781.438 120 780.333 120H769.667C768.562 120 767.667 119.105 767.667 118V110C767.667 108.895 768.562 108 769.667 108H780.333ZM769 118C769 118.368 769.298 118.667 769.667 118.667H780.333C780.702 118.667 781 118.368 781 118V111.882L776.031 115.047C776.023 115.052 776.016 115.057 776.008 115.061C775.703 115.238 775.356 115.331 775.003 115.331C774.651 115.331 774.304 115.238 773.999 115.061C773.991 115.057 773.983 115.052 773.975 115.047L769 111.881V118ZM769.667 109.333C769.298 109.333 769 109.632 769 110V110.3L774.672 113.91C774.773 113.968 774.887 113.998 775.003 113.998C775.119 113.998 775.233 113.968 775.333 113.91L781 110.3V110C781 109.632 780.702 109.333 780.333 109.333H769.667Z" fill="#ED6C02"/>
<path d="M799.331 112.217H797.737C797.692 111.956 797.608 111.724 797.486 111.523C797.364 111.318 797.212 111.145 797.03 111.003C796.848 110.861 796.641 110.754 796.408 110.683C796.178 110.609 795.929 110.572 795.662 110.572C795.188 110.572 794.767 110.692 794.401 110.93C794.034 111.166 793.747 111.513 793.54 111.97C793.332 112.425 793.229 112.98 793.229 113.636C793.229 114.304 793.332 114.866 793.54 115.324C793.75 115.778 794.037 116.122 794.401 116.355C794.767 116.585 795.186 116.7 795.658 116.7C795.919 116.7 796.163 116.666 796.391 116.598C796.621 116.527 796.827 116.423 797.009 116.287C797.193 116.151 797.348 115.983 797.473 115.784C797.601 115.585 797.689 115.358 797.737 115.102L799.331 115.111C799.271 115.526 799.142 115.915 798.943 116.278C798.747 116.642 798.49 116.963 798.172 117.241C797.854 117.517 797.482 117.733 797.055 117.889C796.629 118.043 796.156 118.119 795.636 118.119C794.869 118.119 794.185 117.942 793.582 117.587C792.98 117.232 792.506 116.719 792.159 116.048C791.813 115.378 791.639 114.574 791.639 113.636C791.639 112.696 791.814 111.892 792.163 111.224C792.513 110.554 792.989 110.041 793.591 109.686C794.193 109.331 794.875 109.153 795.636 109.153C796.122 109.153 796.574 109.222 796.991 109.358C797.409 109.494 797.781 109.695 798.108 109.959C798.435 110.22 798.703 110.541 798.913 110.922C799.126 111.3 799.266 111.732 799.331 112.217ZM802.253 114.165V118H800.711V109.273H802.219V112.567H802.296C802.449 112.197 802.686 111.906 803.007 111.693C803.331 111.477 803.743 111.369 804.243 111.369C804.698 111.369 805.094 111.464 805.432 111.655C805.77 111.845 806.032 112.124 806.216 112.49C806.404 112.857 806.498 113.304 806.498 113.832V118H804.955V114.071C804.955 113.631 804.841 113.288 804.614 113.044C804.39 112.797 804.074 112.673 803.668 112.673C803.395 112.673 803.151 112.733 802.935 112.852C802.722 112.969 802.554 113.138 802.432 113.359C802.313 113.581 802.253 113.849 802.253 114.165ZM808.07 118V111.455H809.613V118H808.07ZM808.846 110.526C808.601 110.526 808.391 110.445 808.215 110.283C808.039 110.118 807.951 109.92 807.951 109.69C807.951 109.457 808.039 109.26 808.215 109.098C808.391 108.933 808.601 108.851 808.846 108.851C809.093 108.851 809.303 108.933 809.476 109.098C809.652 109.26 809.74 109.457 809.74 109.69C809.74 109.92 809.652 110.118 809.476 110.283C809.303 110.445 809.093 110.526 808.846 110.526ZM811.199 120.455V111.455H812.716V112.537H812.805C812.885 112.378 812.997 112.209 813.142 112.03C813.287 111.848 813.483 111.693 813.73 111.565C813.977 111.435 814.293 111.369 814.676 111.369C815.182 111.369 815.638 111.499 816.044 111.757C816.453 112.013 816.777 112.392 817.016 112.895C817.257 113.395 817.378 114.009 817.378 114.736C817.378 115.455 817.26 116.065 817.024 116.568C816.788 117.071 816.467 117.455 816.061 117.719C815.655 117.983 815.195 118.115 814.68 118.115C814.305 118.115 813.994 118.053 813.747 117.928C813.5 117.803 813.301 117.652 813.151 117.476C813.003 117.297 812.888 117.128 812.805 116.969H812.741V120.455H811.199ZM812.712 114.727C812.712 115.151 812.771 115.521 812.891 115.839C813.013 116.158 813.188 116.406 813.415 116.585C813.645 116.761 813.923 116.849 814.25 116.849C814.591 116.849 814.876 116.759 815.107 116.577C815.337 116.392 815.51 116.141 815.626 115.822C815.746 115.501 815.805 115.136 815.805 114.727C815.805 114.321 815.747 113.96 815.631 113.645C815.514 113.33 815.341 113.082 815.111 112.903C814.881 112.724 814.594 112.635 814.25 112.635C813.92 112.635 813.641 112.722 813.411 112.895C813.18 113.068 813.006 113.311 812.886 113.624C812.77 113.936 812.712 114.304 812.712 114.727Z" fill="#ED6C02"/>
<rect x="285" y="223" width="75" height="28" rx="14" fill="#ED6C02" fill-opacity="0.08"/>
<rect x="285.5" y="223.5" width="74" height="27" rx="13.5" stroke="#ED6C02" stroke-opacity="0.2"/>
<path fill-rule="evenodd" clip-rule="evenodd" d="M310.333 231C311.438 231 312.333 231.895 312.333 233V241C312.333 242.105 311.438 243 310.333 243H299.667C298.562 243 297.667 242.105 297.667 241V233C297.667 231.895 298.562 231 299.667 231H310.333ZM299 241C299 241.368 299.298 241.667 299.667 241.667H310.333C310.702 241.667 311 241.368 311 241V234.882L306.031 238.047C306.023 238.052 306.016 238.057 306.008 238.061C305.703 238.238 305.356 238.331 305.003 238.331C304.651 238.331 304.304 238.238 303.999 238.061C303.991 238.057 303.983 238.052 303.975 238.047L299 234.881V241ZM299.667 232.333C299.298 232.333 299 232.632 299 233V233.3L304.672 236.91C304.773 236.968 304.887 236.998 305.003 236.998C305.119 236.998 305.233 236.968 305.333 236.91L311 233.3V233C311 232.632 310.702 232.333 310.333 232.333H299.667Z" fill="#ED6C02"/>
<path d="M329.331 235.217H327.737C327.692 234.956 327.608 234.724 327.486 234.523C327.364 234.318 327.212 234.145 327.03 234.003C326.848 233.861 326.641 233.754 326.408 233.683C326.178 233.609 325.929 233.572 325.662 233.572C325.188 233.572 324.767 233.692 324.401 233.93C324.034 234.166 323.747 234.513 323.54 234.97C323.332 235.425 323.229 235.98 323.229 236.636C323.229 237.304 323.332 237.866 323.54 238.324C323.75 238.778 324.037 239.122 324.401 239.355C324.767 239.585 325.186 239.7 325.658 239.7C325.919 239.7 326.163 239.666 326.391 239.598C326.621 239.527 326.827 239.423 327.009 239.287C327.193 239.151 327.348 238.983 327.473 238.784C327.601 238.585 327.689 238.358 327.737 238.102L329.331 238.111C329.271 238.526 329.142 238.915 328.943 239.278C328.747 239.642 328.49 239.963 328.172 240.241C327.854 240.517 327.482 240.733 327.055 240.889C326.629 241.043 326.156 241.119 325.636 241.119C324.869 241.119 324.185 240.942 323.582 240.587C322.98 240.232 322.506 239.719 322.159 239.048C321.813 238.378 321.639 237.574 321.639 236.636C321.639 235.696 321.814 234.892 322.163 234.224C322.513 233.554 322.989 233.041 323.591 232.686C324.193 232.331 324.875 232.153 325.636 232.153C326.122 232.153 326.574 232.222 326.991 232.358C327.409 232.494 327.781 232.695 328.108 232.959C328.435 233.22 328.703 233.541 328.913 233.922C329.126 234.3 329.266 234.732 329.331 235.217ZM332.253 237.165V241H330.711V232.273H332.219V235.567H332.296C332.449 235.197 332.686 234.906 333.007 234.693C333.331 234.477 333.743 234.369 334.243 234.369C334.698 234.369 335.094 234.464 335.432 234.655C335.77 234.845 336.032 235.124 336.216 235.49C336.404 235.857 336.498 236.304 336.498 236.832V241H334.955V237.071C334.955 236.631 334.841 236.288 334.614 236.044C334.39 235.797 334.074 235.673 333.668 235.673C333.395 235.673 333.151 235.733 332.935 235.852C332.722 235.969 332.554 236.138 332.432 236.359C332.313 236.581 332.253 236.849 332.253 237.165ZM338.07 241V234.455H339.613V241H338.07ZM338.846 233.526C338.601 233.526 338.391 233.445 338.215 233.283C338.039 233.118 337.951 232.92 337.951 232.69C337.951 232.457 338.039 232.26 338.215 232.098C338.391 231.933 338.601 231.851 338.846 231.851C339.093 231.851 339.303 231.933 339.476 232.098C339.652 232.26 339.74 232.457 339.74 232.69C339.74 232.92 339.652 233.118 339.476 233.283C339.303 233.445 339.093 233.526 338.846 233.526ZM341.199 243.455V234.455H342.716V235.537H342.805C342.885 235.378 342.997 235.209 343.142 235.03C343.287 234.848 343.483 234.693 343.73 234.565C343.977 234.435 344.293 234.369 344.676 234.369C345.182 234.369 345.638 234.499 346.044 234.757C346.453 235.013 346.777 235.392 347.016 235.895C347.257 236.395 347.378 237.009 347.378 237.736C347.378 238.455 347.26 239.065 347.024 239.568C346.788 240.071 346.467 240.455 346.061 240.719C345.655 240.983 345.195 241.115 344.68 241.115C344.305 241.115 343.994 241.053 343.747 240.928C343.5 240.803 343.301 240.652 343.151 240.476C343.003 240.297 342.888 240.128 342.805 239.969H342.741V243.455H341.199ZM342.712 237.727C342.712 238.151 342.771 238.521 342.891 238.839C343.013 239.158 343.188 239.406 343.415 239.585C343.645 239.761 343.923 239.849 344.25 239.849C344.591 239.849 344.876 239.759 345.107 239.577C345.337 239.392 345.51 239.141 345.626 238.822C345.746 238.501 345.805 238.136 345.805 237.727C345.805 237.321 345.747 236.96 345.631 236.645C345.514 236.33 345.341 236.082 345.111 235.903C344.881 235.724 344.594 235.635 344.25 235.635C343.92 235.635 343.641 235.722 343.411 235.895C343.18 236.068 343.006 236.311 342.886 236.624C342.77 236.936 342.712 237.304 342.712 237.727Z" fill="#ED6C02"/>
<rect x="755.5" y="223.5" width="74" height="27" rx="13.5" stroke="#ED6C02" stroke-opacity="0.2"/>
<path fill-rule="evenodd" clip-rule="evenodd" d="M780.333 231C781.438 231 782.333 231.895 782.333 233V241C782.333 242.105 781.438 243 780.333 243H769.667C768.562 243 767.667 242.105 767.667 241V233C767.667 231.895 768.562 231 769.667 231H780.333ZM769 241C769 241.368 769.298 241.667 769.667 241.667H780.333C780.702 241.667 781 241.368 781 241V234.882L776.031 238.047C776.023 238.052 776.016 238.057 776.008 238.061C775.703 238.238 775.356 238.331 775.003 238.331C774.651 238.331 774.304 238.238 773.999 238.061C773.991 238.057 773.983 238.052 773.975 238.047L769 234.881V241ZM769.667 232.333C769.298 232.333 769 232.632 769 233V233.3L774.672 236.91C774.773 236.968 774.887 236.998 775.003 236.998C775.119 236.998 775.233 236.968 775.333 236.91L781 233.3V233C781 232.632 780.702 232.333 780.333 232.333H769.667Z" fill="#ED6C02"/>
<path d="M799.331 235.217H797.737C797.692 234.956 797.608 234.724 797.486 234.523C797.364 234.318 797.212 234.145 797.03 234.003C796.848 233.861 796.641 233.754 796.408 233.683C796.178 233.609 795.929 233.572 795.662 233.572C795.188 233.572 794.767 233.692 794.401 233.93C794.034 234.166 793.747 234.513 793.54 234.97C793.332 235.425 793.229 235.98 793.229 236.636C793.229 237.304 793.332 237.866 793.54 238.324C793.75 238.778 794.037 239.122 794.401 239.355C794.767 239.585 795.186 239.7 795.658 239.7C795.919 239.7 796.163 239.666 796.391 239.598C796.621 239.527 796.827 239.423 797.009 239.287C797.193 239.151 797.348 238.983 797.473 238.784C797.601 238.585 797.689 238.358 797.737 238.102L799.331 238.111C799.271 238.526 799.142 238.915 798.943 239.278C798.747 239.642 798.49 239.963 798.172 240.241C797.854 240.517 797.482 240.733 797.055 240.889C796.629 241.043 796.156 241.119 795.636 241.119C794.869 241.119 794.185 240.942 793.582 240.587C792.98 240.232 792.506 239.719 792.159 239.048C791.813 238.378 791.639 237.574 791.639 236.636C791.639 235.696 791.814 234.892 792.163 234.224C792.513 233.554 792.989 233.041 793.591 232.686C794.193 232.331 794.875 232.153 795.636 232.153C796.122 232.153 796.574 232.222 796.991 232.358C797.409 232.494 797.781 232.695 798.108 232.959C798.435 233.22 798.703 233.541 798.913 233.922C799.126 234.3 799.266 234.732 799.331 235.217ZM802.253 237.165V241H800.711V232.273H802.219V235.567H802.296C802.449 235.197 802.686 234.906 803.007 234.693C803.331 234.477 803.743 234.369 804.243 234.369C804.698 234.369 805.094 234.464 805.432 234.655C805.77 234.845 806.032 235.124 806.216 235.49C806.404 235.857 806.498 236.304 806.498 236.832V241H804.955V237.071C804.955 236.631 804.841 236.288 804.614 236.044C804.39 235.797 804.074 235.673 803.668 235.673C803.395 235.673 803.151 235.733 802.935 235.852C802.722 235.969 802.554 236.138 802.432 236.359C802.313 236.581 802.253 236.849 802.253 237.165ZM808.07 241V234.455H809.613V241H808.07ZM808.846 233.526C808.601 233.526 808.391 233.445 808.215 233.283C808.039 233.118 807.951 232.92 807.951 232.69C807.951 232.457 808.039 232.26 808.215 232.098C808.391 231.933 808.601 231.851 808.846 231.851C809.093 231.851 809.303 231.933 809.476 232.098C809.652 232.26 809.74 232.457 809.74 232.69C809.74 232.92 809.652 233.118 809.476 233.283C809.303 233.445 809.093 233.526 808.846 233.526ZM811.199 243.455V234.455H812.716V235.537H812.805C812.885 235.378 812.997 235.209 813.142 235.03C813.287 234.848 813.483 234.693 813.73 234.565C813.977 234.435 814.293 234.369 814.676 234.369C815.182 234.369 815.638 234.499 816.044 234.757C816.453 235.013 816.777 235.392 817.016 235.895C817.257 236.395 817.378 237.009 817.378 237.736C817.378 238.455 817.26 239.065 817.024 239.568C816.788 240.071 816.467 240.455 816.061 240.719C815.655 240.983 815.195 241.115 814.68 241.115C814.305 241.115 813.994 241.053 813.747 240.928C813.5 240.803 813.301 240.652 813.151 240.476C813.003 240.297 812.888 240.128 812.805 239.969H812.741V243.455H811.199ZM812.712 237.727C812.712 238.151 812.771 238.521 812.891 238.839C813.013 239.158 813.188 239.406 813.415 239.585C813.645 239.761 813.923 239.849 814.25 239.849C814.591 239.849 814.876 239.759 815.107 239.577C815.337 239.392 815.51 239.141 815.626 238.822C815.746 238.501 815.805 238.136 815.805 237.727C815.805 237.321 815.747 236.96 815.631 236.645C815.514 236.33 815.341 236.082 815.111 235.903C814.881 235.724 814.594 235.635 814.25 235.635C813.92 235.635 813.641 235.722 813.411 235.895C813.18 236.068 813.006 236.311 812.886 236.624C812.77 236.936 812.712 237.304 812.712 237.727Z" fill="#ED6C02"/>
<rect x="379" y="100" width="75" height="28" rx="14" fill="#85837A" fill-opacity="0.2"/>
<rect x="379.5" y="100.5" width="74" height="27" rx="13.5" stroke="#85837A" stroke-opacity="0.5"/>
<path fill-rule="evenodd" clip-rule="evenodd" d="M404.333 108C405.438 108 406.333 108.895 406.333 110V118C406.333 119.105 405.438 120 404.333 120H393.667C392.562 120 391.667 119.105 391.667 118V110C391.667 108.895 392.562 108 393.667 108H404.333ZM393 118C393 118.368 393.298 118.667 393.667 118.667H404.333C404.702 118.667 405 118.368 405 118V111.882L400.031 115.047C400.023 115.052 400.016 115.057 400.008 115.061C399.703 115.238 399.356 115.331 399.003 115.331C398.651 115.331 398.304 115.238 397.999 115.061C397.991 115.057 397.983 115.052 397.975 115.047L393 111.881V118ZM393.667 109.333C393.298 109.333 393 109.632 393 110V110.3L398.672 113.91C398.773 113.968 398.887 113.998 399.003 113.998C399.119 113.998 399.233 113.968 399.333 113.91L405 110.3V110C405 109.632 404.702 109.333 404.333 109.333H393.667Z" fill="#403F3B"/>
<path d="M423.331 112.217H421.737C421.692 111.956 421.608 111.724 421.486 111.523C421.364 111.318 421.212 111.145 421.03 111.003C420.848 110.861 420.641 110.754 420.408 110.683C420.178 110.609 419.929 110.572 419.662 110.572C419.188 110.572 418.767 110.692 418.401 110.93C418.034 111.166 417.747 111.513 417.54 111.97C417.332 112.425 417.229 112.98 417.229 113.636C417.229 114.304 417.332 114.866 417.54 115.324C417.75 115.778 418.037 116.122 418.401 116.355C418.767 116.585 419.186 116.7 419.658 116.7C419.919 116.7 420.163 116.666 420.391 116.598C420.621 116.527 420.827 116.423 421.009 116.287C421.193 116.151 421.348 115.983 421.473 115.784C421.601 115.585 421.689 115.358 421.737 115.102L423.331 115.111C423.271 115.526 423.142 115.915 422.943 116.278C422.747 116.642 422.49 116.963 422.172 117.241C421.854 117.517 421.482 117.733 421.055 117.889C420.629 118.043 420.156 118.119 419.636 118.119C418.869 118.119 418.185 117.942 417.582 117.587C416.98 117.232 416.506 116.719 416.159 116.048C415.813 115.378 415.639 114.574 415.639 113.636C415.639 112.696 415.814 111.892 416.163 111.224C416.513 110.554 416.989 110.041 417.591 109.686C418.193 109.331 418.875 109.153 419.636 109.153C420.122 109.153 420.574 109.222 420.991 109.358C421.409 109.494 421.781 109.695 422.108 109.959C422.435 110.22 422.703 110.541 422.913 110.922C423.126 111.3 423.266 111.732 423.331 112.217ZM426.253 114.165V118H424.711V109.273H426.219V112.567H426.296C426.449 112.197 426.686 111.906 427.007 111.693C427.331 111.477 427.743 111.369 428.243 111.369C428.698 111.369 429.094 111.464 429.432 111.655C429.77 111.845 430.032 112.124 430.216 112.49C430.404 112.857 430.498 113.304 430.498 113.832V118H428.955V114.071C428.955 113.631 428.841 113.288 428.614 113.044C428.39 112.797 428.074 112.673 427.668 112.673C427.395 112.673 427.151 112.733 426.935 112.852C426.722 112.969 426.554 113.138 426.432 113.359C426.313 113.581 426.253 113.849 426.253 114.165ZM432.07 118V111.455H433.613V118H432.07ZM432.846 110.526C432.601 110.526 432.391 110.445 432.215 110.283C432.039 110.118 431.951 109.92 431.951 109.69C431.951 109.457 432.039 109.26 432.215 109.098C432.391 108.933 432.601 108.851 432.846 108.851C433.093 108.851 433.303 108.933 433.476 109.098C433.652 109.26 433.74 109.457 433.74 109.69C433.74 109.92 433.652 110.118 433.476 110.283C433.303 110.445 433.093 110.526 432.846 110.526ZM435.199 120.455V111.455H436.716V112.537H436.805C436.885 112.378 436.997 112.209 437.142 112.03C437.287 111.848 437.483 111.693 437.73 111.565C437.977 111.435 438.293 111.369 438.676 111.369C439.182 111.369 439.638 111.499 440.044 111.757C440.453 112.013 440.777 112.392 441.016 112.895C441.257 113.395 441.378 114.009 441.378 114.736C441.378 115.455 441.26 116.065 441.024 116.568C440.788 117.071 440.467 117.455 440.061 117.719C439.655 117.983 439.195 118.115 438.68 118.115C438.305 118.115 437.994 118.053 437.747 117.928C437.5 117.803 437.301 117.652 437.151 117.476C437.003 117.297 436.888 117.128 436.805 116.969H436.741V120.455H435.199ZM436.712 114.727C436.712 115.151 436.771 115.521 436.891 115.839C437.013 116.158 437.188 116.406 437.415 116.585C437.645 116.761 437.923 116.849 438.25 116.849C438.591 116.849 438.876 116.759 439.107 116.577C439.337 116.392 439.51 116.141 439.626 115.822C439.746 115.501 439.805 115.136 439.805 114.727C439.805 114.321 439.747 113.96 439.631 113.645C439.514 113.33 439.341 113.082 439.111 112.903C438.881 112.724 438.594 112.635 438.25 112.635C437.92 112.635 437.641 112.722 437.411 112.895C437.18 113.068 437.006 113.311 436.886 113.624C436.77 113.936 436.712 114.304 436.712 114.727Z" fill="#403F3B"/>
<rect x="849.5" y="100.5" width="74" height="27" rx="13.5" stroke="#85837A" stroke-opacity="0.5"/>
<path fill-rule="evenodd" clip-rule="evenodd" d="M874.333 108C875.438 108 876.333 108.895 876.333 110V118C876.333 119.105 875.438 120 874.333 120H863.667C862.562 120 861.667 119.105 861.667 118V110C861.667 108.895 862.562 108 863.667 108H874.333ZM863 118C863 118.368 863.298 118.667 863.667 118.667H874.333C874.702 118.667 875 118.368 875 118V111.882L870.031 115.047C870.023 115.052 870.016 115.057 870.008 115.061C869.703 115.238 869.356 115.331 869.003 115.331C868.651 115.331 868.304 115.238 867.999 115.061C867.991 115.057 867.983 115.052 867.975 115.047L863 111.881V118ZM863.667 109.333C863.298 109.333 863 109.632 863 110V110.3L868.672 113.91C868.773 113.968 868.887 113.998 869.003 113.998C869.119 113.998 869.233 113.968 869.333 113.91L875 110.3V110C875 109.632 874.702 109.333 874.333 109.333H863.667Z" fill="#403F3B"/>
<path d="M893.331 112.217H891.737C891.692 111.956 891.608 111.724 891.486 111.523C891.364 111.318 891.212 111.145 891.03 111.003C890.848 110.861 890.641 110.754 890.408 110.683C890.178 110.609 889.929 110.572 889.662 110.572C889.188 110.572 888.767 110.692 888.401 110.93C888.034 111.166 887.747 111.513 887.54 111.97C887.332 112.425 887.229 112.98 887.229 113.636C887.229 114.304 887.332 114.866 887.54 115.324C887.75 115.778 888.037 116.122 888.401 116.355C888.767 116.585 889.186 116.7 889.658 116.7C889.919 116.7 890.163 116.666 890.391 116.598C890.621 116.527 890.827 116.423 891.009 116.287C891.193 116.151 891.348 115.983 891.473 115.784C891.601 115.585 891.689 115.358 891.737 115.102L893.331 115.111C893.271 115.526 893.142 115.915 892.943 116.278C892.747 116.642 892.49 116.963 892.172 117.241C891.854 117.517 891.482 117.733 891.055 117.889C890.629 118.043 890.156 118.119 889.636 118.119C888.869 118.119 888.185 117.942 887.582 117.587C886.98 117.232 886.506 116.719 886.159 116.048C885.813 115.378 885.639 114.574 885.639 113.636C885.639 112.696 885.814 111.892 886.163 111.224C886.513 110.554 886.989 110.041 887.591 109.686C888.193 109.331 888.875 109.153 889.636 109.153C890.122 109.153 890.574 109.222 890.991 109.358C891.409 109.494 891.781 109.695 892.108 109.959C892.435 110.22 892.703 110.541 892.913 110.922C893.126 111.3 893.266 111.732 893.331 112.217ZM896.253 114.165V118H894.711V109.273H896.219V112.567H896.296C896.449 112.197 896.686 111.906 897.007 111.693C897.331 111.477 897.743 111.369 898.243 111.369C898.698 111.369 899.094 111.464 899.432 111.655C899.77 111.845 900.032 112.124 900.216 112.49C900.404 112.857 900.498 113.304 900.498 113.832V118H898.955V114.071C898.955 113.631 898.841 113.288 898.614 113.044C898.39 112.797 898.074 112.673 897.668 112.673C897.395 112.673 897.151 112.733 896.935 112.852C896.722 112.969 896.554 113.138 896.432 113.359C896.313 113.581 896.253 113.849 896.253 114.165ZM902.07 118V111.455H903.613V118H902.07ZM902.846 110.526C902.601 110.526 902.391 110.445 902.215 110.283C902.039 110.118 901.951 109.92 901.951 109.69C901.951 109.457 902.039 109.26 902.215 109.098C902.391 108.933 902.601 108.851 902.846 108.851C903.093 108.851 903.303 108.933 903.476 109.098C903.652 109.26 903.74 109.457 903.74 109.69C903.74 109.92 903.652 110.118 903.476 110.283C903.303 110.445 903.093 110.526 902.846 110.526ZM905.199 120.455V111.455H906.716V112.537H906.805C906.885 112.378 906.997 112.209 907.142 112.03C907.287 111.848 907.483 111.693 907.73 111.565C907.977 111.435 908.293 111.369 908.676 111.369C909.182 111.369 909.638 111.499 910.044 111.757C910.453 112.013 910.777 112.392 911.016 112.895C911.257 113.395 911.378 114.009 911.378 114.736C911.378 115.455 911.26 116.065 911.024 116.568C910.788 117.071 910.467 117.455 910.061 117.719C909.655 117.983 909.195 118.115 908.68 118.115C908.305 118.115 907.994 118.053 907.747 117.928C907.5 117.803 907.301 117.652 907.151 117.476C907.003 117.297 906.888 117.128 906.805 116.969H906.741V120.455H905.199ZM906.712 114.727C906.712 115.151 906.771 115.521 906.891 115.839C907.013 116.158 907.188 116.406 907.415 116.585C907.645 116.761 907.923 116.849 908.25 116.849C908.591 116.849 908.876 116.759 909.107 116.577C909.337 116.392 909.51 116.141 909.626 115.822C909.746 115.501 909.805 115.136 909.805 114.727C909.805 114.321 909.747 113.96 909.631 113.645C909.514 113.33 909.341 113.082 909.111 112.903C908.881 112.724 908.594 112.635 908.25 112.635C907.92 112.635 907.641 112.722 907.411 112.895C907.18 113.068 907.006 113.311 906.886 113.624C906.77 113.936 906.712 114.304 906.712 114.727Z" fill="#403F3B"/>
<rect x="379" y="223" width="75" height="28" rx="14" fill="#85837A" fill-opacity="0.08"/>
<rect x="379.5" y="223.5" width="74" height="27" rx="13.5" stroke="#85837A" stroke-opacity="0.2"/>
<path fill-rule="evenodd" clip-rule="evenodd" d="M404.333 231C405.438 231 406.333 231.895 406.333 233V241C406.333 242.105 405.438 243 404.333 243H393.667C392.562 243 391.667 242.105 391.667 241V233C391.667 231.895 392.562 231 393.667 231H404.333ZM393 241C393 241.368 393.298 241.667 393.667 241.667H404.333C404.702 241.667 405 241.368 405 241V234.882L400.031 238.047C400.023 238.052 400.016 238.057 400.008 238.061C399.703 238.238 399.356 238.331 399.003 238.331C398.651 238.331 398.304 238.238 397.999 238.061C397.991 238.057 397.983 238.052 397.975 238.047L393 234.881V241ZM393.667 232.333C393.298 232.333 393 232.632 393 233V233.3L398.672 236.91C398.773 236.968 398.887 236.998 399.003 236.998C399.119 236.998 399.233 236.968 399.333 236.91L405 233.3V233C405 232.632 404.702 232.333 404.333 232.333H393.667Z" fill="#403F3B"/>
<path d="M423.331 235.217H421.737C421.692 234.956 421.608 234.724 421.486 234.523C421.364 234.318 421.212 234.145 421.03 234.003C420.848 233.861 420.641 233.754 420.408 233.683C420.178 233.609 419.929 233.572 419.662 233.572C419.188 233.572 418.767 233.692 418.401 233.93C418.034 234.166 417.747 234.513 417.54 234.97C417.332 235.425 417.229 235.98 417.229 236.636C417.229 237.304 417.332 237.866 417.54 238.324C417.75 238.778 418.037 239.122 418.401 239.355C418.767 239.585 419.186 239.7 419.658 239.7C419.919 239.7 420.163 239.666 420.391 239.598C420.621 239.527 420.827 239.423 421.009 239.287C421.193 239.151 421.348 238.983 421.473 238.784C421.601 238.585 421.689 238.358 421.737 238.102L423.331 238.111C423.271 238.526 423.142 238.915 422.943 239.278C422.747 239.642 422.49 239.963 422.172 240.241C421.854 240.517 421.482 240.733 421.055 240.889C420.629 241.043 420.156 241.119 419.636 241.119C418.869 241.119 418.185 240.942 417.582 240.587C416.98 240.232 416.506 239.719 416.159 239.048C415.813 238.378 415.639 237.574 415.639 236.636C415.639 235.696 415.814 234.892 416.163 234.224C416.513 233.554 416.989 233.041 417.591 232.686C418.193 232.331 418.875 232.153 419.636 232.153C420.122 232.153 420.574 232.222 420.991 232.358C421.409 232.494 421.781 232.695 422.108 232.959C422.435 233.22 422.703 233.541 422.913 233.922C423.126 234.3 423.266 234.732 423.331 235.217ZM426.253 237.165V241H424.711V232.273H426.219V235.567H426.296C426.449 235.197 426.686 234.906 427.007 234.693C427.331 234.477 427.743 234.369 428.243 234.369C428.698 234.369 429.094 234.464 429.432 234.655C429.77 234.845 430.032 235.124 430.216 235.49C430.404 235.857 430.498 236.304 430.498 236.832V241H428.955V237.071C428.955 236.631 428.841 236.288 428.614 236.044C428.39 235.797 428.074 235.673 427.668 235.673C427.395 235.673 427.151 235.733 426.935 235.852C426.722 235.969 426.554 236.138 426.432 236.359C426.313 236.581 426.253 236.849 426.253 237.165ZM432.07 241V234.455H433.613V241H432.07ZM432.846 233.526C432.601 233.526 432.391 233.445 432.215 233.283C432.039 233.118 431.951 232.92 431.951 232.69C431.951 232.457 432.039 232.26 432.215 232.098C432.391 231.933 432.601 231.851 432.846 231.851C433.093 231.851 433.303 231.933 433.476 232.098C433.652 232.26 433.74 232.457 433.74 232.69C433.74 232.92 433.652 233.118 433.476 233.283C433.303 233.445 433.093 233.526 432.846 233.526ZM435.199 243.455V234.455H436.716V235.537H436.805C436.885 235.378 436.997 235.209 437.142 235.03C437.287 234.848 437.483 234.693 437.73 234.565C437.977 234.435 438.293 234.369 438.676 234.369C439.182 234.369 439.638 234.499 440.044 234.757C440.453 235.013 440.777 235.392 441.016 235.895C441.257 236.395 441.378 237.009 441.378 237.736C441.378 238.455 441.26 239.065 441.024 239.568C440.788 240.071 440.467 240.455 440.061 240.719C439.655 240.983 439.195 241.115 438.68 241.115C438.305 241.115 437.994 241.053 437.747 240.928C437.5 240.803 437.301 240.652 437.151 240.476C437.003 240.297 436.888 240.128 436.805 239.969H436.741V243.455H435.199ZM436.712 237.727C436.712 238.151 436.771 238.521 436.891 238.839C437.013 239.158 437.188 239.406 437.415 239.585C437.645 239.761 437.923 239.849 438.25 239.849C438.591 239.849 438.876 239.759 439.107 239.577C439.337 239.392 439.51 239.141 439.626 238.822C439.746 238.501 439.805 238.136 439.805 237.727C439.805 237.321 439.747 236.96 439.631 236.645C439.514 236.33 439.341 236.082 439.111 235.903C438.881 235.724 438.594 235.635 438.25 235.635C437.92 235.635 437.641 235.722 437.411 235.895C437.18 236.068 437.006 236.311 436.886 236.624C436.77 236.936 436.712 237.304 436.712 237.727Z" fill="#403F3B"/>
<rect x="849.5" y="223.5" width="74" height="27" rx="13.5" stroke="#85837A" stroke-opacity="0.2"/>
<path fill-rule="evenodd" clip-rule="evenodd" d="M874.333 231C875.438 231 876.333 231.895 876.333 233V241C876.333 242.105 875.438 243 874.333 243H863.667C862.562 243 861.667 242.105 861.667 241V233C861.667 231.895 862.562 231 863.667 231H874.333ZM863 241C863 241.368 863.298 241.667 863.667 241.667H874.333C874.702 241.667 875 241.368 875 241V234.882L870.031 238.047C870.023 238.052 870.016 238.057 870.008 238.061C869.703 238.238 869.356 238.331 869.003 238.331C868.651 238.331 868.304 238.238 867.999 238.061C867.991 238.057 867.983 238.052 867.975 238.047L863 234.881V241ZM863.667 232.333C863.298 232.333 863 232.632 863 233V233.3L868.672 236.91C868.773 236.968 868.887 236.998 869.003 236.998C869.119 236.998 869.233 236.968 869.333 236.91L875 233.3V233C875 232.632 874.702 232.333 874.333 232.333H863.667Z" fill="#6A6862"/>
<path d="M893.331 235.217H891.737C891.692 234.956 891.608 234.724 891.486 234.523C891.364 234.318 891.212 234.145 891.03 234.003C890.848 233.861 890.641 233.754 890.408 233.683C890.178 233.609 889.929 233.572 889.662 233.572C889.188 233.572 888.767 233.692 888.401 233.93C888.034 234.166 887.747 234.513 887.54 234.97C887.332 235.425 887.229 235.98 887.229 236.636C887.229 237.304 887.332 237.866 887.54 238.324C887.75 238.778 888.037 239.122 888.401 239.355C888.767 239.585 889.186 239.7 889.658 239.7C889.919 239.7 890.163 239.666 890.391 239.598C890.621 239.527 890.827 239.423 891.009 239.287C891.193 239.151 891.348 238.983 891.473 238.784C891.601 238.585 891.689 238.358 891.737 238.102L893.331 238.111C893.271 238.526 893.142 238.915 892.943 239.278C892.747 239.642 892.49 239.963 892.172 240.241C891.854 240.517 891.482 240.733 891.055 240.889C890.629 241.043 890.156 241.119 889.636 241.119C888.869 241.119 888.185 240.942 887.582 240.587C886.98 240.232 886.506 239.719 886.159 239.048C885.813 238.378 885.639 237.574 885.639 236.636C885.639 235.696 885.814 234.892 886.163 234.224C886.513 233.554 886.989 233.041 887.591 232.686C888.193 232.331 888.875 232.153 889.636 232.153C890.122 232.153 890.574 232.222 890.991 232.358C891.409 232.494 891.781 232.695 892.108 232.959C892.435 233.22 892.703 233.541 892.913 233.922C893.126 234.3 893.266 234.732 893.331 235.217ZM896.253 237.165V241H894.711V232.273H896.219V235.567H896.296C896.449 235.197 896.686 234.906 897.007 234.693C897.331 234.477 897.743 234.369 898.243 234.369C898.698 234.369 899.094 234.464 899.432 234.655C899.77 234.845 900.032 235.124 900.216 235.49C900.404 235.857 900.498 236.304 900.498 236.832V241H898.955V237.071C898.955 236.631 898.841 236.288 898.614 236.044C898.39 235.797 898.074 235.673 897.668 235.673C897.395 235.673 897.151 235.733 896.935 235.852C896.722 235.969 896.554 236.138 896.432 236.359C896.313 236.581 896.253 236.849 896.253 237.165ZM902.07 241V234.455H903.613V241H902.07ZM902.846 233.526C902.601 233.526 902.391 233.445 902.215 233.283C902.039 233.118 901.951 232.92 901.951 232.69C901.951 232.457 902.039 232.26 902.215 232.098C902.391 231.933 902.601 231.851 902.846 231.851C903.093 231.851 903.303 231.933 903.476 232.098C903.652 232.26 903.74 232.457 903.74 232.69C903.74 232.92 903.652 233.118 903.476 233.283C903.303 233.445 903.093 233.526 902.846 233.526ZM905.199 243.455V234.455H906.716V235.537H906.805C906.885 235.378 906.997 235.209 907.142 235.03C907.287 234.848 907.483 234.693 907.73 234.565C907.977 234.435 908.293 234.369 908.676 234.369C909.182 234.369 909.638 234.499 910.044 234.757C910.453 235.013 910.777 235.392 911.016 235.895C911.257 236.395 911.378 237.009 911.378 237.736C911.378 238.455 911.26 239.065 911.024 239.568C910.788 240.071 910.467 240.455 910.061 240.719C909.655 240.983 909.195 241.115 908.68 241.115C908.305 241.115 907.994 241.053 907.747 240.928C907.5 240.803 907.301 240.652 907.151 240.476C907.003 240.297 906.888 240.128 906.805 239.969H906.741V243.455H905.199ZM906.712 237.727C906.712 238.151 906.771 238.521 906.891 238.839C907.013 239.158 907.188 239.406 907.415 239.585C907.645 239.761 907.923 239.849 908.25 239.849C908.591 239.849 908.876 239.759 909.107 239.577C909.337 239.392 909.51 239.141 909.626 238.822C909.746 238.501 909.805 238.136 909.805 237.727C909.805 237.321 909.747 236.96 909.631 236.645C909.514 236.33 909.341 236.082 909.111 235.903C908.881 235.724 908.594 235.635 908.25 235.635C907.92 235.635 907.641 235.722 907.411 235.895C907.18 236.068 907.006 236.311 906.886 236.624C906.77 236.936 906.712 237.304 906.712 237.727Z" fill="#6A6862"/>
<rect x="40" y="4" width="41.0781" height="30" rx="3" fill="white"/>
<rect x="40.5" y="4.5" width="40.0781" height="29" rx="2.5" stroke="black" stroke-opacity="0.2"/>
<path d="M47.0469 14H48.0156V16.6719C48.0156 17.0677 48.0846 17.3789 48.2227 17.6055C48.3607 17.8294 48.556 17.9883 48.8086 18.082C49.0612 18.1732 49.3594 18.2188 49.7031 18.2188C49.9193 18.2188 50.1289 18.2109 50.332 18.1953C50.5352 18.1771 50.7331 18.1523 50.9258 18.1211C51.1211 18.0898 51.3112 18.0521 51.4961 18.0078C51.6836 17.9635 51.8672 17.9141 52.0469 17.8594V18.7344C51.8724 18.7891 51.6992 18.8385 51.5273 18.8828C51.3581 18.9271 51.181 18.9648 50.9961 18.9961C50.8138 19.0273 50.6172 19.0521 50.4063 19.0703C50.1953 19.0859 49.9609 19.0937 49.7031 19.0937C49.151 19.0937 48.6758 19.0143 48.2773 18.8555C47.8815 18.6966 47.5768 18.4401 47.3633 18.0859C47.1523 17.7318 47.0469 17.2604 47.0469 16.6719V14ZM51.9219 14H52.8906V22H51.9219V14ZM55.6289 20.6406L58.5195 16H59.582V22H58.6602V17.3594L55.7852 22H54.707V16H55.6289V20.6406ZM61.2705 22V16H65.9893V22H65.0674V16.8594H62.1924V22H61.2705ZM68.4697 18.1719H70.1885C70.8916 18.1719 71.4294 18.3503 71.8018 18.707C72.1742 19.0638 72.3604 19.5156 72.3604 20.0625C72.3604 20.4219 72.277 20.7487 72.1104 21.043C71.9437 21.3346 71.6989 21.5677 71.376 21.7422C71.0531 21.9141 70.6572 22 70.1885 22H67.6729V16H68.5947V21.1406H70.1885C70.5531 21.1406 70.8525 21.0443 71.0869 20.8516C71.3213 20.6589 71.4385 20.4115 71.4385 20.1094C71.4385 19.7917 71.3213 19.5326 71.0869 19.332C70.8525 19.1315 70.5531 19.0312 70.1885 19.0312H68.4697V18.1719ZM73.3135 22V16H74.2354V22H73.3135Z" fill="black"/>
</svg>
